<svg width="1336" height="768" viewBox="0 0 1336 768" fill="none" xmlns="http://www.w3.org/2000/svg">
<rect width="1336" height="768" fill="#0BA6FF"/>
<path d="M479.983 668.079C484.635 722.658 504.342 767.813 504.342 767.813L1335.83 768L1336 -1.90735e-05L1063.95 0.791294C1063.95 0.791294 957.186 -11.4559 847.726 75.0964C844.306 77.7976 840.954 80.5728 837.67 83.4219C822.274 96.732 808.28 111.581 795.907 127.737C762.489 171.529 741.371 223.443 734.735 278.118C729.455 320.958 716.079 375.405 683.509 420.523C682.392 422.066 681.254 423.6 680.097 425.125C657.636 454.596 626.58 479.666 583.714 494.215C543.169 507.981 517.256 530.299 501.362 556.421C480.486 590.69 476.853 631.502 479.983 668.079Z" fill="#F44A87"/>
<path opacity="0.4" d="M1190.58 556.012V147.014H1335.41V556.012H1190.58Z" fill="#8F244B" stroke="#212121"/>
<path opacity="0.4" d="M1020.73 237.367V556.012H852.873V237.367H1020.73Z" fill="#8F244B" stroke="#212121"/>
<path opacity="0.4" d="M735.208 278.218L735.208 278.217C741.811 223.71 762.829 171.949 796.097 128.262H851.873V556.012H684.017V420.735C716.579 375.539 729.937 321.058 735.208 278.218Z" fill="#8F244B" stroke="#212121"/>
<path opacity="0.4" d="M1189.58 60.0709V556.012H1021.73V60.0709H1189.58Z" fill="#8F244B" stroke="#212121"/>
<path opacity="0.4" d="M480.046 668.175H1335.91V556.512H501.401C480.533 590.786 476.908 631.599 480.046 668.175Z" fill="white"/>
<g opacity="0.5">
<path opacity="0.5" d="M630.132 491.568C630.33 505.575 642.153 516.652 656.169 516.652H658.12C659.843 516.645 661.5 517.314 662.736 518.515C663.674 519.393 664.327 520.533 664.611 521.786C664.741 522.291 664.807 522.812 664.806 523.334V548.062C664.799 552.816 666.16 557.472 668.727 561.473C672.46 567.144 674.484 573.768 674.558 580.555C674.559 582.139 674.876 583.706 675.49 585.166C676.103 586.626 677.002 587.949 678.133 589.058C679.263 590.167 680.604 591.04 682.076 591.626C683.548 592.212 685.122 592.498 686.706 592.469C693.262 592.35 698.399 586.718 698.399 580.165V573.981L701.649 574.36V580.555C701.65 582.139 701.967 583.706 702.581 585.166C703.194 586.626 704.093 587.949 705.224 589.058C706.354 590.167 707.695 591.04 709.167 591.626C710.639 592.212 712.213 592.498 713.797 592.469C720.353 592.35 725.49 586.718 725.49 580.165V577.035C728.74 578.389 747.162 578.389 752.277 577.078L753.664 576.97V580.555C753.665 582.139 753.982 583.706 754.595 585.166C755.209 586.626 756.108 587.949 757.238 589.058C758.369 590.167 759.71 591.04 761.182 591.626C762.654 592.212 764.228 592.498 765.812 592.469C772.368 592.35 777.504 586.718 777.504 580.165V575.02L778.588 574.923V580.555C778.588 581.552 778.712 582.545 778.956 583.512C779.626 586.112 781.153 588.41 783.29 590.035C785.427 591.66 788.05 592.518 790.736 592.469C793.616 592.362 796.364 591.233 798.487 589.283C800.61 587.334 801.969 584.693 802.32 581.833C802.389 581.28 802.425 580.723 802.428 580.165V554.29C802.438 545.404 799.462 536.772 793.976 529.779C793.024 528.542 792.491 527.035 792.454 525.475C792.417 523.915 792.878 522.384 793.77 521.103C799.838 512.222 808.811 497.232 808.518 486.606C808.577 483.724 807.566 480.923 805.679 478.743C805.56 478.613 805.441 478.483 805.321 478.364C796.587 469.222 781.21 476.414 782.543 488.978C782.994 493.188 782.681 497.444 781.622 501.542C781.021 503.859 780.205 506.114 779.184 508.279C778.165 510.453 776.488 512.251 774.389 513.418C772.29 514.584 769.876 515.06 767.491 514.778C765.87 514.582 764.238 514.484 762.604 514.486H712.486C709.546 514.485 706.679 513.564 704.289 511.853C701.899 510.142 700.104 507.726 699.157 504.943C698.649 503.484 698.393 501.95 698.399 500.405V461.413C698.399 460.397 698.195 459.392 697.799 458.456C697.403 457.52 696.823 456.674 696.093 455.966C695.363 455.259 694.498 454.706 693.551 454.339C692.603 453.972 691.591 453.8 690.575 453.831C689.583 453.865 688.609 454.098 687.709 454.517C686.81 454.936 686.004 455.532 685.341 456.268C683.984 457.764 683.231 459.711 683.228 461.73C683.228 462.257 683.124 462.78 682.921 463.267C682.719 463.755 682.423 464.197 682.05 464.57C681.676 464.943 681.233 465.239 680.746 465.441C680.258 465.642 679.735 465.746 679.207 465.746H655.595C652.219 465.744 648.877 466.414 645.763 467.716C642.648 469.017 639.824 470.925 637.455 473.328C635.085 475.731 633.217 478.582 631.96 481.713C630.703 484.844 630.081 488.194 630.132 491.568Z" fill="url(#paint0_linear)"/>
<path opacity="0.5" d="M778.956 583.512C779.626 586.112 781.153 588.41 783.29 590.035C785.427 591.66 788.05 592.518 790.736 592.469C793.616 592.362 796.364 591.233 798.487 589.283C800.61 587.334 801.969 584.693 802.32 581.833C795.103 579.884 785.101 578.541 778.956 583.512Z" fill="url(#paint1_linear)"/>
<path opacity="0.5" d="M754.033 583.512C754.702 586.112 756.229 588.41 758.366 590.035C760.503 591.66 763.127 592.518 765.812 592.469C768.692 592.362 771.441 591.233 773.563 589.284C775.686 587.334 777.045 584.693 777.396 581.833C770.179 579.884 760.177 578.541 754.033 583.512Z" fill="url(#paint2_linear)"/>
<path opacity="0.5" d="M702.018 583.512C702.687 586.112 704.214 588.41 706.351 590.035C708.489 591.66 711.112 592.518 713.797 592.469C716.678 592.362 719.426 591.233 721.549 589.284C723.672 587.334 725.03 584.693 725.381 581.833C718.164 579.884 708.162 578.541 702.018 583.512Z" fill="url(#paint3_linear)"/>
<path opacity="0.5" d="M674.927 583.512C675.596 586.112 677.123 588.41 679.26 590.035C681.398 591.66 684.021 592.518 686.706 592.469C689.587 592.362 692.335 591.233 694.458 589.284C696.581 587.334 697.939 584.693 698.29 581.833C691.073 579.884 681.071 578.541 674.927 583.512Z" fill="url(#paint4_linear)"/>
<path opacity="0.5" d="M781.622 501.542C790.042 498.163 800.315 491.979 808.518 486.606C808.577 483.725 807.566 480.923 805.679 478.743C805.56 478.613 805.441 478.483 805.321 478.364C796.587 469.222 781.21 476.414 782.543 488.978C782.993 493.188 782.681 497.444 781.622 501.542Z" fill="url(#paint5_linear)"/>
<path opacity="0.5" d="M771.43 514.558C771.43 514.558 748.246 543.73 710.319 514.486L771.43 514.558Z" fill="url(#paint6_linear)"/>
<path opacity="0.5" d="M698.398 460.33C698.398 460.33 684.311 478.743 698.398 501.488V460.33Z" fill="url(#paint7_linear)"/>
<path opacity="0.5" d="M664.806 523.15C664.806 523.15 677.212 538.559 664.961 550.804L664.806 523.15Z" fill="url(#paint8_linear)"/>
<g opacity="0.1">
<path opacity="0.1" d="M663.722 519.901C664.643 520.768 664.329 521.602 664.611 522.869L704.9 512.319C702.733 510.651 700.046 508.669 699.157 506.027C694.324 509.774 684.777 516.056 663.722 519.901Z" fill="url(#paint9_linear)"/>
</g>
<path opacity="0.5" d="M662.736 518.515C663.674 519.393 664.327 520.533 664.611 521.786L703.882 511.55C701.688 509.864 700.043 507.564 699.157 504.943C694.324 508.691 683.791 514.67 662.736 518.515Z" fill="url(#paint10_linear)"/>
<path opacity="0.1" d="M697.68 507.11C697.68 507.11 685.395 516.345 664.806 519.206L697.68 507.11Z" fill="url(#paint11_linear)"/>
<path opacity="0.5" d="M697.68 506.027C697.68 506.027 685.395 515.262 664.806 518.123L697.68 506.027Z" fill="url(#paint12_linear)"/>
<g opacity="0.1">
<path opacity="0.1" d="M666.973 506.904C666.973 506.904 646.384 513.402 640.966 492.823L666.973 506.904Z" fill="url(#paint13_linear)"/>
</g>
<path opacity="0.5" d="M666.973 505.821C666.973 505.821 646.384 512.319 640.966 491.74L666.973 505.821Z" fill="url(#paint14_linear)"/>
<path opacity="0.5" d="M630.129 492.823C631.326 492.823 632.296 491.126 632.296 489.033C632.296 486.939 631.326 485.242 630.129 485.242C628.932 485.242 627.962 486.939 627.962 489.033C627.962 491.126 628.932 492.823 630.129 492.823Z" fill="url(#paint15_linear)"/>
<path opacity="0.1" d="M794.301 567.016L789.966 532.357C789.966 532.357 802.97 552.936 794.301 567.016Z" fill="url(#paint16_linear)"/>
<path opacity="0.5" d="M788.883 532.357C788.883 532.357 801.886 552.936 793.217 567.016L788.883 532.357Z" fill="url(#paint17_linear)"/>
</g>
<path d="M634.168 493.015C634.358 506.38 645.639 516.949 659.013 516.949H660.874C662.518 516.943 664.1 517.581 665.279 518.727C666.174 519.565 666.797 520.652 667.068 521.848C667.192 522.331 667.255 522.828 667.254 523.326V546.921C667.247 551.457 668.546 555.899 670.996 559.718C674.557 565.129 676.488 571.449 676.56 577.925C676.561 579.436 676.863 580.932 677.448 582.325C678.034 583.718 678.891 584.981 679.97 586.039C681.049 587.097 682.328 587.93 683.733 588.489C685.137 589.048 686.639 589.321 688.151 589.294C694.406 589.18 699.308 583.806 699.308 577.553V571.652L702.41 572.014V577.925C702.411 579.436 702.713 580.932 703.298 582.325C703.884 583.718 704.741 584.981 705.82 586.039C706.899 587.097 708.178 587.93 709.583 588.489C710.987 589.048 712.489 589.321 714.001 589.294C720.256 589.18 725.158 583.806 725.158 577.553V574.566C728.26 575.858 745.837 575.858 750.718 574.608L752.041 574.504V577.925C752.042 579.436 752.344 580.932 752.93 582.325C753.516 583.718 754.373 584.981 755.452 586.039C756.531 587.097 757.81 587.93 759.215 588.489C760.619 589.048 762.121 589.321 763.633 589.294C769.888 589.18 774.789 583.806 774.789 577.553V572.644L775.823 572.551V577.925C775.824 578.877 775.942 579.824 776.175 580.747C776.814 583.227 778.271 585.42 780.31 586.971C782.349 588.522 784.852 589.34 787.415 589.294C790.163 589.191 792.785 588.114 794.811 586.254C796.837 584.394 798.133 581.874 798.468 579.145C798.534 578.617 798.568 578.085 798.571 577.553V552.863C798.581 544.384 795.741 536.148 790.506 529.475C789.598 528.295 789.09 526.857 789.054 525.368C789.019 523.88 789.459 522.419 790.31 521.197C796.1 512.722 804.662 498.419 804.382 488.28C804.439 485.531 803.474 482.857 801.673 480.777C801.56 480.653 801.446 480.529 801.332 480.416C792.998 471.693 778.326 478.555 779.597 490.544C780.027 494.56 779.729 498.621 778.719 502.532C778.145 504.743 777.366 506.895 776.392 508.961C775.42 511.035 773.819 512.75 771.817 513.864C769.814 514.977 767.511 515.431 765.235 515.161C763.688 514.974 762.131 514.881 760.572 514.882H712.75C709.944 514.882 707.209 514.003 704.928 512.371C702.647 510.738 700.935 508.432 700.031 505.777C699.547 504.385 699.302 502.921 699.308 501.447V464.241C699.308 463.272 699.113 462.312 698.735 461.42C698.357 460.527 697.804 459.719 697.107 459.044C696.411 458.369 695.586 457.841 694.682 457.491C693.777 457.141 692.812 456.977 691.842 457.007C690.896 457.039 689.966 457.262 689.108 457.661C688.25 458.061 687.481 458.629 686.848 459.332C685.553 460.76 684.835 462.617 684.832 464.544C684.832 465.047 684.732 465.546 684.54 466.011C684.347 466.476 684.064 466.898 683.708 467.254C683.352 467.61 682.929 467.892 682.463 468.085C681.998 468.277 681.499 468.376 680.995 468.376H658.465C655.244 468.374 652.055 469.013 649.083 470.255C646.111 471.497 643.417 473.318 641.156 475.611C638.894 477.904 637.112 480.623 635.913 483.611C634.713 486.599 634.12 489.795 634.168 493.015H634.168Z" fill="#FFB930"/>
<path d="M776.175 580.747C776.814 583.227 778.271 585.42 780.31 586.971C782.349 588.522 784.852 589.34 787.415 589.294C790.163 589.191 792.785 588.114 794.811 586.254C796.837 584.394 798.133 581.874 798.468 579.145C791.582 577.285 782.038 576.003 776.175 580.747Z" fill="#F8DEA5"/>
<path d="M752.393 580.747C753.032 583.227 754.489 585.42 756.528 586.971C758.567 588.522 761.07 589.34 763.633 589.294C766.381 589.191 769.004 588.114 771.029 586.254C773.055 584.394 774.351 581.874 774.686 579.145C767.8 577.285 758.256 576.003 752.393 580.747Z" fill="#F8DEA5"/>
<path d="M702.761 580.747C703.4 583.227 704.857 585.42 706.896 586.971C708.936 588.522 711.439 589.34 714.001 589.294C716.749 589.191 719.372 588.114 721.397 586.254C723.423 584.394 724.719 581.874 725.054 579.145C718.168 577.285 708.624 576.003 702.761 580.747Z" fill="#F8DEA5"/>
<path d="M676.911 580.747C677.55 583.227 679.007 585.42 681.046 586.971C683.086 588.522 685.589 589.34 688.151 589.294C690.899 589.191 693.522 588.114 695.547 586.254C697.573 584.394 698.869 581.874 699.204 579.145C692.318 577.285 682.774 576.003 676.911 580.747Z" fill="#F8DEA5"/>
<path d="M778.719 502.532C786.753 499.308 796.555 493.407 804.382 488.28C804.439 485.531 803.474 482.857 801.673 480.777C801.56 480.653 801.446 480.529 801.332 480.416C792.998 471.693 778.326 478.555 779.598 490.544C780.027 494.56 779.729 498.621 778.719 502.532Z" fill="#F8DEA5"/>
<path d="M768.994 514.952C768.994 514.952 746.871 542.787 710.682 514.883L768.994 514.952Z" fill="#F8DEA5"/>
<path d="M699.308 463.208C699.308 463.208 685.866 480.777 699.308 502.481V463.208Z" fill="#F8DEA5"/>
<path d="M667.254 523.15C667.254 523.15 679.092 537.853 667.402 549.537L667.254 523.15Z" fill="#F8DEA5"/>
<path opacity="0.1" d="M666.22 520.05C667.099 520.877 666.799 521.673 667.068 522.882L705.512 512.816C703.444 511.224 700.879 509.333 700.031 506.811C695.42 510.387 686.31 516.381 666.22 520.05Z" fill="black"/>
<path d="M665.279 518.727C666.174 519.565 666.797 520.652 667.068 521.848L704.54 512.082C702.446 510.472 700.877 508.278 700.031 505.777C695.42 509.353 685.369 515.058 665.279 518.727Z" fill="#383F4D"/>
<path opacity="0.1" d="M698.622 507.844C698.622 507.844 686.9 516.657 667.254 519.387L698.622 507.844Z" fill="black"/>
<path d="M698.622 506.811C698.622 506.811 686.9 515.624 667.254 518.354L698.622 506.811Z" fill="#F1D087"/>
<path opacity="0.1" d="M663.352 511.058C663.352 511.058 643.706 517.258 638.536 497.622L663.352 511.058Z" fill="black"/>
<path d="M663.352 510.024C663.352 510.024 643.706 516.225 638.536 496.589L663.352 510.024Z" fill="#F1D087"/>
<path d="M634.166 494.213C635.308 494.213 636.234 492.593 636.234 490.596C636.234 488.598 635.308 486.978 634.166 486.978C633.024 486.978 632.098 488.598 632.098 490.596C632.098 492.593 633.024 494.213 634.166 494.213Z" fill="#383F4D"/>
<path opacity="0.1" d="M790.816 565.007L786.68 531.935C786.68 531.935 799.088 551.571 790.816 565.007Z" fill="black"/>
<path d="M785.646 531.935C785.646 531.935 798.054 551.571 789.782 565.007L785.646 531.935Z" fill="#F1D087"/>
<path opacity="0.1" d="M699.308 513.616C699.308 513.616 760.044 547.906 805.304 530.195C822.812 523.344 835.42 507.91 839.581 489.583C841.923 479.347 846.018 469.593 851.687 460.752C868.085 435.195 896.894 420.412 927.267 420.84C958.746 421.284 1017.83 417.009 1035.15 380.473" stroke="#383F4D" stroke-width="2" stroke-miterlimit="10"/>
<path d="M699.308 512.582C699.308 512.582 760.044 546.872 805.304 529.161C822.812 522.31 835.42 506.876 839.581 488.55C841.923 478.313 846.018 468.559 851.687 459.719C868.085 434.162 896.894 419.379 927.267 419.807C958.746 420.25 1017.83 415.976 1035.15 379.439" stroke="#383F4D" stroke-width="2" stroke-miterlimit="10"/>
<path d="M1046.28 356.321C1046.28 356.321 1019.58 387.448 1025.19 389.48C1030.8 391.513 1057.01 369.272 1055.32 361.408L1046.28 356.321Z" fill="#F0C4B0"/>
<path d="M1203.46 385.168C1203.46 385.168 1217.95 423.525 1211.98 423.525C1206.01 423.525 1188.96 393.691 1193.22 386.872L1203.46 385.168Z" fill="#F0C4B0"/>
<path d="M1230.99 619.1C1241.07 604.894 1245.51 590.728 1240.9 587.459C1236.29 584.19 1224.38 593.056 1214.3 607.262C1204.21 621.468 1199.78 635.634 1204.39 638.903C1209 642.172 1220.91 633.305 1230.99 619.1Z" fill="#212121"/>
<path d="M1123.55 636.301C1136.79 624.983 1144.55 612.328 1140.88 608.034C1137.21 603.739 1123.49 609.433 1110.25 620.751C1097 632.068 1089.24 644.724 1092.91 649.018C1096.58 653.312 1110.3 647.619 1123.55 636.301Z" fill="#212121"/>
<path d="M1212.48 152.994C1210.08 149.611 1207.14 146.654 1204.61 143.368C1198.79 135.792 1196.77 125.698 1188.96 119.888C1181.22 114.14 1168.95 108.482 1159.27 108.935C1146.52 109.532 1136.4 119.422 1127.61 128.676C1120.89 135.748 1114.17 142.819 1107.45 149.891C1102.59 155.007 1097.55 160.438 1095.8 167.273C1094.12 173.841 1095.76 180.898 1098.84 186.938C1102.05 193.065 1106.54 198.426 1112.01 202.652C1118.76 193.366 1128.21 180.544 1128.21 180.544L1130.41 212.438C1141.84 216.224 1154.12 216.969 1166.17 216.132L1169.74 203.055L1173.48 215.407C1187.88 213.5 1202.34 208.532 1211.25 197.304C1221.11 184.89 1221.63 165.932 1212.48 152.994Z" fill="#212121"/>
<path d="M1157.4 181.447C1172.01 181.447 1183.84 169.617 1183.84 155.023C1183.84 140.43 1172.01 128.599 1157.4 128.599C1142.8 128.599 1130.97 140.43 1130.97 155.023C1130.97 169.617 1142.8 181.447 1157.4 181.447Z" fill="#F0C4B0"/>
<path d="M1140.35 167.809C1140.35 167.809 1142.05 188.266 1130.97 189.971C1119.88 191.676 1107.94 189.971 1107.94 196.79C1107.94 203.609 1116.47 265.833 1116.47 265.833L1137.79 264.129L1167.64 235.148L1183.84 203.609C1183.84 203.609 1164.23 195.085 1172.75 169.514L1140.35 167.809Z" fill="#F0C4B0"/>
<path d="M1127.56 253.9L1119.03 230.886L1120.73 199.347C1120.73 199.347 1139.46 196.79 1139.05 181.447L1125 187.414L1092.59 192.528V222.362C1092.59 222.362 1081.5 240.262 1094.3 258.162L1100.27 295.667L1161.67 291.405L1181.28 265.833L1206.01 217.247L1180.43 198.495L1183.84 193.381L1170.79 184.874L1172.75 201.052L1166.79 211.281C1166.79 211.281 1139.5 216.395 1127.56 253.9Z" fill="#D0CDE1"/>
<path d="M1097.71 194.233L1092.59 192.528C1092.59 192.528 1082.36 196.79 1082.36 210.428C1082.36 224.067 1041.42 358.744 1041.42 358.744L1060.18 363.858L1085.77 301.634L1101.12 249.638L1097.71 194.233Z" fill="#D0CDE1"/>
<path d="M1199.19 217.247H1206.01C1206.01 217.247 1210.28 213.838 1209.43 238.557C1208.57 263.276 1211.98 393.691 1211.98 393.691L1187.25 391.987L1181.28 251.343L1199.19 217.247Z" fill="#D0CDE1"/>
<path d="M1166.6 284.979C1166.6 284.979 1108.79 274.357 1096 284.586C1097.19 286.019 1097.8 287.843 1097.71 289.7C1097.71 293.11 1099.41 288.848 1097.71 293.11C1096 297.372 1092.59 293.962 1096 297.372C1099.41 300.781 1100.27 299.929 1098.56 302.486C1096.86 305.043 1098.56 309.305 1098.56 309.305C1098.56 309.305 1089.18 353.629 1097.71 385.168C1106.24 416.706 1177.02 639.179 1195.78 633.212C1214.54 627.245 1261.45 599.969 1258.89 590.593C1256.33 581.216 1170.2 451.654 1170.2 451.654C1170.2 451.654 1206.01 339.991 1163.37 304.191C1163.37 304.191 1165.93 300.781 1165.08 298.224C1164.23 295.667 1163.37 298.224 1164.23 295.667C1165.08 293.11 1169.34 293.11 1166.79 290.553C1164.23 287.996 1166.6 284.979 1166.6 284.979Z" fill="#123282"/>
<path d="M1127.56 376.644C1127.56 376.644 1069.57 635.769 1081.5 640.031C1093.44 644.293 1139.5 645.145 1142.91 640.031C1146.32 634.917 1170.2 451.654 1170.2 451.654L1127.56 376.644Z" fill="#123282"/>
<path d="M1128.84 135.845C1128.84 135.845 1150.16 161.416 1192.8 146.926L1180.86 125.616L1152.71 117.092L1128.84 135.845Z" fill="#212121"/>
<defs>
<linearGradient id="paint0_linear" x1="719.327" y1="592.471" x2="719.327" y2="453.828" gradientUnits="userSpaceOnUse">
<stop stop-color="#808080" stop-opacity="0.25"/>
<stop offset="0.53514" stop-color="#808080" stop-opacity="0.12"/>
<stop offset="1" stop-color="#808080" stop-opacity="0.1"/>
</linearGradient>
<linearGradient id="paint1_linear" x1="14050.1" y1="9189.71" x2="14050.1" y2="9009.45" gradientUnits="userSpaceOnUse">
<stop stop-color="#808080" stop-opacity="0.25"/>
<stop offset="0.53514" stop-color="#808080" stop-opacity="0.12"/>
<stop offset="1" stop-color="#808080" stop-opacity="0.1"/>
</linearGradient>
<linearGradient id="paint2_linear" x1="14708" y1="9189.8" x2="14708" y2="9009.54" gradientUnits="userSpaceOnUse">
<stop stop-color="#808080" stop-opacity="0.25"/>
<stop offset="0.53514" stop-color="#808080" stop-opacity="0.12"/>
<stop offset="1" stop-color="#808080" stop-opacity="0.1"/>
</linearGradient>
<linearGradient id="paint3_linear" x1="16080.9" y1="9189.8" x2="16080.9" y2="9009.54" gradientUnits="userSpaceOnUse">
<stop stop-color="#808080" stop-opacity="0.25"/>
<stop offset="0.53514" stop-color="#808080" stop-opacity="0.12"/>
<stop offset="1" stop-color="#808080" stop-opacity="0.1"/>
</linearGradient>
<linearGradient id="paint4_linear" x1="16796" y1="9189.8" x2="16796" y2="9009.54" gradientUnits="userSpaceOnUse">
<stop stop-color="#808080" stop-opacity="0.25"/>
<stop offset="0.53514" stop-color="#808080" stop-opacity="0.12"/>
<stop offset="1" stop-color="#808080" stop-opacity="0.1"/>
</linearGradient>
<linearGradient id="paint5_linear" x1="15921.1" y1="16522.7" x2="15921.1" y2="15648.4" gradientUnits="userSpaceOnUse">
<stop stop-color="#808080" stop-opacity="0.25"/>
<stop offset="0.53514" stop-color="#808080" stop-opacity="0.12"/>
<stop offset="1" stop-color="#808080" stop-opacity="0.1"/>
</linearGradient>
<linearGradient id="paint6_linear" x1="38989.9" y1="8563.11" x2="38989.9" y2="8364.35" gradientUnits="userSpaceOnUse">
<stop stop-color="#808080" stop-opacity="0.25"/>
<stop offset="0.53514" stop-color="#808080" stop-opacity="0.12"/>
<stop offset="1" stop-color="#808080" stop-opacity="0.1"/>
</linearGradient>
<linearGradient id="paint7_linear" x1="4948.78" y1="24654.5" x2="4948.78" y2="22667.1" gradientUnits="userSpaceOnUse">
<stop stop-color="#808080" stop-opacity="0.25"/>
<stop offset="0.53514" stop-color="#808080" stop-opacity="0.12"/>
<stop offset="1" stop-color="#808080" stop-opacity="0.1"/>
</linearGradient>
<linearGradient id="paint8_linear" x1="4625.66" y1="18378.9" x2="4625.66" y2="17481.7" gradientUnits="userSpaceOnUse">
<stop stop-color="#808080" stop-opacity="0.25"/>
<stop offset="0.53514" stop-color="#808080" stop-opacity="0.12"/>
<stop offset="1" stop-color="#808080" stop-opacity="0.1"/>
</linearGradient>
<linearGradient id="paint9_linear" x1="29188.4" y1="10829" x2="29188.4" y2="10496.2" gradientUnits="userSpaceOnUse">
<stop stop-color="#808080" stop-opacity="0.25"/>
<stop offset="0.53514" stop-color="#808080" stop-opacity="0.12"/>
<stop offset="1" stop-color="#808080" stop-opacity="0.1"/>
</linearGradient>
<linearGradient id="paint10_linear" x1="29213.3" y1="10806.5" x2="29213.3" y2="10473.7" gradientUnits="userSpaceOnUse">
<stop stop-color="#808080" stop-opacity="0.25"/>
<stop offset="0.53514" stop-color="#808080" stop-opacity="0.12"/>
<stop offset="1" stop-color="#808080" stop-opacity="0.1"/>
</linearGradient>
<linearGradient id="paint11_linear" x1="23555.8" y1="7869.38" x2="23555.8" y2="7697.71" gradientUnits="userSpaceOnUse">
<stop stop-color="#808080" stop-opacity="0.25"/>
<stop offset="0.53514" stop-color="#808080" stop-opacity="0.12"/>
<stop offset="1" stop-color="#808080" stop-opacity="0.1"/>
</linearGradient>
<linearGradient id="paint12_linear" x1="23555.8" y1="7852.93" x2="23555.8" y2="7681.26" gradientUnits="userSpaceOnUse">
<stop stop-color="#808080" stop-opacity="0.25"/>
<stop offset="0.53514" stop-color="#808080" stop-opacity="0.12"/>
<stop offset="1" stop-color="#808080" stop-opacity="0.1"/>
</linearGradient>
<linearGradient id="paint13_linear" x1="19581.9" y1="9455.05" x2="19581.9" y2="9189.17" gradientUnits="userSpaceOnUse">
<stop stop-color="#808080" stop-opacity="0.25"/>
<stop offset="0.53514" stop-color="#808080" stop-opacity="0.12"/>
<stop offset="1" stop-color="#808080" stop-opacity="0.1"/>
</linearGradient>
<linearGradient id="paint14_linear" x1="19581.9" y1="9434.83" x2="19581.9" y2="9168.96" gradientUnits="userSpaceOnUse">
<stop stop-color="#808080" stop-opacity="0.25"/>
<stop offset="0.53514" stop-color="#808080" stop-opacity="0.12"/>
<stop offset="1" stop-color="#808080" stop-opacity="0.1"/>
</linearGradient>
<linearGradient id="paint15_linear" x1="-2151.91" y1="4865.43" x2="-2151.91" y2="4797.99" gradientUnits="userSpaceOnUse">
<stop stop-color="#808080" stop-opacity="0.25"/>
<stop offset="0.53514" stop-color="#808080" stop-opacity="0.12"/>
<stop offset="1" stop-color="#808080" stop-opacity="0.1"/>
</linearGradient>
<linearGradient id="paint16_linear" x1="4919.28" y1="23570.9" x2="4919.28" y2="22161.6" gradientUnits="userSpaceOnUse">
<stop stop-color="#808080" stop-opacity="0.25"/>
<stop offset="0.53514" stop-color="#808080" stop-opacity="0.12"/>
<stop offset="1" stop-color="#808080" stop-opacity="0.1"/>
</linearGradient>
<linearGradient id="paint17_linear" x1="4927.47" y1="23570.9" x2="4927.47" y2="22161.6" gradientUnits="userSpaceOnUse">
<stop stop-color="#808080" stop-opacity="0.25"/>
<stop offset="0.53514" stop-color="#808080" stop-opacity="0.12"/>
<stop offset="1" stop-color="#808080" stop-opacity="0.1"/>
</linearGradient>
</defs>
</svg>
