<svg width="46" height="47" viewBox="0 0 46 47" fill="none" xmlns="http://www.w3.org/2000/svg">
<path d="M35.7781 31.2209C36.8795 30.6761 37.7813 29.8024 38.611 28.9008C40.2559 27.1132 41.7733 24.953 41.7381 22.5946C41.7252 21.7332 41.5029 20.8978 41.2821 20.072C40.8364 18.405 40.3834 16.72 39.5464 15.2179C38.6237 13.5664 37.2696 12.1954 35.6168 11.239C35.3703 11.0925 35.0746 11.0406 34.7842 11.0931C34.2834 11.1922 34.1897 11.5392 34.1473 11.8665C33.8899 13.8522 35.1398 15.619 36.086 17.3451C37.0341 19.0757 37.7165 20.9414 38.1123 22.8845C38.28 23.7091 38.3857 24.6099 37.9895 25.3782C37.7468 25.8488 37.34 26.2184 36.9423 26.5764C36.3475 27.1119 35.6864 27.6772 34.8953 27.7412C34.0851 27.8068 33.1716 27.2413 32.3782 27.5452C31.5933 27.8458 31.072 29.1428 31.1263 29.9296C31.2734 32.0604 34.3037 31.9502 35.7781 31.2209Z" fill="#FFB930"/>
<g opacity="0.1">
<path opacity="0.1" d="M37.9895 25.3781C37.7468 25.8487 37.34 26.2184 36.9423 26.5764C36.5338 26.9441 36.0927 27.3221 35.6009 27.546C36.3143 27.4194 36.9221 26.9041 37.4718 26.4093C37.8694 26.0513 38.2763 25.6816 38.519 25.211C38.9152 24.4428 38.8095 23.5419 38.6417 22.7174C38.246 20.7742 37.5636 18.9085 36.6155 17.178C35.6693 15.4519 34.4194 13.6851 34.6768 11.6994C34.7066 11.4694 34.765 11.2315 34.9688 11.0749C34.9071 11.0758 34.8454 11.0818 34.7843 11.093C34.2835 11.1921 34.1897 11.5391 34.1473 11.8665C33.8899 13.8522 35.1398 15.6189 36.0861 17.3451C37.0341 19.0756 37.7166 20.9413 38.1123 22.8845C38.28 23.709 38.3857 24.6099 37.9895 25.3781Z" fill="black"/>
<path opacity="0.1" d="M31.6559 29.7625C31.6056 29.0354 32.0477 27.8739 32.7347 27.4646C32.6133 27.4752 32.4933 27.5023 32.3783 27.5452C31.5934 27.8458 31.0721 29.1429 31.1264 29.9296C31.2636 31.9171 33.9088 31.9546 35.4605 31.3589C33.9024 31.757 31.7784 31.5381 31.6559 29.7625Z" fill="black"/>
</g>
<path d="M18.6321 8.53089C18.6321 8.53089 22.9114 7.20083 25.1469 7.80877C25.1469 7.80877 26.2261 4.69409 27.5291 4.54967C28.832 4.40524 29.6179 9.02464 29.6179 9.02464L31.8666 15.6212C31.8666 15.6212 41.2054 29.1335 33.5286 37.6859C25.8518 46.2384 12.183 39.1962 11.7675 33.68C11.352 28.1639 13.0949 16.4183 13.0949 16.4183C13.0949 16.4183 14.9977 6.79441 15.8024 5.84948C16.6071 4.90456 18.6321 8.53089 18.6321 8.53089Z" fill="#FFB930"/>
<g opacity="0.1">
<path opacity="0.1" d="M35.5026 24.1724C34.6287 21.4881 33.407 18.9367 31.8666 16.5791L32.2217 17.6208C33.5624 19.6703 34.6626 21.8674 35.5026 24.1724Z" fill="white"/>
<path opacity="0.1" d="M12.4595 33.4086C12.0441 27.8924 13.4501 18.4178 13.4501 18.4178C13.4501 18.4178 15.3528 8.79387 16.1575 7.84895C16.9622 6.90402 18.9871 10.5304 18.9871 10.5304C18.9871 10.5304 23.2664 9.20029 25.502 9.80824C25.502 9.80824 26.5812 6.69356 27.8841 6.54914C28.3899 6.49308 28.8173 7.15547 29.1515 7.98611C28.7919 6.75687 28.2371 5.42897 27.529 5.50745C26.2261 5.65187 25.1469 8.76655 25.1469 8.76655C22.9113 8.15861 18.632 9.48867 18.632 9.48867C18.632 9.48867 16.6071 5.86233 15.8024 6.80726C14.9977 7.75218 13.095 17.3761 13.095 17.3761C13.095 17.3761 11.689 26.8507 12.1045 32.3669C12.142 32.8652 12.4715 33.5668 12.4595 33.4086Z" fill="white"/>
</g>
<path d="M28.1053 16.6922C28.5189 16.4357 28.6553 15.9068 28.4098 15.511C28.1643 15.1152 27.6299 15.0023 27.2162 15.2588C26.8026 15.5154 26.6662 16.0443 26.9117 16.4401C27.1572 16.8359 27.6916 16.9488 28.1053 16.6922Z" fill="#58555D"/>
<path d="M18.1159 17.7995C18.5296 17.543 18.6659 17.0141 18.4204 16.6183C18.1749 16.2225 17.6405 16.1096 17.2269 16.3661C16.8132 16.6227 16.6769 17.1516 16.9223 17.5474C17.1678 17.9432 17.7022 18.0561 18.1159 17.7995Z" fill="#58555D"/>
<path d="M24.2501 17.2093C24.2148 16.7406 23.6028 16.4253 22.8832 16.5051C22.1636 16.5849 21.6089 17.0295 21.6442 17.4982C21.6795 17.9668 22.2915 18.2821 23.0111 18.2024C23.7307 18.1226 24.2854 17.678 24.2501 17.2093Z" fill="#58555D"/>
<path d="M30.2037 15.4842L30.3291 15.8882L34.1743 14.6071L34.0489 14.2031L30.2037 15.4842Z" fill="#FFB930"/>
<path d="M30.3359 17.1792L30.452 17.5858L34.7322 16.2589L34.616 15.8523L30.3359 17.1792Z" fill="#FFB930"/>
<path d="M10.1938 15.5739L10.0623 15.9855L14.5334 17.2013L14.6649 16.7898L10.1938 15.5739Z" fill="#FFB930"/>
<path d="M9.0021 17.8321L8.96765 18.2588L14.6777 18.4816L14.7122 18.0549L9.0021 17.8321Z" fill="#FFB930"/>
<path opacity="0.1" d="M22.0737 30.2163C22.0737 30.2163 25.577 36.2978 21.6532 37.2838C17.7294 38.2699 19.0927 32.1494 19.0927 32.1494C19.0927 32.1494 18.5636 30.4353 17.5903 30.4431" fill="black"/>
<path opacity="0.1" d="M25.7111 29.656C25.7111 29.656 22.5822 36.1832 26.5487 36.639C30.5153 37.0948 28.7948 31.1815 28.7948 31.1815C28.7948 31.1815 29.2202 29.4033 30.1901 29.2805" fill="black"/>
<path d="M21.7048 30.0764C21.7048 30.0764 25.2081 36.1579 21.2843 37.1439C17.3605 38.13 18.7238 32.0095 18.7238 32.0095C18.7238 32.0095 18.1947 30.2954 17.2214 30.3032" fill="#FFB930"/>
<path d="M25.9655 29.3563C25.9655 29.3563 22.8365 35.8835 26.8031 36.3393C30.7697 36.7951 29.0491 30.8818 29.0491 30.8818C29.0491 30.8818 29.4745 29.1036 30.4444 28.9808" fill="#FFB930"/>
<path opacity="0.5" d="M19.9117 35.9563L20.006 37.2083L20.0746 37.2006L19.9803 35.9487L19.9117 35.9563Z" fill="#58555D"/>
<path opacity="0.5" d="M21.009 35.835L21.1033 37.0869L21.1719 37.0793L21.0776 35.8274L21.009 35.835Z" fill="#58555D"/>
<path opacity="0.5" d="M20.3834 35.5015L20.5154 37.2539L20.584 37.2463L20.452 35.4939L20.3834 35.5015Z" fill="#58555D"/>
<path opacity="0.5" d="M27.0243 34.8977L27.1186 36.1497L27.1872 36.1421L27.0929 34.8901L27.0243 34.8977Z" fill="#58555D"/>
<path opacity="0.5" d="M28.1216 34.7762L28.2159 36.0281L28.2845 36.0205L28.1902 34.7686L28.1216 34.7762Z" fill="#58555D"/>
<path opacity="0.5" d="M27.4961 34.4429L27.6281 36.1953L27.6966 36.1877L27.5646 34.4353L27.4961 34.4429Z" fill="#58555D"/>
<path opacity="0.1" d="M22.274 22.9025C21.1368 23.0292 19.9945 23.0603 18.8596 22.9955C15.2816 22.7882 12.6683 21.5686 12.5737 21.5231L12.6731 20.821C12.6952 20.8316 15.5295 22.0625 18.9686 22.2556C22.1342 22.4333 27.5003 21.6797 32.7453 18.1277L33.159 18.7338C29.3522 21.3118 25.236 22.5741 22.274 22.9025Z" fill="black"/>
<path d="M22.4628 23.3368L22.4309 23.3111C22.4837 23.2636 22.5251 23.2051 22.5519 23.1403C22.5786 23.0755 22.5899 23.0061 22.5849 22.9376C22.5799 22.869 22.5587 22.8031 22.5231 22.7451C22.4874 22.6871 22.4382 22.6384 22.3793 22.603L22.4031 22.5681C22.4669 22.6066 22.5202 22.6593 22.559 22.7221C22.5977 22.785 22.6209 22.8563 22.6267 22.9306C22.6324 23.0049 22.6206 23.0801 22.5922 23.1506C22.5638 23.221 22.5195 23.2847 22.4628 23.3368Z" fill="#4D8AF0"/>
<path opacity="0.1" d="M22.4628 23.3368L22.4309 23.3111C22.4837 23.2636 22.5251 23.2051 22.5519 23.1403C22.5786 23.0755 22.5899 23.0061 22.5849 22.9376C22.5799 22.869 22.5587 22.8031 22.5231 22.7451C22.4874 22.6871 22.4382 22.6384 22.3793 22.603L22.4031 22.5681C22.4669 22.6066 22.5202 22.6593 22.559 22.7221C22.5977 22.785 22.6209 22.8563 22.6267 22.9306C22.6324 23.0049 22.6206 23.0801 22.5922 23.1506C22.5638 23.221 22.5195 23.2847 22.4628 23.3368Z" fill="black"/>
<path d="M32.7329 17.9635C27.4879 21.5155 22.1217 22.2691 18.9562 22.0915C15.5171 21.8983 12.6828 20.6674 12.6607 20.6568L12.3058 21.3267C12.4004 21.3721 15.2692 22.624 18.8472 22.8313C19.9821 22.8961 21.1244 22.865 22.2616 22.7383C25.2236 22.41 29.3398 21.1476 33.1466 18.5696L32.7329 17.9635ZM22.3974 22.6677C22.3808 22.6696 22.3642 22.6666 22.3497 22.6591C22.3352 22.6516 22.3235 22.64 22.316 22.6257C22.3085 22.6114 22.3056 22.5951 22.3077 22.5788C22.3097 22.5626 22.3166 22.547 22.3275 22.5343C22.3384 22.5215 22.3527 22.512 22.3688 22.5071C22.3848 22.5021 22.4018 22.5018 22.4176 22.5063C22.4335 22.5109 22.4474 22.5199 22.4576 22.5324C22.4679 22.5449 22.474 22.5602 22.4752 22.5764C22.476 22.5872 22.4746 22.5981 22.4712 22.6085C22.4677 22.6189 22.4622 22.6286 22.455 22.6371C22.4477 22.6456 22.4389 22.6527 22.4291 22.6579C22.4192 22.6632 22.4084 22.6665 22.3974 22.6677Z" fill="#F55F44"/>
<path opacity="0.1" d="M21.6442 23.9091C21.6605 24.1267 21.7647 24.3255 21.9338 24.4619C22.1029 24.5983 22.323 24.6611 22.5457 24.6364C22.7684 24.6117 22.9755 24.5016 23.1214 24.3303C23.2672 24.159 23.34 23.9405 23.3236 23.7229C23.3072 23.5054 23.203 23.3065 23.034 23.1701C22.8649 23.0337 22.6448 22.9709 22.4221 22.9956C22.1994 23.0203 21.9923 23.1304 21.8464 23.3017C21.7005 23.473 21.6278 23.6915 21.6442 23.9091ZM22.453 23.4058C22.4253 23.4089 22.3976 23.4039 22.3735 23.3914C22.3493 23.3789 22.3298 23.3596 22.3173 23.3357C22.3048 23.3119 22.3 23.2847 22.3034 23.2576C22.3068 23.2305 22.3183 23.2047 22.3364 23.1834C22.3546 23.1621 22.3785 23.1463 22.4053 23.138C22.432 23.1297 22.4604 23.1293 22.4867 23.1368C22.5131 23.1443 22.5363 23.1594 22.5533 23.1802C22.5704 23.201 22.5806 23.2265 22.5826 23.2536C22.5854 23.2898 22.5732 23.3262 22.5489 23.3548C22.5246 23.3833 22.4901 23.4017 22.453 23.4058L22.453 23.4058Z" fill="url(#paint0_linear)"/>
<path d="M21.7282 23.8998C21.7429 24.0956 21.8367 24.2746 21.9888 24.3974C22.141 24.5201 22.3391 24.5766 22.5395 24.5544C22.74 24.5322 22.9263 24.4331 23.0576 24.2789C23.1889 24.1247 23.2544 23.9281 23.2397 23.7323C23.2249 23.5365 23.1312 23.3575 22.979 23.2347C22.8268 23.112 22.6287 23.0555 22.4283 23.0777C22.2279 23.0999 22.0415 23.199 21.9102 23.3532C21.7789 23.5074 21.7134 23.704 21.7282 23.8998ZM22.4561 23.4469C22.4312 23.4496 22.4063 23.4451 22.3846 23.4339C22.3628 23.4227 22.3452 23.4052 22.334 23.3838C22.3228 23.3624 22.3184 23.3379 22.3215 23.3135C22.3246 23.2891 22.3349 23.2658 22.3512 23.2467C22.3675 23.2275 22.3891 23.2133 22.4132 23.2058C22.4373 23.1984 22.4628 23.198 22.4865 23.2048C22.5102 23.2115 22.5311 23.2251 22.5464 23.2438C22.5618 23.2625 22.571 23.2855 22.5728 23.3099C22.574 23.326 22.572 23.3424 22.5668 23.358C22.5616 23.3736 22.5533 23.3882 22.5425 23.401C22.5316 23.4137 22.5184 23.4243 22.5036 23.4322C22.4888 23.44 22.4727 23.445 22.4561 23.4469Z" fill="#4D8AF0"/>
<path d="M22.4331 23.34C22.3695 23.3012 22.3164 23.2483 22.2779 23.1852C22.2394 23.1222 22.2166 23.0508 22.2112 22.9765C22.2058 22.9022 22.2179 22.827 22.2466 22.7566C22.2753 22.6863 22.3199 22.6228 22.3769 22.5709L22.4055 22.6C22.3529 22.6478 22.3118 22.7064 22.2854 22.7713C22.259 22.8362 22.248 22.9056 22.2533 22.9742C22.2587 23.0427 22.2801 23.1084 22.3161 23.1663C22.352 23.2242 22.4015 23.2725 22.4606 23.3077L22.4331 23.34Z" fill="#4D8AF0"/>
<path d="M31.6392 18.3344C20.5794 26.261 13.4541 20.8464 13.4541 20.8464L31.6392 18.3344Z" fill="#FFB930"/>
<defs>
<linearGradient id="paint0_linear" x1="22.5457" y1="24.6364" x2="22.3645" y2="23.002" gradientUnits="userSpaceOnUse">
<stop stop-color="white"/>
<stop offset="1"/>
</linearGradient>
</defs>
</svg>
