<svg width="33" height="42" viewBox="0 0 33 42" fill="none" xmlns="http://www.w3.org/2000/svg">
<path d="M32.4363 9.27672C32.5097 8.69451 32.6129 8.1133 32.7251 7.53239C33.2168 5.02309 32.5212 2.59099 32.182 1.5857C32.0746 1.27515 31.9958 1.10003 31.9958 1.10003C30.1064 0.528115 22.5913 5.97117 19.8522 8.0252C18.9097 7.99364 17.8866 8.00032 16.768 8.03595C16.2801 8.0547 15.7924 8.05007 15.3049 8.02497C14.8679 8.01034 14.2465 7.98954 13.521 7.96525C11.0142 5.88176 3.25302 -0.391377 1.30405 0.0637259C1.30405 0.0637259 1.22228 0.233451 1.10961 0.536629C0.738243 1.51813 0.00076886 3.90227 0.448572 6.44303C0.550523 7.03111 0.643559 7.61889 0.70686 8.20567C0.841389 9.49352 1.36703 11.9755 3.33566 13.7048C3.7344 16.7584 5.2903 20.8067 6.49415 23.2734C6.58173 23.7345 6.71731 24.1868 6.89877 24.6229C6.37666 26.5231 5.77218 29.0052 5.93136 29.8525C5.93136 29.8525 3.29665 29.1357 3.00191 32.2509C3.00165 32.2801 3.00135 32.3152 3.00107 32.3474C2.04295 32.745 0.842163 33.69 2.16511 35.7981C2.32429 36.0576 2.56519 36.26 2.85007 36.3736C3.08721 36.4634 3.31911 36.4712 3.29818 36.143L4.93241 38.0248C4.93241 38.0248 7.92045 38.464 7.97097 36.7584L8.14615 36.7906C8.54701 36.8625 8.9658 36.9262 9.39653 36.9845L9.59878 37.6665C9.59878 37.6665 7.35446 37.5446 7.95511 38.9241C7.95511 38.9241 8.51554 39.4574 8.71042 39.2768C8.71042 39.2768 8.40535 40.1582 9.57678 40.1974C9.57678 40.1974 10.8287 40.8942 11.3234 40.443C11.818 39.9918 12.8409 39.3245 12.9386 39.0354C12.966 38.9574 12.984 38.2652 12.9982 37.3068L13.1915 37.3133C15.6974 37.4556 18.359 37.4658 20.7803 37.4182L20.9765 37.4248C20.9675 38.4623 20.9757 39.2285 21.0017 39.3112C21.0973 39.6067 22.1111 40.3335 22.5945 40.8262C23.078 41.3189 24.3414 40.6976 24.3414 40.6976C25.5069 40.7366 25.2233 39.8355 25.2233 39.8355C25.4179 40.0291 25.9872 39.5337 25.9872 39.5337C26.6115 38.1952 24.3634 38.1667 24.3634 38.1667L24.6386 37.2989L25.8793 37.2381L26.0757 37.2272C25.9406 39.079 29.0864 38.8276 29.0864 38.8276L30.7553 37.0564C30.7257 37.3829 30.9576 37.3906 31.1962 37.3167C31.4765 37.2175 31.7134 37.0292 31.87 36.781C33.9218 33.7363 30.1873 32.9506 30.1873 32.9506C30.0717 32.9169 29.9534 32.8943 29.834 32.8832C29.8344 32.8306 29.8349 32.7751 29.8502 32.723C29.902 32.3152 29.9136 31.9025 29.8847 31.4905C29.7499 30.9218 28.836 29.9937 27.6717 29.8232C26.9114 29.7042 26.9264 26.2668 27.0244 23.8876C27.114 23.4435 27.1577 22.9906 27.1551 22.5356C27.1764 21.8015 27.0825 21.0658 26.8767 20.3542C28.3848 17.9257 29.5967 15.3674 29.7371 14.6033C31.711 12.9914 32.2794 10.5548 32.4363 9.27672Z" fill="url(#paint0_linear)"/>
<path d="M29.3523 32.8672C29.2193 34.4823 28.8786 37.0697 28.8786 37.0697C28.8786 37.0697 27.5542 37.1832 25.5071 37.2959L24.1176 37.3663C23.0525 37.4155 21.8565 37.4573 20.5923 37.4851C18.2573 37.5326 15.6938 37.5257 13.2771 37.3864C12.0702 37.3196 10.8993 37.219 9.81506 37.0775C9.33084 37.0145 8.86158 36.9433 8.41616 36.864C5.64872 36.365 3.66941 35.5212 3.5118 34.1507C3.42979 33.5674 3.41395 32.9786 3.46461 32.3951C3.74995 29.3352 6.28663 30.0398 6.28663 30.0398C6.13047 29.1869 6.7688 26.5743 7.28485 24.6856C7.61045 23.495 7.89786 22.5925 7.89786 22.5925L25.7826 22.022L25.8421 22.024C25.9607 22.0278 26.078 22.0553 26.1866 22.1048C26.2953 22.1544 26.3931 22.2249 26.4742 22.3122C26.5552 22.3994 26.6178 22.5015 26.658 22.6122C26.6983 22.7229 26.7154 22.84 26.7083 22.9563C26.583 25.0598 26.3894 29.8797 27.2655 30.0172C28.3882 30.1922 29.2696 31.0958 29.4015 31.6527C29.4235 32.0591 29.407 32.4657 29.3523 32.8672Z" fill="#F44A87"/>
<path d="M14.3725 9.23057C14.3725 9.23057 7.56304 16.9804 4.33557 14.6623C4.25872 14.6071 4.18485 14.552 4.11398 14.4941C1.94581 12.7961 1.39475 10.1583 1.25468 8.82354C1.19436 8.23686 1.10413 7.66963 1.00502 7.09626C0.577647 4.60004 1.28498 2.26168 1.65024 1.29752C1.75982 1.00885 1.83569 0.833055 1.83569 0.833055C4.08576 0.294487 14.3725 9.23057 14.3725 9.23057Z" fill="#F44A87"/>
<path d="M10.7449 9.84572C10.7449 9.84572 8.60934 11.2359 5.59449 13.5379C5.12507 13.8976 4.62488 14.2172 4.09917 14.4935C1.931 12.7955 1.37996 10.1578 1.23989 8.82296C1.17957 8.23628 1.08932 7.66905 0.990219 7.09568C0.562847 4.59947 1.27018 2.2611 1.63544 1.29694C5.83105 1.72389 10.7449 9.84572 10.7449 9.84572Z" fill="#F44A87"/>
<path opacity="0.5" d="M10.7449 9.84572C10.7449 9.84572 8.60934 11.2359 5.59449 13.5379C5.12507 13.8976 4.62488 14.2172 4.09917 14.4935C1.931 12.7955 1.37996 10.1578 1.23989 8.82296C1.17957 8.23628 1.08932 7.66905 0.990219 7.09568C0.562847 4.59947 1.27018 2.2611 1.63544 1.29694C5.83105 1.72389 10.7449 9.84572 10.7449 9.84572Z" fill="white"/>
<path opacity="0.1" d="M8.44156 8.9823C8.44156 8.9823 7.30196 9.73052 5.69129 10.9541C5.44346 11.1452 5.17937 11.3153 4.90175 11.4626C3.74687 10.547 3.43485 9.14793 3.37559 8.4385C3.34558 8.12762 3.29769 7.82198 3.24387 7.51323C3.10027 6.46265 3.22292 5.40008 3.60087 4.42061C5.82049 4.64693 8.44156 8.9823 8.44156 8.9823Z" fill="black"/>
<path d="M18.7401 9.37685C18.7401 9.37685 25.4109 17.578 28.6768 15.4773C28.7516 15.4271 28.8294 15.3771 28.9012 15.324C31.0976 13.7721 31.6942 11.1728 31.8574 9.84816C31.9279 9.26586 32.0279 8.705 32.134 8.1385C32.6075 5.67244 31.9382 3.28799 31.5899 2.29994C31.4855 2.00411 31.4097 1.82323 31.4097 1.82323C29.1763 1.13456 18.7401 9.37685 18.7401 9.37685Z" fill="#F44A87"/>
<path d="M22.3521 10.2342C22.3521 10.2342 24.4652 11.7666 27.4383 14.2691C27.8965 14.6591 28.3858 15.0119 28.9013 15.3237C31.0977 13.7719 31.6943 11.1726 31.8575 9.8479C31.928 9.2656 32.028 8.70474 32.134 8.13824C32.6075 5.67218 31.9383 3.28773 31.59 2.29968C27.4102 2.44623 22.3521 10.2342 22.3521 10.2342Z" fill="#F44A87"/>
<path opacity="0.5" d="M22.3521 10.2342C22.3521 10.2342 24.4652 11.7666 27.4383 14.2691C27.8965 14.6591 28.3858 15.0119 28.9013 15.3237C31.0977 13.7719 31.6943 11.1726 31.8575 9.8479C31.928 9.2656 32.028 8.70474 32.134 8.13824C32.6075 5.67218 31.9383 3.28773 31.59 2.29968C27.4102 2.44623 22.3521 10.2342 22.3521 10.2342Z" fill="white"/>
<path opacity="0.1" d="M24.6869 9.52033C24.6869 9.52033 25.8069 10.3413 27.3836 11.6569C27.6262 11.8645 27.8863 12.0512 28.1609 12.215C29.325 11.3916 29.6433 10.0137 29.7297 9.31206C29.7649 9.0209 29.8182 8.70404 29.8774 8.402C30.0413 7.36887 29.9433 6.30545 29.592 5.3054C27.3667 5.38876 24.6869 9.52033 24.6869 9.52033Z" fill="black"/>
<path opacity="0.1" d="M25.7707 22.0275C24.9089 23.32 23.9947 24.4821 23.1619 25.1734C20.4658 27.4218 8.92016 26.1056 8.17197 25.9607C8.01462 25.9292 7.69157 25.4594 7.29072 24.7005C7.61632 23.5099 7.90373 22.6075 7.90373 22.6075L25.7707 22.0275Z" fill="black"/>
<path d="M16.739 8.64007C16.2689 8.65649 15.7991 8.65247 15.3264 8.62788C12.9155 8.50623 4.79199 8.3395 3.86309 11.5328C2.76864 15.2965 7.42533 25.6286 8.17053 25.7763C8.91572 25.924 20.4584 27.2313 23.1635 24.989C25.8685 22.7468 29.4255 15.5517 29.244 14.882C29.244 14.882 32.6339 8.09059 16.739 8.64007Z" fill="#F44A87"/>
<path opacity="0.1" d="M16.4298 14.7923C16.4298 14.7923 10.4913 13.6931 7.65246 19.3512C7.08384 20.4506 6.82718 21.6866 6.90886 22.9322C6.99055 24.1778 7.40764 25.388 8.11725 26.4383C9.03372 27.7523 10.3871 28.7535 12.2878 28.0396C16.5126 26.4767 16.4298 14.7923 16.4298 14.7923Z" fill="black"/>
<path opacity="0.1" d="M16.2456 14.4178C16.2456 14.4178 10.3071 13.3186 7.46832 18.9767C6.89969 20.0761 6.64303 21.3121 6.72472 22.5577C6.80641 23.8033 7.2235 25.0134 7.93311 26.0638C8.84958 27.3778 10.203 28.379 12.1036 27.6651C16.3284 26.1022 16.2456 14.4178 16.2456 14.4178Z" fill="black"/>
<path d="M16.2441 14.6021C16.2441 14.6021 10.3056 13.5029 7.4668 19.161C6.89817 20.2604 6.64151 21.4964 6.72319 22.742C6.80488 23.9876 7.22197 25.1978 7.93158 26.2481C8.84805 27.5621 10.2014 28.5634 12.1021 27.8494C16.3269 26.2865 16.2441 14.6021 16.2441 14.6021Z" fill="#F44A87"/>
<path opacity="0.5" d="M16.2441 14.6021C16.2441 14.6021 10.3056 13.5029 7.4668 19.161C6.89817 20.2604 6.64151 21.4964 6.72319 22.742C6.80488 23.9876 7.22197 25.1978 7.93158 26.2481C8.84805 27.5621 10.2014 28.5634 12.1021 27.8494C16.3269 26.2865 16.2441 14.6021 16.2441 14.6021Z" fill="white"/>
<path d="M9.78726 19.4167C9.78726 19.4167 8.96919 20.126 9.27977 20.3206C9.59035 20.5151 9.78726 19.4167 9.78726 19.4167Z" fill="#3F2B3B"/>
<path d="M10.6532 20.3869C10.6532 20.3869 10.2018 21.3335 10.5161 21.4493C10.8303 21.565 11.0245 20.7764 11.0245 20.7764L10.6532 20.3869Z" fill="#3F2B3B"/>
<path d="M8.68121 21.7739C8.68121 21.7739 8.23727 22.8933 8.67135 22.9078C9.10543 22.9224 8.68121 21.7739 8.68121 21.7739Z" fill="#3F2B3B"/>
<path d="M8.11676 24.7924C8.11676 24.7924 8.96595 27.0016 11.2269 26.9224" stroke="#3F2B3B" stroke-miterlimit="10"/>
<path d="M10.1418 25.5033C10.1418 25.5033 11.0263 26.3924 12.0098 25.8114" stroke="#3F2B3B" stroke-miterlimit="10"/>
<path opacity="0.1" d="M17.191 14.8179C17.191 14.8179 23.1451 14.1169 25.8839 19.9617C26.4331 21.0985 26.6681 22.351 26.5648 23.5904C26.4615 24.8298 26.0237 26.0114 25.2962 27.0136C24.3604 28.2656 22.9874 29.1755 21.1003 28.3348C16.8932 26.4896 17.191 14.8179 17.191 14.8179Z" fill="black"/>
<path opacity="0.1" d="M17.3696 14.4556C17.3696 14.4556 23.3237 13.7546 26.0625 19.5994C26.6117 20.7362 26.8467 21.9887 26.7434 23.2281C26.6401 24.4675 26.2022 25.6491 25.4748 26.6513C24.539 27.9033 23.166 28.8132 21.2788 27.9724C17.0926 26.128 17.3696 14.4556 17.3696 14.4556Z" fill="black"/>
<path d="M17.3679 14.6397C17.3679 14.6397 23.322 13.9387 26.0608 19.7835C26.61 20.9203 26.8451 22.1728 26.7418 23.4122C26.6385 24.6516 26.2006 25.8331 25.4731 26.8353C24.5373 28.0874 23.1643 28.9973 21.2772 28.1565C17.0909 26.3121 17.3679 14.6397 17.3679 14.6397Z" fill="#F44A87"/>
<path opacity="0.5" d="M17.3679 14.6397C17.3679 14.6397 23.322 13.9387 26.0608 19.7835C26.61 20.9203 26.8451 22.1728 26.7418 23.4122C26.6385 24.6516 26.2006 25.8331 25.4731 26.8353C24.5373 28.0874 23.1643 28.9973 21.2772 28.1565C17.0909 26.3121 17.3679 14.6397 17.3679 14.6397Z" fill="white"/>
<path d="M23.7374 19.8837C23.7374 19.8837 24.5426 20.6473 24.2289 20.821C23.9151 20.9946 23.7374 19.8837 23.7374 19.8837Z" fill="#3F2B3B"/>
<path d="M22.855 20.7955C22.855 20.7955 23.2897 21.7718 22.9736 21.8665C22.6575 21.9612 22.4771 21.16 22.4771 21.16L22.855 20.7955Z" fill="#3F2B3B"/>
<path d="M24.8048 22.3139C24.8048 22.3139 25.226 23.4623 24.7949 23.4478C24.3638 23.4334 24.8048 22.3139 24.8048 22.3139Z" fill="#3F2B3B"/>
<path d="M25.3134 25.3683C25.3134 25.3683 24.4262 27.5194 22.168 27.2888" stroke="#3F2B3B" stroke-miterlimit="10"/>
<path d="M23.2802 25.9432C23.2802 25.9432 22.3808 26.7726 21.405 26.126" stroke="#3F2B3B" stroke-miterlimit="10"/>
<path d="M13.8367 31.1815C13.9945 31.1576 16.9697 29.9972 20.0149 31.3884L13.8367 31.1815Z" fill="#3F2B3B"/>
<path opacity="0.1" d="M8.41604 36.8729C5.6486 36.374 3.66929 35.5301 3.51168 34.1596C3.42967 33.5763 3.41383 32.9875 3.46449 32.404C3.79883 32.2401 4.15629 32.1241 4.52623 32.0595C5.02989 31.939 5.65047 32.0533 6.95843 32.4655C8.26639 32.8776 8.15806 34.3912 8.41141 36.3787C8.43842 36.5429 8.43998 36.7096 8.41604 36.8729Z" fill="black"/>
<path d="M4.33734 32.2431C4.33734 32.2431 0.728233 32.7712 2.65204 35.8935C2.80445 36.1467 3.03717 36.3448 3.31333 36.4564C3.54157 36.543 3.7616 36.5504 3.74061 36.2281L5.31862 38.0758C5.31862 38.0758 8.49669 38.5506 8.23442 36.5627C7.97214 34.5748 8.0776 33.0494 6.78143 32.6494C5.48527 32.2494 4.84694 32.1228 4.33734 32.2431Z" fill="#F44A87"/>
<path d="M5.17865 34.3295C5.17865 34.3295 5.92784 36.0705 7.00178 34.6653" stroke="#3F2B3B" stroke-miterlimit="10"/>
<path d="M3.41858 34.9517C3.41858 34.9517 3.79988 36.5898 5.30887 35.4301" stroke="#3F2B3B" stroke-miterlimit="10"/>
<path opacity="0.1" d="M29.3524 32.8673C29.2194 34.4824 28.8787 37.0699 28.8787 37.0699C28.8787 37.0699 27.5543 37.1834 25.5071 37.2961C25.4966 37.183 25.4976 37.0694 25.5101 36.9571C25.8068 34.9879 25.7279 33.4564 27.0303 33.1433C28.2521 32.8597 28.8745 32.7607 29.3524 32.8673Z" fill="black"/>
<path d="M29.6774 33.0916C29.6774 33.0916 33.2782 33.8611 31.3013 36.8527C31.1439 37.095 30.908 37.2773 30.6306 37.3711C30.4009 37.4423 30.1779 37.4349 30.2045 37.1142L28.5983 38.8553C28.5983 38.8553 25.4108 39.117 25.7105 37.1479C26.0101 35.1788 25.9283 33.6472 27.2307 33.3341C28.533 33.0211 29.1791 32.9375 29.6774 33.0916Z" fill="#F44A87"/>
<path d="M28.8033 35.1203C28.8033 35.1203 28.0213 36.8101 26.9754 35.3339" stroke="#3F2B3B" stroke-miterlimit="10"/>
<path d="M30.5515 35.8603C30.5515 35.8603 30.1389 37.4718 28.651 36.2117" stroke="#3F2B3B" stroke-miterlimit="10"/>
<path opacity="0.1" d="M13.2771 37.3864C12.0702 37.3197 10.8993 37.2191 9.81505 37.0776L8.76685 33.4702C8.70458 33.2565 8.67346 33.0359 8.67441 32.8152C8.699 32.2272 8.95494 31.6773 9.38834 31.2814C9.82175 30.8855 10.3988 30.6744 10.998 30.6925C11.5972 30.7107 12.1718 30.9567 12.6007 31.3788C13.0297 31.8009 13.2796 32.366 13.2978 32.9553C13.2976 34.3468 13.2942 36.1095 13.2771 37.3864Z" fill="black"/>
<path d="M8.57954 33.4639L9.81539 37.7207C9.81539 37.7207 7.65135 37.6015 8.2314 38.9569C8.2314 38.9569 8.77108 39.4807 8.95998 39.3029C8.95998 39.3029 8.66992 40.1701 9.79377 40.2078C9.79377 40.2078 11.0012 40.8943 11.475 40.4482C11.9488 40.0022 12.9389 39.3454 13.0364 39.0739C13.0974 38.8947 13.1102 35.3696 13.1106 32.9374C13.1111 32.3383 12.8705 31.7573 12.4413 31.3212C12.0122 30.8851 11.4293 30.6293 10.82 30.6097C10.4591 30.5971 10.1023 30.6677 9.77834 30.8159C9.45435 30.9642 9.17214 31.1859 8.95432 31.4634C8.73651 31.7409 8.58915 32.0664 8.52406 32.4138C8.45898 32.7612 8.47798 33.1209 8.57954 33.4639Z" fill="#F44A87"/>
<path d="M10.252 38.8257C10.252 38.8257 9.29888 39.6708 9.79387 40.2048" stroke="#3F2B3B" stroke-miterlimit="10"/>
<path d="M9.84945 38.2538C9.84945 38.2538 8.9728 38.5167 8.96597 39.3029" stroke="#3F2B3B" stroke-miterlimit="10"/>
<path opacity="0.1" d="M25.2706 33.3709C25.2688 33.5914 25.2348 33.8098 25.1698 34.0194L24.1325 37.3669C23.0674 37.4161 21.8715 37.4579 20.6073 37.4857C20.6182 36.2232 20.6328 34.5428 20.6653 33.202C20.6725 32.5999 20.9228 32.0313 21.3611 31.6213C21.7994 31.2114 22.3899 30.9937 23.0026 31.0162C23.6152 31.0386 24.1999 31.2994 24.6281 31.741C25.0562 32.1827 25.2927 32.7692 25.2855 33.3713L25.2706 33.3709Z" fill="black"/>
<path d="M25.3512 34.0256L24.042 38.1972C24.042 38.1972 26.2099 38.223 25.6066 39.5388C25.6066 39.5388 25.0581 40.0261 24.8724 39.8358C24.8724 39.8358 25.1443 40.7219 24.0204 40.6842C24.0204 40.6842 22.8018 41.2895 22.336 40.812C21.8703 40.3345 20.8951 39.612 20.8024 39.3341C20.7445 39.1509 20.793 35.627 20.8349 33.1962C20.8448 32.5974 21.0954 32.0328 21.5319 31.6257C21.9683 31.2186 22.5553 31.002 23.1646 31.0232C23.5253 31.0351 23.8803 31.1299 24.2011 31.2999C24.5219 31.47 24.7998 31.7105 25.0123 32.0024C25.2248 32.2942 25.3662 32.6292 25.425 32.9805C25.4839 33.3318 25.4586 33.6898 25.3512 34.0256Z" fill="#F44A87"/>
<path d="M23.5896 39.2721C23.5896 39.2721 24.5274 40.1805 24.0235 40.6811" stroke="#3F2B3B" stroke-miterlimit="10"/>
<path d="M24.0106 38.7279C24.0106 38.7279 24.8822 39.0494 24.8754 39.8356" stroke="#3F2B3B" stroke-miterlimit="10"/>
<path opacity="0.1" d="M16.255 13.6814C16.255 13.6814 11.8529 13.3966 11.6841 16.744C11.5152 20.0914 18.5471 18.9061 18.5471 18.9061C18.5471 18.9061 21.4999 18.6162 21.0033 16.562C20.5066 14.5078 19.4376 13.9721 16.255 13.6814Z" fill="black"/>
<path opacity="0.1" d="M16.2582 13.3132C16.2582 13.3132 11.8562 13.0285 11.6873 16.3759C11.5184 19.7233 18.5504 18.538 18.5504 18.538C18.5504 18.538 21.5031 18.248 21.0065 16.1938C20.5098 14.1396 19.4409 13.604 16.2582 13.3132Z" fill="black"/>
<path d="M16.2567 13.4973C16.2567 13.4973 11.8547 13.2125 11.6858 16.5599C11.5169 19.9074 18.5489 18.722 18.5489 18.722C18.5489 18.722 21.5016 18.4321 21.005 16.3779C20.5083 14.3237 19.4394 13.788 16.2567 13.4973Z" fill="#3F2B3B"/>
<path opacity="0.1" d="M6.28656 30.0547C6.28656 30.0547 7.76861 30.6247 8.05726 31.6312L6.28656 30.0547Z" fill="black"/>
<path opacity="0.1" d="M27.2536 30.0199C27.2536 30.0199 26.1944 30.42 26.2529 32.2403L27.2536 30.0199Z" fill="black"/>
<path d="M7.40682 38.6656C7.73844 38.4902 7.75615 37.9036 7.44638 37.3552C7.13661 36.8069 6.61665 36.5045 6.28504 36.6799C5.95342 36.8553 5.93569 37.442 6.24546 37.9903C6.55524 38.5386 7.0752 38.841 7.40682 38.6656Z" fill="#F44A87"/>
<path d="M28.3684 37.7274C28.6875 37.2026 28.6812 36.6171 28.3544 36.4196C28.0275 36.2222 27.5038 36.4876 27.1847 37.0125C26.8656 37.5373 26.8719 38.1228 27.1988 38.3202C27.5257 38.5176 28.0493 38.2522 28.3684 37.7274Z" fill="#F44A87"/>
<path opacity="0.5" d="M7.40682 38.6656C7.73844 38.4902 7.75615 37.9036 7.44638 37.3552C7.13661 36.8069 6.61665 36.5045 6.28504 36.6799C5.95342 36.8553 5.93569 37.442 6.24546 37.9903C6.55524 38.5386 7.0752 38.841 7.40682 38.6656Z" fill="white"/>
<path opacity="0.5" d="M28.3684 37.7274C28.6875 37.2026 28.6812 36.6171 28.3544 36.4196C28.0275 36.2222 27.5038 36.4876 27.1847 37.0125C26.8656 37.5373 26.8719 38.1228 27.1988 38.3202C27.5257 38.5176 28.0493 38.2522 28.3684 37.7274Z" fill="white"/>
<path d="M22.9401 14.1254C23.4573 13.8665 23.6525 13.2389 23.376 12.7234C23.0996 12.2079 22.4562 11.9999 21.939 12.2588C21.4217 12.5176 21.2266 13.1453 21.503 13.6607C21.7795 14.1762 22.4229 14.3842 22.9401 14.1254Z" fill="#3F2B3B"/>
<path d="M10.7332 14.1644C11.2504 13.9056 11.4456 13.2779 11.1691 12.7625C10.8927 12.247 10.2493 12.039 9.73205 12.2978C9.21482 12.5567 9.01965 13.1843 9.2961 13.6998C9.57256 14.2152 10.216 14.4233 10.7332 14.1644Z" fill="#3F2B3B"/>
<defs>
<linearGradient id="paint0_linear" x1="17997.6" y1="35842.2" x2="18182.9" y2="30308.7" gradientUnits="userSpaceOnUse">
<stop stop-color="#808080" stop-opacity="0.25"/>
<stop offset="0.54" stop-color="#808080" stop-opacity="0.12"/>
<stop offset="1" stop-color="#808080" stop-opacity="0.1"/>
</linearGradient>
</defs>
</svg>
