<svg width="90" height="82" viewBox="0 0 90 82" fill="none" xmlns="http://www.w3.org/2000/svg">
<path d="M75.2856 44.417C76.8307 44.5655 78.3806 44.228 79.8715 43.8125C82.8277 42.9886 85.8951 41.6799 87.4275 39.1245C87.9872 38.1913 88.3049 37.1464 88.6177 36.1128C89.249 34.0264 89.8847 31.916 89.9863 29.746C90.0953 27.3587 89.5545 24.9852 88.4169 22.8579C88.2499 22.5366 87.9669 22.284 87.6202 22.147C87.0167 21.9199 86.6849 22.2301 86.4214 22.5533C84.823 24.5136 84.9885 27.2426 84.855 29.7257C84.7205 32.2147 84.2109 34.6721 83.342 37.0217C82.973 38.0185 82.4867 39.056 81.5498 39.617C80.9759 39.9606 80.293 40.0866 79.6277 40.2061C78.6327 40.3849 77.5466 40.5516 76.6546 40.0936C75.7411 39.6246 75.137 38.4092 74.083 38.2072C73.0401 38.0073 71.6169 39.0527 71.1514 39.9334C69.8905 42.3189 73.2171 44.2183 75.2856 44.417Z" fill="#FFB930"/>
<g opacity="0.1">
<path opacity="0.1" d="M81.5498 39.617C80.9759 39.9606 80.293 40.0865 79.6277 40.2061C78.9443 40.3289 78.219 40.4409 77.542 40.3538C78.3922 40.6929 79.3877 40.5445 80.3073 40.3792C80.9726 40.2597 81.6555 40.1337 82.2294 39.7901C83.1663 39.2291 83.6526 38.1916 84.0215 37.1948C84.8905 34.8452 85.4001 32.3879 85.5346 29.8988C85.6681 27.4157 85.5026 24.6867 87.1011 22.7264C87.2862 22.4993 87.5073 22.2828 87.8305 22.2504C87.7636 22.2103 87.6933 22.1756 87.6203 22.1469C87.0167 21.9199 86.6849 22.23 86.4214 22.5532C84.823 24.5136 84.9884 27.2425 84.8549 29.7257C84.7205 32.2147 84.2109 34.6721 83.3419 37.0217C82.973 38.0185 82.4866 39.056 81.5498 39.617Z" fill="black"/>
<path opacity="0.1" d="M71.8311 40.1065C72.2613 39.2924 73.5092 38.3399 74.5193 38.3578C74.3819 38.2884 74.235 38.2377 74.083 38.2071C73.0402 38.0072 71.6169 39.0526 71.1514 39.9334C69.9753 42.1584 72.7901 43.9599 74.8527 44.3535C72.9149 43.7435 70.7804 42.0943 71.8311 40.1065Z" fill="black"/>
</g>
<path opacity="0.1" d="M80.2094 31.1694L62.2678 22.6184L59.6808 27.5878L77.6224 36.1389L80.2094 31.1694Z" fill="black"/>
<path d="M80.2094 31.1694L62.2678 22.6184L59.916 27.1361L77.8576 35.6871L80.2094 31.1694Z" fill="#6C63FF"/>
<path d="M73.7525 28.489C75.5004 28.489 76.9174 27.1332 76.9174 25.4608C76.9174 23.7883 75.5004 22.4325 73.7525 22.4325C72.0046 22.4325 70.5876 23.7883 70.5876 25.4608C70.5876 27.1332 72.0046 28.489 73.7525 28.489Z" fill="#6C63FF"/>
<path d="M71.3483 9.67001C71.3483 9.67001 76.8279 11.0914 78.8231 13.2325C78.8231 13.2325 82.0556 10.6074 83.5505 11.3199C85.0455 12.0324 82.8134 17.5148 82.8134 17.5148L80.8353 26.0938C80.8353 26.0938 81.8641 46.818 67.9281 50.8881C53.9922 54.9582 44.0069 38.2968 47.2337 32.0983C50.4605 25.8997 60.1522 14.4508 60.1522 14.4508C60.1522 14.4508 68.6028 5.38593 70.0959 4.90731C71.589 4.42869 71.3483 9.67001 71.3483 9.67001Z" fill="#FFB930"/>
<g opacity="0.1">
<path opacity="0.1" d="M79.6829 36.6667C80.532 33.2031 80.9192 29.6506 80.8353 26.094L80.5229 27.4487C80.5976 30.5416 80.3159 33.6329 79.6829 36.6667Z" fill="white"/>
<path opacity="0.1" d="M48.7952 31.2395C52.0219 25.0409 59.8399 15.8056 59.8399 15.8056C59.8399 15.8056 68.2905 6.74068 69.7835 6.26207C71.2766 5.78343 71.0359 11.0248 71.0359 11.0248C71.0359 11.0248 76.5156 12.4462 78.5107 14.5873C78.5107 14.5873 81.7432 11.9621 83.2381 12.6746C83.8184 12.9512 83.8362 13.9469 83.6419 15.0611C84.0744 13.5021 84.3629 11.707 83.5505 11.3199C82.0556 10.6074 78.8231 13.2326 78.8231 13.2326C76.8279 11.0914 71.3483 9.67002 71.3483 9.67002C71.3483 9.67002 71.589 4.42869 70.0959 4.90733C68.6029 5.38594 60.1522 14.4508 60.1522 14.4508C60.1522 14.4508 52.3343 23.6862 49.1075 29.8847C48.816 30.4447 48.7026 31.4172 48.7952 31.2395Z" fill="white"/>
</g>
<path d="M76.7218 23.711C77.3367 23.711 77.8352 23.234 77.8352 22.6456C77.8352 22.0572 77.3367 21.5802 76.7218 21.5802C76.1069 21.5802 75.6084 22.0572 75.6084 22.6456C75.6084 23.234 76.1069 23.711 76.7218 23.711Z" fill="#58555D"/>
<path d="M65.2604 18.2485C65.8754 18.2485 66.3739 17.7715 66.3739 17.1831C66.3739 16.5947 65.8754 16.1177 65.2604 16.1177C64.6455 16.1177 64.147 16.5947 64.147 17.1831C64.147 17.7715 64.6455 18.2485 65.2604 18.2485Z" fill="#58555D"/>
<path d="M72.2388 21.6991C72.513 21.1725 72.0659 20.4265 71.2403 20.033C70.4146 19.6395 69.5231 19.7474 69.2489 20.2741C68.9747 20.8008 69.4218 21.5467 70.2474 21.9403C71.0731 22.3338 71.9646 22.2258 72.2388 21.6991Z" fill="#58555D"/>
<path d="M79.779 23.8115L79.6447 24.3286L84.6257 25.5135L84.7601 24.9964L79.779 23.8115Z" fill="#FFB930"/>
<path d="M78.7924 25.7189L78.6464 26.2328L84.1249 27.6582L84.2709 27.1443L78.7924 25.7189Z" fill="#FFB930"/>
<path d="M58.2377 10.5843L57.8225 10.9385L61.8128 15.2208L62.228 14.8666L58.2377 10.5843Z" fill="#FFB930"/>
<path d="M55.4546 12.2154L55.1335 12.6505L61.1152 16.6917L61.4363 16.2566L55.4546 12.2154Z" fill="#FFB930"/>
<path opacity="0.1" d="M61.242 34.2134C61.242 34.2134 60.9537 43.0748 56.0848 41.5208C51.2158 39.9669 56.7546 34.3039 56.7546 34.3039C56.7546 34.3039 57.3279 32.1115 56.2778 31.4718" fill="black"/>
<path opacity="0.1" d="M65.52 36.0341C65.52 36.0341 57.8148 40.958 61.7697 44.0884C65.7246 47.2188 67.8147 39.725 67.8147 39.725C67.8147 39.725 69.4554 38.0993 70.5784 38.6132" fill="black"/>
<path d="M60.939 33.8178C60.939 33.8178 60.6507 42.6792 55.7817 41.1253C50.9128 39.5713 56.4516 33.9083 56.4516 33.9083C56.4516 33.9083 57.0249 31.7159 55.9748 31.0762" fill="#FFB930"/>
<path d="M65.9926 35.8817C65.9926 35.8817 58.2874 40.8056 62.2423 43.936C66.1972 47.0664 68.2873 39.5727 68.2873 39.5727C68.2873 39.5727 69.928 37.9469 71.051 38.4608" fill="#FFB930"/>
<path opacity="0.5" d="M55.0988 38.9367L54.3665 40.3435L54.4452 40.381L55.1775 38.9742L55.0988 38.9367Z" fill="#58555D"/>
<path opacity="0.5" d="M56.358 39.5368L55.6256 40.9436L55.7043 40.9811L56.4366 39.5743L56.358 39.5368Z" fill="#58555D"/>
<path opacity="0.5" d="M55.9082 38.7623L54.8832 40.7315L54.9619 40.769L55.9869 38.7998L55.9082 38.7623Z" fill="#58555D"/>
<path opacity="0.5" d="M63.4395 42.5361L62.7072 43.9428L62.7859 43.9803L63.5182 42.5736L63.4395 42.5361Z" fill="#58555D"/>
<path opacity="0.5" d="M64.6986 43.1361L63.9662 44.5429L64.0449 44.5804L64.7773 43.1736L64.6986 43.1361Z" fill="#58555D"/>
<path opacity="0.5" d="M64.2489 42.3616L63.2238 44.3307L63.3025 44.3683L64.3276 42.3991L64.2489 42.3616Z" fill="#58555D"/>
<path opacity="0.1" d="M66.3268 26.4951C65.0216 25.874 63.7746 25.1468 62.5994 24.3216C58.8963 21.7167 56.9028 18.6674 56.8315 18.5556L57.4057 17.868C57.4224 17.8941 59.6456 21.1027 63.209 23.5999C66.4891 25.8983 72.7517 28.6623 80.7475 28.3413L80.7881 29.2674C74.9848 29.5004 69.7253 28.1149 66.3268 26.4951Z" fill="black"/>
<path d="M66.2402 27.0873L66.2231 27.0385C66.3115 27.0226 66.3949 26.9875 66.4667 26.9357C66.5385 26.8839 66.5968 26.8169 66.6371 26.74C66.6774 26.6631 66.6986 26.5783 66.6989 26.4922C66.6993 26.4062 66.6788 26.3212 66.6392 26.244L66.688 26.2224C66.7309 26.3062 66.753 26.3982 66.7528 26.4915C66.7526 26.5848 66.7299 26.6767 66.6867 26.7603C66.6434 26.8439 66.5806 26.9169 66.5032 26.9736C66.4258 27.0302 66.3358 27.0692 66.2402 27.0873Z" fill="#4D8AF0"/>
<path opacity="0.1" d="M66.2402 27.0873L66.2231 27.0385C66.3115 27.0226 66.3949 26.9875 66.4667 26.9357C66.5385 26.8839 66.5968 26.8169 66.6371 26.74C66.6774 26.6631 66.6986 26.5783 66.6989 26.4922C66.6993 26.4062 66.6788 26.3212 66.6392 26.244L66.688 26.2224C66.7309 26.3062 66.753 26.3982 66.7528 26.4915C66.7526 26.5848 66.7299 26.6767 66.6867 26.7603C66.6434 26.8439 66.5806 26.9169 66.5032 26.9736C66.4258 27.0302 66.3358 27.0692 66.2402 27.0873Z" fill="black"/>
<path d="M80.8434 28.1569C72.8476 28.4779 66.585 25.7139 63.305 23.4155C59.7415 20.9183 57.5183 17.7096 57.5016 17.6835L56.6747 18.1664C56.7459 18.2782 58.9922 21.5323 62.6953 24.1371C63.8705 24.9624 65.1176 25.6896 66.4228 26.3107C69.8212 27.9304 75.0808 29.316 80.884 29.083L80.8434 28.1569ZM66.6156 26.3254C66.5965 26.3163 66.5807 26.302 66.5701 26.2844C66.5596 26.2667 66.5547 26.2464 66.5562 26.2261C66.5577 26.2058 66.5654 26.1863 66.5784 26.1702C66.5914 26.1541 66.6092 26.142 66.6294 26.1356C66.6495 26.1291 66.6713 26.1285 66.6918 26.1338C66.7124 26.1392 66.7308 26.1503 66.7448 26.1656C66.7587 26.181 66.7676 26.2 66.7703 26.2202C66.773 26.2404 66.7694 26.2609 66.7599 26.2791C66.7536 26.2912 66.7449 26.3021 66.7342 26.3109C66.7235 26.3198 66.7111 26.3266 66.6977 26.3309C66.6843 26.3352 66.6702 26.3369 66.6561 26.336C66.642 26.335 66.6282 26.3314 66.6156 26.3254Z" fill="#F55F44"/>
<path opacity="0.1" d="M64.9802 27.1568C64.853 27.4013 64.8324 27.6842 64.9231 27.9432C65.0138 28.2022 65.2083 28.4161 65.4638 28.5379C65.7193 28.6597 66.015 28.6793 66.2856 28.5926C66.5563 28.5058 66.7799 28.3197 66.9072 28.0752C67.0345 27.8307 67.055 27.5478 66.9643 27.2888C66.8736 27.0298 66.6791 26.8159 66.4236 26.6941C66.1681 26.5723 65.8725 26.5527 65.6018 26.6394C65.3311 26.7262 65.1075 26.9123 64.9802 27.1568ZM66.1837 27.1551C66.1519 27.1399 66.1256 27.1161 66.1079 27.0866C66.0903 27.0572 66.0822 27.0234 66.0847 26.9895C66.0871 26.9556 66.1001 26.9232 66.1218 26.8964C66.1435 26.8695 66.173 26.8494 66.2067 26.8387C66.2403 26.8279 66.2765 26.8269 66.3108 26.8358C66.345 26.8447 66.3757 26.8631 66.399 26.8887C66.4223 26.9144 66.4371 26.946 66.4416 26.9797C66.4461 27.0134 66.4401 27.0476 66.4242 27.0779C66.403 27.1187 66.3658 27.1497 66.3206 27.1642C66.2755 27.1786 66.2263 27.1754 66.1837 27.1551L66.1837 27.1551Z" fill="url(#paint0_linear)"/>
<path d="M65.0766 27.2028C64.962 27.4228 64.9435 27.6774 65.0252 27.9105C65.1068 28.1436 65.2818 28.3361 65.5118 28.4457C65.7418 28.5553 66.0078 28.5731 66.2514 28.495C66.4951 28.4169 66.6963 28.2494 66.8108 28.0293C66.9254 27.8093 66.9439 27.5547 66.8623 27.3216C66.7807 27.0885 66.6056 26.896 66.3756 26.7863C66.1457 26.6767 65.8796 26.659 65.636 26.7371C65.3924 26.8152 65.1911 26.9827 65.0766 27.2028ZM66.1597 27.2012C66.1311 27.1876 66.1074 27.1661 66.0915 27.1396C66.0757 27.1131 66.0684 27.0827 66.0706 27.0522C66.0728 27.0217 66.0844 26.9925 66.104 26.9684C66.1235 26.9442 66.1501 26.9261 66.1804 26.9164C66.2106 26.9067 66.2433 26.9058 66.2741 26.9139C66.3049 26.9219 66.3325 26.9385 66.3535 26.9615C66.3744 26.9846 66.3878 27.013 66.3918 27.0434C66.3959 27.0737 66.3904 27.1044 66.3762 27.1318C66.3667 27.15 66.3536 27.1662 66.3376 27.1795C66.3216 27.1928 66.3031 27.203 66.2829 27.2094C66.2628 27.2158 66.2416 27.2184 66.2205 27.217C66.1993 27.2156 66.1786 27.2102 66.1597 27.2012Z" fill="#4D8AF0"/>
<path d="M66.2062 27.071C66.1637 26.9871 66.142 26.8949 66.1426 26.8016C66.1433 26.7084 66.1663 26.6165 66.21 26.5331C66.2536 26.4497 66.3167 26.377 66.3944 26.3206C66.4721 26.2643 66.5622 26.2257 66.6579 26.208L66.6693 26.2583C66.581 26.2745 66.4978 26.3101 66.4262 26.3622C66.3547 26.4143 66.2967 26.4816 66.2568 26.5587C66.2169 26.6358 66.1962 26.7207 66.1962 26.8067C66.1963 26.8928 66.2172 26.9776 66.2572 27.0547L66.2062 27.071Z" fill="#4D8AF0"/>
<path d="M79.4224 27.8267C62.2714 28.9724 58.2272 18.4153 58.2272 18.4153L79.4224 27.8267Z" fill="#FFB930"/>
<path d="M31.2573 7.02622C31.0537 6.50943 30.8756 5.98007 30.7052 5.44697C29.9751 3.14082 28.2801 1.43289 27.536 0.750193C27.3039 0.540447 27.1577 0.430379 27.1577 0.430379C25.3054 0.8051 21.4573 8.70814 20.0868 11.6469C19.2785 12.0446 18.4197 12.5104 17.4938 13.0432C17.0914 13.2782 16.6785 13.4937 16.2564 13.6922C15.8816 13.8766 15.3487 14.1388 14.7266 14.445C11.6649 13.8415 2.26688 12.1203 0.832751 13.3751C0.832751 13.3751 0.841271 13.5529 0.884614 13.8555C1.01938 14.8381 1.48537 17.1508 3.02117 19.0604C3.37522 19.5032 3.72162 19.9497 4.04252 20.4088C4.7431 21.4184 6.31766 23.2442 8.76445 23.7955C10.4928 26.1534 13.6494 28.8172 15.7883 30.3252C16.0723 30.669 16.3928 30.9838 16.7445 31.2645C17.1712 33.0783 17.7939 35.4126 18.3143 36.0449C18.3143 36.0449 15.7682 36.6346 16.9405 39.3555C16.9536 39.3799 16.9694 39.4092 16.9838 39.436C16.3581 40.1974 15.7775 41.5227 17.8532 42.6793C18.1056 42.8233 18.4008 42.8831 18.6926 42.8493C18.9333 42.8172 19.1322 42.7194 18.9649 42.4562L21.1996 43.2846C21.1996 43.2846 23.9167 42.3054 23.1815 40.8656L23.3438 40.8135C23.7142 40.6929 24.096 40.5575 24.4854 40.4122L24.9668 40.8879C24.9668 40.8879 23.0207 41.7962 24.1557 42.6722C24.1557 42.6722 24.871 42.8632 24.9528 42.6255C24.9528 42.6255 25.0977 43.495 26.1023 43.0007C26.1023 43.0007 27.4746 43.0165 27.6855 42.4191C27.8964 41.8217 28.4537 40.8071 28.4042 40.523C28.3917 40.4458 28.0912 39.8626 27.6662 39.0598L27.8319 38.9783C30.0076 37.9694 32.2542 36.7806 34.272 35.6519L34.4403 35.5691C34.9058 36.4352 35.2621 37.0681 35.3217 37.1252C35.537 37.3277 36.7223 37.4756 37.3542 37.6675C37.9861 37.8594 38.767 36.7748 38.767 36.7748C39.7665 36.283 39.1167 35.6619 39.1167 35.6619C39.3689 35.7352 39.6226 35.0674 39.6226 35.0674C39.5381 33.6745 37.6314 34.6621 37.6314 34.6621L37.4675 33.8172L38.4849 33.2086L38.6453 33.1112C39.376 34.7106 41.9111 33.0868 41.9111 33.0868L42.5092 30.8643C42.6331 31.1489 42.832 31.051 42.9992 30.8823C43.1901 30.6737 43.3038 30.4107 43.3225 30.134C43.6624 26.6813 40.1584 27.7083 40.1584 27.7083C40.0457 27.7323 39.9358 27.7668 39.8301 27.8113C39.8065 27.7674 39.7816 27.721 39.7707 27.6708C39.6284 27.3087 39.4499 26.9606 39.2378 26.6312C38.8649 26.2193 37.6719 25.8593 36.6134 26.2414C35.9187 26.4845 34.3639 23.6217 33.3615 21.6007C33.2344 21.1914 33.0647 20.7954 32.855 20.4185C32.5382 19.799 32.1236 19.2299 31.6258 18.7312C31.7887 16.035 31.6429 13.3643 31.4128 12.6662C32.3404 10.4389 31.708 8.15873 31.2573 7.02622Z" fill="url(#paint1_linear)"/>
<path d="M39.4171 28.0146C40.0415 29.4163 40.9344 31.7195 40.9344 31.7195C40.9344 31.7195 39.8706 32.4096 38.1977 33.424L37.0594 34.1076C36.1846 34.6275 35.1963 35.2002 34.1441 35.792C32.199 36.8818 30.0365 38.0292 27.9373 39.0005C26.8903 39.4879 25.8582 39.931 24.8803 40.3011C24.4437 40.4666 24.016 40.6185 23.6047 40.753C21.046 41.5833 18.994 41.7724 18.2363 40.7046C17.9012 40.2568 17.6194 39.7747 17.396 39.2671C16.241 36.5963 18.699 36.0408 18.699 36.0408C18.1785 35.4023 17.5248 32.9444 17.0982 31.1429C16.8296 30.0072 16.6601 29.1281 16.6601 29.1281L31.4647 20.6091L31.5157 20.584C31.6174 20.5338 31.7287 20.5039 31.8428 20.4962C31.9569 20.4885 32.0715 20.5031 32.1796 20.5391C32.2876 20.5751 32.3868 20.6318 32.4713 20.7057C32.5557 20.7796 32.6235 20.8692 32.6705 20.9689C33.5242 22.7731 35.559 26.8651 36.3597 26.5852C37.3852 26.2256 38.5396 26.5799 38.9047 26.9833C39.1085 27.3111 39.28 27.6564 39.4171 28.0146Z" fill="#F44A87"/>
<path d="M16.0206 15.1132C16.0206 15.1132 13.8188 24.6154 10.0432 24.1411C9.95329 24.1298 9.86595 24.1173 9.77984 24.1011C7.17926 23.6655 5.51225 21.7217 4.78559 20.6756C4.46724 20.2153 4.13257 19.7846 3.78763 19.3527C2.28935 17.4709 1.81884 15.2098 1.68685 14.2444C1.64751 13.9552 1.63126 13.775 1.63126 13.775C3.28095 12.3154 16.0206 15.1132 16.0206 15.1132Z" fill="#F44A87"/>
<path d="M13.2455 17.2561C13.2455 17.2561 12.0807 19.3718 10.5909 22.6407C10.3595 23.1507 10.084 23.6413 9.76713 24.1073C7.16655 23.6718 5.49956 21.728 4.77289 20.6819C4.45454 20.2215 4.11987 19.7908 3.77493 19.359C2.27665 17.4772 1.80614 15.2161 1.67414 14.2506C5.40289 12.7181 13.2455 17.2561 13.2455 17.2561Z" fill="#F44A87"/>
<path opacity="0.5" d="M13.2455 17.2561C13.2455 17.2561 12.0807 19.3718 10.5909 22.6407C10.3595 23.1507 10.084 23.6413 9.76713 24.1073C7.16655 23.6718 5.49956 21.728 4.77289 20.6819C4.45454 20.2215 4.11987 19.7908 3.77493 19.359C2.27665 17.4772 1.80614 15.2161 1.67414 14.2506C5.40289 12.7181 13.2455 17.2561 13.2455 17.2561Z" fill="white"/>
<path opacity="0.1" d="M10.9117 17.5747C10.9117 17.5747 10.2929 18.709 9.49419 20.4502C9.37258 20.7205 9.2277 20.9806 9.06103 21.2279C7.6707 20.9866 6.76992 19.9645 6.39649 19.4017C6.22945 19.1569 6.04974 18.9245 5.86361 18.6921C5.26358 17.8838 4.88235 16.9457 4.75406 15.9619C6.72691 15.1515 10.9117 17.5747 10.9117 17.5747Z" fill="black"/>
<path d="M19.7663 13.27C19.7663 13.27 29.125 17.0835 30.918 13.869C30.9581 13.7937 31.0008 13.7172 31.0371 13.6407C32.1796 11.3633 31.4968 8.93521 31.0302 7.76116C30.824 7.24561 30.6525 6.7346 30.4835 6.2162C29.7578 3.95418 28.1068 2.27399 27.3628 1.60969C27.1399 1.41089 26.9936 1.29468 26.9936 1.29468C24.7983 1.72711 19.7663 13.27 19.7663 13.27Z" fill="#F44A87"/>
<path d="M23.1998 12.3579C23.1998 12.3579 25.6785 12.6806 29.324 13.4226C29.8877 13.5406 30.4608 13.6136 31.0372 13.6408C32.1796 11.3634 31.4968 8.93527 31.0302 7.76122C30.8241 7.24568 30.6526 6.73466 30.4836 6.21626C29.7579 3.95424 28.1068 2.27405 27.3629 1.60975C23.909 3.61167 23.1998 12.3579 23.1998 12.3579Z" fill="#F44A87"/>
<path opacity="0.5" d="M23.1998 12.3579C23.1998 12.3579 25.6785 12.6806 29.324 13.4226C29.8877 13.5406 30.4608 13.6136 31.0372 13.6408C32.1796 11.3634 31.4968 8.93527 31.0302 7.76122C30.8241 7.24568 30.6526 6.73466 30.4836 6.21626C29.7579 3.95424 28.1068 2.27405 27.3629 1.60975C23.909 3.61167 23.1998 12.3579 23.1998 12.3579Z" fill="white"/>
<path opacity="0.1" d="M24.8409 10.7143C24.8409 10.7143 26.1587 10.8926 28.0867 11.2766C28.3857 11.3399 28.69 11.3781 28.9959 11.3906C29.601 10.1829 29.2407 8.89477 28.9936 8.27293C28.8905 8.01516 28.7909 7.7279 28.703 7.45033C28.3699 6.51817 27.8025 5.67866 27.0505 5.00575C25.2141 6.07599 24.8409 10.7143 24.8409 10.7143Z" fill="black"/>
<path opacity="0.1" d="M31.4572 20.6189C31.3206 22.0805 31.0805 23.4573 30.6943 24.4063C29.4485 27.4873 19.1232 31.5871 18.4269 31.8033C18.28 31.8478 17.7936 31.6028 17.1099 31.1526C16.8413 30.0169 16.6718 29.1377 16.6718 29.1377L31.4572 20.6189Z" fill="black"/>
<path d="M17.7448 13.5582C17.3564 13.7833 16.9588 13.9913 16.5494 14.1835C14.4632 15.1669 7.54454 18.6825 8.21829 21.7536C9.01269 25.3732 17.6466 31.8633 18.3417 31.6508C19.0367 31.4384 29.3555 27.3324 30.6116 24.2526C31.8676 21.1727 31.5828 13.5944 31.1245 13.1196C31.1245 13.1196 30.8829 5.95177 17.7448 13.5582Z" fill="#F44A87"/>
<path opacity="0.1" d="M20.2898 18.809C20.2898 18.809 14.7864 20.567 14.9753 26.5452C14.9977 27.7145 15.3452 28.8569 15.982 29.8551C16.6188 30.8533 17.5219 31.6712 18.5986 32.2247C19.9698 32.9043 21.5664 33.1275 22.8417 31.6793C25.6877 28.4803 20.2898 18.809 20.2898 18.809Z" fill="black"/>
<path opacity="0.1" d="M19.9639 18.5807C19.9639 18.5807 14.4605 20.3386 14.6495 26.3168C14.6718 27.4861 15.0193 28.6286 15.6561 29.6268C16.2929 30.625 17.1961 31.4429 18.2727 31.9964C19.6439 32.676 21.2405 32.8991 22.5159 31.4509C25.3618 28.2519 19.9639 18.5807 19.9639 18.5807Z" fill="black"/>
<path d="M20.0465 18.7343C20.0465 18.7343 14.5431 20.4923 14.7321 26.4705C14.7544 27.6398 15.1019 28.7822 15.7387 29.7804C16.3755 30.7786 17.2787 31.5965 18.3553 32.15C19.7265 32.8296 21.3231 33.0527 22.5985 31.6046C25.4444 28.4056 20.0465 18.7343 20.0465 18.7343Z" fill="#F44A87"/>
<path opacity="0.5" d="M20.0465 18.7343C20.0465 18.7343 14.5431 20.4923 14.7321 26.4705C14.7544 27.6398 15.1019 28.7822 15.7387 29.7804C16.3755 30.7786 17.2787 31.5965 18.3553 32.15C19.7265 32.8296 21.3231 33.0527 22.5985 31.6046C25.4444 28.4056 20.0465 18.7343 20.0465 18.7343Z" fill="white"/>
<path d="M16.8034 25.6395C16.8034 25.6395 16.4378 26.5968 16.7881 26.6188C17.1384 26.6407 16.8034 25.6395 16.8034 25.6395Z" fill="#3F2B3B"/>
<path d="M17.9752 26.056C17.9752 26.056 18.0267 27.0457 18.3442 27.0005C18.6617 26.9553 18.4657 26.2127 18.4657 26.2127L17.9752 26.056Z" fill="#3F2B3B"/>
<path d="M16.9467 28.0955C16.9467 28.0955 17.0832 29.2253 17.4555 29.0421C17.8278 28.8589 16.9467 28.0955 16.9467 28.0955Z" fill="#3F2B3B"/>
<path d="M17.8476 30.8575C17.8476 30.8575 19.5703 32.3111 21.4387 31.2283" stroke="#3F2B3B" stroke-miterlimit="10"/>
<path d="M19.8775 30.5373C19.8775 30.5373 21.028 30.8781 21.5915 29.953" stroke="#3F2B3B" stroke-miterlimit="10"/>
<path opacity="0.1" d="M20.9425 18.4878C20.9425 18.4878 25.6381 15.2271 30.6104 18.8515C31.5914 19.5491 32.3605 20.4841 32.8387 21.5603C33.3168 22.6366 33.4868 23.8153 33.331 24.9752C33.1137 26.4365 32.3722 27.8101 30.3992 27.9604C26.0141 28.3197 20.9425 18.4878 20.9425 18.4878Z" fill="black"/>
<path opacity="0.1" d="M20.9277 18.1064C20.9277 18.1064 25.6233 14.8456 30.5956 18.47C31.5766 19.1676 32.3457 20.1026 32.8239 21.1788C33.302 22.2551 33.472 23.4338 33.3162 24.5937C33.0989 26.055 32.3574 27.4287 30.3844 27.5789C26.0171 27.9294 20.9277 18.1064 20.9277 18.1064Z" fill="black"/>
<path d="M21.0103 18.2601C21.0103 18.2601 25.7059 14.9993 30.6782 18.6237C31.6592 19.3213 32.4283 20.2563 32.9065 21.3325C33.3846 22.4088 33.5546 23.5875 33.3988 24.7475C33.1815 26.2087 32.44 27.5824 30.467 27.7326C26.0997 28.0832 21.0103 18.2601 21.0103 18.2601Z" fill="#F44A87"/>
<path opacity="0.5" d="M21.0103 18.2601C21.0103 18.2601 25.7059 14.9993 30.6782 18.6237C31.6592 19.3213 32.4283 20.2563 32.9065 21.3325C33.3846 22.4088 33.5546 23.5875 33.3988 24.7475C33.1815 26.2087 32.44 27.5824 30.467 27.7326C26.0997 28.0832 21.0103 18.2601 21.0103 18.2601Z" fill="white"/>
<path d="M28.7668 19.7525C28.7668 19.7525 29.7934 20.0248 29.6083 20.3102C29.4231 20.5957 28.7668 19.7525 28.7668 19.7525Z" fill="#3F2B3B"/>
<path d="M28.4394 20.9069C28.4394 20.9069 29.2508 21.5226 29.0277 21.7435C28.8046 21.9643 28.2873 21.3797 28.2873 21.3797L28.4394 20.9069Z" fill="#3F2B3B"/>
<path d="M30.774 21.2914C30.774 21.2914 31.6525 22.0561 31.2828 22.238C30.913 22.4199 30.774 21.2914 30.774 21.2914Z" fill="#3F2B3B"/>
<path d="M32.5953 23.6005C32.5953 23.6005 32.829 25.7868 30.8217 26.6111" stroke="#3F2B3B" stroke-miterlimit="10"/>
<path d="M31.1449 24.9928C31.1449 24.9928 30.7655 26.0865 29.6487 25.9882" stroke="#3F2B3B" stroke-miterlimit="10"/>
<path d="M25.5791 33.5929C25.7011 33.5021 27.678 31.1996 30.8774 30.9857L25.5791 33.5929Z" fill="#3F2B3B"/>
<path opacity="0.1" d="M23.6086 40.7603C21.0499 41.5906 18.9979 41.7797 18.2402 40.7119C17.9051 40.2641 17.6233 39.782 17.3999 39.2745C17.6068 38.9878 17.855 38.7307 18.1371 38.5106C18.5064 38.1839 19.0813 37.9998 20.3709 37.7539C21.6606 37.5079 22.2596 38.8143 23.3793 40.3518C23.4769 40.4761 23.5542 40.6138 23.6086 40.7603Z" fill="black"/>
<path d="M18.0617 38.7483C18.0617 38.7483 15.2625 40.8105 18.3068 42.5394C18.5506 42.6813 18.837 42.7412 19.1205 42.7097C19.3522 42.679 19.5409 42.5861 19.3763 42.3278L21.5481 43.1532C21.5481 43.1532 24.4415 42.1182 23.3141 40.5844C22.1867 39.0507 21.5799 37.7358 20.3057 37.9865C19.0315 38.2371 18.4361 38.419 18.0617 38.7483Z" fill="#F44A87"/>
<path d="M19.7218 40.1032C19.7218 40.1032 21.1468 41.2129 21.4106 39.5622" stroke="#3F2B3B" stroke-miterlimit="10"/>
<path d="M18.523 41.4119C18.523 41.4119 19.5912 42.6015 20.3334 40.9591" stroke="#3F2B3B" stroke-miterlimit="10"/>
<path opacity="0.1" d="M39.4171 28.0146C40.0415 29.4164 40.9344 31.7195 40.9344 31.7195C40.9344 31.7195 39.8706 32.4096 38.1977 33.4241C38.1372 33.3348 38.0863 33.24 38.0456 33.1411C37.3975 31.3715 36.6327 30.1344 37.5869 29.2884C38.4868 28.5032 38.9659 28.141 39.4171 28.0146Z" fill="black"/>
<path d="M39.7932 28.0546C39.7932 28.0546 43.1772 27.0742 42.8761 30.4492C42.854 30.7214 42.7385 30.9789 42.5475 31.1816C42.3866 31.3441 42.1954 31.4382 42.0716 31.1598L41.5126 33.329C41.5126 33.329 38.947 34.9802 38.3015 33.2093C37.656 31.4385 36.8886 30.2026 37.8429 29.3567C38.7971 28.5108 39.3032 28.1507 39.7932 28.0546Z" fill="#F44A87"/>
<path d="M39.9821 30.1335C39.9821 30.1335 40.0939 31.8893 38.5398 31.1332" stroke="#3F2B3B" stroke-miterlimit="10"/>
<path d="M41.7919 29.9618C41.7919 29.9618 42.1793 31.4864 40.3514 31.1088" stroke="#3F2B3B" stroke-miterlimit="10"/>
<path opacity="0.1" d="M27.9373 39.0005C26.8903 39.4879 25.8582 39.931 24.8803 40.3011L22.3524 37.7753C22.2025 37.6257 22.0757 37.4565 21.9758 37.2726C21.7284 36.773 21.6932 36.201 21.8778 35.6771C22.0623 35.1531 22.4521 34.7182 22.9651 34.4637C23.4781 34.2093 24.0742 34.1553 24.628 34.313C25.1818 34.4707 25.6501 34.8279 25.9341 35.3094C26.5685 36.4657 27.3694 37.9318 27.9373 39.0005Z" fill="black"/>
<path d="M22.1918 37.8543L25.1739 40.8354C25.1739 40.8354 23.2967 41.7098 24.4034 42.575C24.4034 42.575 25.0968 42.7675 25.1748 42.5347C25.1748 42.5347 25.326 43.3858 26.2898 42.9116C26.2898 42.9116 27.6199 42.9388 27.8156 42.3551C28.0112 41.7714 28.5457 40.7803 28.5041 40.5109C28.4738 40.3345 26.8771 37.3998 25.7682 35.3787C25.4955 34.8807 25.0279 34.5062 24.4676 34.3369C23.9072 34.1676 23.2996 34.2172 22.7774 34.475C22.4676 34.6268 22.1993 34.846 21.994 35.1149C21.7887 35.3838 21.6522 35.695 21.5952 36.0236C21.5383 36.3521 21.5626 36.6888 21.6662 37.0068C21.7698 37.3247 21.9498 37.615 22.1918 37.8543Z" fill="#F44A87"/>
<path d="M26.0455 41.5572C26.0455 41.5572 25.6281 42.6881 26.2885 42.9091" stroke="#3F2B3B" stroke-miterlimit="10"/>
<path d="M25.4457 41.2631C25.4457 41.2631 24.8272 41.8759 25.1799 42.5322" stroke="#3F2B3B" stroke-miterlimit="10"/>
<path opacity="0.1" d="M36.2085 30.269C36.3075 30.4531 36.3785 30.6499 36.4193 30.8532L37.0721 34.1013C36.1973 34.6212 35.209 35.1939 34.1569 35.7857C33.5904 34.7318 32.8364 33.3289 32.2524 32.2003C31.9838 31.6967 31.9354 31.1117 32.1177 30.5739C32.2999 30.0362 32.698 29.5897 33.2243 29.3327C33.7506 29.0758 34.362 29.0294 34.9241 29.2039C35.4861 29.3783 35.9527 29.7592 36.2212 30.2628L36.2085 30.269Z" fill="black"/>
<path d="M36.5749 30.7766L37.3744 34.8317C37.3744 34.8317 39.2122 33.878 39.3041 35.2426C39.3041 35.2426 39.0643 35.8943 38.8211 35.8196C38.8211 35.8196 39.4541 36.4336 38.4903 36.9079C38.4903 36.9079 37.7398 37.9589 37.1298 37.7717C36.5197 37.5845 35.3688 37.4228 35.164 37.2336C35.0317 37.1074 33.4656 34.1576 32.3925 32.119C32.1278 31.617 32.0814 31.0352 32.2634 30.5006C32.4454 29.966 32.841 29.522 33.3639 29.2655C33.6732 29.1132 34.0154 29.0323 34.3632 29.0292C34.711 29.0262 35.0547 29.1011 35.3668 29.248C35.6789 29.3949 35.9507 29.6096 36.1605 29.8751C36.3703 30.1405 36.5122 30.4493 36.5749 30.7766Z" fill="#F44A87"/>
<path d="M37.4836 35.9286C37.4836 35.9286 38.6878 36.2616 38.4916 36.9042" stroke="#3F2B3B" stroke-miterlimit="10"/>
<path d="M37.5901 35.287C37.5901 35.287 38.4709 35.1621 38.8236 35.8184" stroke="#3F2B3B" stroke-miterlimit="10"/>
<path opacity="0.1" d="M19.636 17.9646C19.636 17.9646 15.7982 19.7081 17.1824 22.5654C18.5666 25.4227 23.9492 21.2747 23.9492 21.2747C23.9492 21.2747 26.3042 19.7056 24.9491 18.2222C23.5941 16.7388 22.4494 16.7745 19.636 17.9646Z" fill="black"/>
<path opacity="0.1" d="M19.4708 17.6572C19.4708 17.6572 15.633 19.4007 17.0172 22.258C18.4014 25.1154 23.7841 20.9674 23.7841 20.9674C23.7841 20.9674 26.139 19.3982 24.784 17.9148C23.4289 16.4314 22.2842 16.4672 19.4708 17.6572Z" fill="black"/>
<path d="M19.5534 17.8109C19.5534 17.8109 15.7156 19.5544 17.0998 22.4117C18.4839 25.269 23.8666 21.121 23.8666 21.121C23.8666 21.121 26.2216 19.5519 24.8665 18.0685C23.5115 16.5851 22.3668 16.6208 19.5534 17.8109Z" fill="#3F2B3B"/>
<path opacity="0.1" d="M18.7056 36.0529C18.7056 36.0529 20.2139 35.8599 20.916 36.5663L18.7056 36.0529Z" fill="black"/>
<path opacity="0.1" d="M36.3508 26.5927C36.3508 26.5927 35.641 27.4016 36.5204 28.8877L36.3508 26.5927Z" fill="black"/>
<path d="M23.576 42.704C23.7753 42.4091 23.5227 41.9136 23.0117 41.5974C22.5008 41.2811 21.9249 41.2637 21.7256 41.5586C21.5262 41.8535 21.7788 42.349 22.2898 42.6652C22.8008 42.9815 23.3766 42.9988 23.576 42.704Z" fill="#F44A87"/>
<path d="M40.8046 32.4954C40.834 31.9158 40.5617 31.4321 40.1964 31.4151C39.831 31.3981 39.511 31.8542 39.4815 32.4339C39.452 33.0135 39.7243 33.4971 40.0897 33.5141C40.455 33.5311 40.7751 33.075 40.8046 32.4954Z" fill="#F44A87"/>
<path opacity="0.5" d="M23.576 42.704C23.7753 42.4091 23.5227 41.9136 23.0117 41.5974C22.5008 41.2811 21.9249 41.2637 21.7256 41.5586C21.5262 41.8535 21.7788 42.349 22.2898 42.6652C22.8008 42.9815 23.3766 42.9988 23.576 42.704Z" fill="white"/>
<path opacity="0.5" d="M40.8046 32.4954C40.834 31.9158 40.5617 31.4321 40.1964 31.4151C39.831 31.3981 39.511 31.8542 39.4815 32.4339C39.452 33.0135 39.7243 33.4971 40.0897 33.5141C40.455 33.5311 40.7751 33.075 40.8046 32.4954Z" fill="white"/>
<path d="M25.4694 15.3265C25.7871 14.8788 25.6652 14.2694 25.1973 13.9655C24.7294 13.6616 24.0926 13.7781 23.775 14.2259C23.4573 14.6736 23.5791 15.2829 24.0471 15.5869C24.515 15.8908 25.1518 15.7742 25.4694 15.3265Z" fill="#3F2B3B"/>
<path d="M15.205 20.8497C15.5227 20.402 15.4009 19.7927 14.9329 19.4887C14.465 19.1848 13.8282 19.3014 13.5106 19.7491C13.1929 20.1968 13.3148 20.8062 13.7827 21.1101C14.2506 21.414 14.8874 21.2974 15.205 20.8497Z" fill="#3F2B3B"/>
<path d="M35.8802 63.1327H33.8603V79.473C33.8603 79.473 46.8978 83.5141 59.5681 79.473V63.1327H35.8802Z" fill="#3F3D56"/>
<path d="M46.5306 65.0654C53.5282 65.0654 59.2008 64.2395 59.2008 63.2206C59.2008 62.2017 53.5282 61.3757 46.5306 61.3757C39.533 61.3757 33.8603 62.2017 33.8603 63.2206C33.8603 64.2395 39.533 65.0654 46.5306 65.0654Z" fill="#3F3D56"/>
<path d="M46.5306 65.0654C53.5282 65.0654 59.2008 64.2395 59.2008 63.2206C59.2008 62.2017 53.5282 61.3757 46.5306 61.3757C39.533 61.3757 33.8603 62.2017 33.8603 63.2206C33.8603 64.2395 39.533 65.0654 46.5306 65.0654Z" fill="#212121"/>
<path d="M61.2589 43.6098C58.0626 54.9153 47.1146 61.917 47.1146 61.917C47.1146 61.917 41.3488 50.589 44.5451 39.2836C47.7414 27.9781 58.6894 20.9764 58.6894 20.9764C58.6894 20.9764 64.4552 32.3044 61.2589 43.6098Z" fill="#3F3D56"/>
<path d="M32.1816 43.6098C35.3779 54.9153 46.3259 61.917 46.3259 61.917C46.3259 61.917 52.0917 50.589 48.8954 39.2836C45.6991 27.9781 34.7511 20.9764 34.7511 20.9764C34.7511 20.9764 28.9853 32.3044 32.1816 43.6098Z" fill="#212121"/>
<path d="M36.8783 41.1801C45.649 49.3495 46.7203 61.9078 46.7203 61.9078C46.7203 61.9078 33.5715 61.2208 24.8008 53.0514C16.0302 44.882 14.9589 32.3238 14.9589 32.3238C14.9589 32.3238 28.1077 33.0107 36.8783 41.1801Z" fill="#3F3D56"/>
<path d="M56.5622 41.1801C47.7915 49.3495 46.7203 61.9078 46.7203 61.9078C46.7203 61.9078 59.869 61.2208 68.6397 53.0514C77.4104 44.882 78.4816 32.3238 78.4816 32.3238C78.4816 32.3238 65.3329 33.0107 56.5622 41.1801Z" fill="#3F3D56"/>
<path d="M46.7142 24.8298C48.9453 24.8298 50.754 23.0992 50.754 20.9644C50.754 18.8295 48.9453 17.0989 46.7142 17.0989C44.4831 17.0989 42.6744 18.8295 42.6744 20.9644C42.6744 23.0992 44.4831 24.8298 46.7142 24.8298Z" fill="#212121"/>
<defs>
<linearGradient id="paint0_linear" x1="65.4638" y1="28.5379" x2="66.3576" y2="26.6626" gradientUnits="userSpaceOnUse">
<stop stop-color="white"/>
<stop offset="1"/>
</linearGradient>
<linearGradient id="paint1_linear" x1="31503.8" y1="21699.3" x2="29187.9" y2="16992.9" gradientUnits="userSpaceOnUse">
<stop stop-color="#808080" stop-opacity="0.25"/>
<stop offset="0.54" stop-color="#808080" stop-opacity="0.12"/>
<stop offset="1" stop-color="#808080" stop-opacity="0.1"/>
</linearGradient>
</defs>
</svg>
