<svg width="941" height="489" viewBox="0 0 941 489" fill="none" xmlns="http://www.w3.org/2000/svg">
<g clip-path="url(#clip0)">
<path opacity="0.1" d="M39.9011 66.8888C41.4257 76.3614 45.3218 85.5105 45.3557 95.0909C45.4827 126.395 6.69962 145.622 0.762313 176.379C-2.76111 194.628 6.3693 213.274 19.2434 226.886C32.1174 240.498 48.5318 250.31 63.6504 261.508C105.481 292.548 137.724 334.319 156.809 382.197C160.629 391.819 163.916 401.739 165 412.008C165.787 419.473 165.415 427.113 167.202 434.404C174.274 463.344 210.135 474.575 240.457 476.45C289.292 479.419 338.175 471.424 383.376 453.075C393.539 448.928 404.034 444.217 414.943 445.386C423.666 446.324 431.45 450.944 439.107 455.149C461.655 467.542 485.652 477.218 510.575 483.965C524.38 487.698 538.872 490.534 552.974 488.112C595.323 480.796 617.827 430.497 659.38 419.498C688.127 411.892 718.042 425.18 743.824 439.771C769.606 454.361 796.218 471.166 825.981 471.208C865.687 471.258 898.329 441.828 925.263 413.261C930.913 407.264 936.655 400.993 939.348 393.27C944.811 377.593 935.961 359.984 922.875 349.449C909.789 338.915 893.29 333.689 877.528 327.667C850.811 317.459 825.315 304.42 801.494 288.781C786.079 278.662 771.147 267.215 760.602 252.285C751.531 239.411 746.085 224.489 740.004 210.023C726.672 178.345 707.819 146.153 676.337 131.289C650.631 119.146 620.775 120.506 592.24 120.182C550.196 119.726 507.085 114.774 469.81 95.7296C438.328 79.6461 412.469 54.2559 380.521 39.0516C329.703 14.889 271.609 19.6253 216.852 20.5378C190.536 20.9774 159.257 23.5487 133.983 15.1047C115.291 8.85876 105.669 -3.90685 84.198 1.23589C54.8333 8.24495 35.2089 37.6664 39.9011 66.8888Z" fill="#6C63FF"/>
<path d="M818.459 294.903C817.13 290.592 817.27 285.974 818.857 281.748C821.398 275.311 827.59 270.666 829.767 264.088C833.815 251.87 822.906 240.431 816.215 229.358C810.077 219.084 807.296 207.217 808.245 195.35C809.287 182.609 814.614 170.424 815.021 157.65C815.385 145.747 811.446 134.167 807.559 122.887C804.349 113.563 801.079 104.132 795.65 95.8541C785.385 80.2019 767.149 70.3643 748.397 68.7386C739.546 67.9671 730.89 70.7874 722.192 69.6842C710.114 68.1579 698.697 65.0889 686.382 64.7073C674.685 64.3672 661.752 65.8188 653.782 74.2131C647.692 80.6415 645.744 89.9233 640.171 96.7914C632.26 106.538 618.429 109.88 609.679 118.905C605.899 122.894 603.245 127.778 601.978 133.076C600.711 138.375 600.875 143.905 602.455 149.123C603.666 152.972 605.648 156.547 606.935 160.371C612.347 176.346 605.241 193.433 600.947 209.724C600.463 211.055 600.375 212.494 600.693 213.872C601.371 215.862 603.505 216.908 605.275 218.085C611.069 221.951 614.024 228.952 614.592 235.795C615.159 242.638 613.542 249.456 611.949 256.142C607.892 273.138 602.819 291.345 589.445 302.65C587.017 296.979 584.145 291.499 580.857 286.26C572.675 273.27 566.619 257.228 566.518 241.875C566.512 241.828 566.512 241.781 566.518 241.734C566.518 240.904 566.56 240.075 566.611 239.245C567.669 221.13 575.665 203.653 575.487 185.62C575.487 184.16 575.445 182.697 575.36 181.232C574.318 165.795 566.746 151.52 558.065 138.597C551.585 128.95 544.284 119.635 534.934 112.609C520.476 101.835 502.105 97.1563 484.056 94.6845C466.007 92.2127 449.584 89.8901 431.391 88.6957C411.826 87.41 390.295 86.6884 374.83 98.4835C354.663 113.862 353.545 143.565 338.173 163.556C329.025 175.45 314.457 184.641 309.638 198.153C308.334 194.837 307.248 191.443 306.385 187.992C306.335 187.76 306.284 187.536 306.233 187.304C312.045 171 313.397 153.489 310.155 136.515C310.537 133.766 310.732 130.995 310.739 128.22C310.834 125.201 310.5 122.183 309.748 119.254C307.571 111.174 301.566 104.713 295.764 98.583C293.652 96.2428 291.358 94.0659 288.904 92.0717C273.721 74.0565 252.493 61.9136 229.011 57.8118C205.53 53.71 181.324 57.9164 160.717 69.6796C140.111 81.4429 124.445 99.9971 116.517 122.028C108.59 144.06 108.918 168.133 117.442 189.95C116.696 195.607 114.46 201.106 110.353 205.096C108.481 206.912 106.058 209.185 106.465 211.508C106.339 212.169 106.434 212.853 106.736 213.457C107.152 214.181 107.732 214.802 108.43 215.273C114.355 219.708 121.735 221.862 129.172 221.329C135.449 239.393 147.753 254.861 164.102 265.241C164.102 265.794 164.082 266.33 164.042 266.85C164.042 267.771 163.966 268.683 163.924 269.612C163.924 269.82 163.924 270.027 163.924 270.234C163.924 270.16 163.924 270.077 163.924 269.994C163.924 269.911 134.432 307.644 107.176 309.046C92.6254 309.792 79.9292 319.406 70.3075 330.396C58.7548 343.585 51.6232 358.748 51.0134 362.945C49.8869 370.642 42.027 408.052 42.027 408.052H268.458C265.781 421.522 262.173 438.684 262.173 438.684H628.736C627.889 427.146 626.949 416.479 626.077 407.446H672.161L672.11 407.72H884.701L898.185 387.904C894.84 330.164 860.063 298.42 818.459 294.903ZM289.183 230.403C293.966 232.923 299.104 234.735 304.429 235.778C306.741 236.243 309.324 236.533 311.298 235.264C312.606 234.296 313.574 232.954 314.068 231.423L314.169 231.672C319.886 245.773 325.18 260.322 326.205 275.468C326.298 276.895 326.357 278.322 326.366 279.757C326.389 288.397 324.568 296.946 321.021 304.857C301.872 294.994 283.405 283.911 265.739 271.678L264.545 271.18C264.545 271.271 264.96 272.308 265.451 274.058C265.57 274.481 265.697 274.946 265.824 275.444C264.613 271.611 263.511 267.696 262.546 263.706C262.436 263.234 262.326 262.761 262.216 262.288C273.75 253.998 283.013 243.045 289.183 230.403V230.403Z" fill="url(#paint0_linear)"/>
<path d="M682.985 67.6437C671.475 67.3036 658.736 68.7386 650.902 77.0001C644.905 83.3207 642.991 92.4615 637.503 99.2217C629.719 108.819 616.108 112.103 607.486 120.987C603.764 124.913 601.151 129.721 599.903 134.936C598.656 140.152 598.817 145.596 600.371 150.732C601.566 154.515 603.514 158.04 604.784 161.797C610.111 177.557 603.158 194.338 598.855 210.371C598.375 211.686 598.29 213.108 598.61 214.469C599.27 216.426 601.379 217.455 603.115 218.616C608.816 222.424 611.729 229.308 612.246 236.035C612.763 242.762 611.213 249.481 609.646 256.059C605.487 273.478 600.236 292.232 585.795 303.206C579.697 307.893 571.549 311.692 569.956 319.157C568.093 327.899 576.614 335.332 584.787 339.288C608.782 350.901 636.639 351.067 662.887 356.243C686.001 360.805 709.055 369.448 732.449 366.495C742.875 365.184 752.844 361.593 762.711 358.034L824.151 335.862C825.887 335.343 827.519 334.538 828.979 333.482C832.68 330.463 832.807 324.723 830.791 320.434C828.776 316.146 825.117 312.861 821.898 309.344C814.885 301.655 809.549 290.797 813.377 281.192C815.918 274.855 821.974 270.284 824.117 263.773C828.098 251.745 817.341 240.481 810.82 229.582C804.786 219.48 802.05 207.814 802.977 196.146C804.001 183.604 809.244 171.61 809.625 159.035C809.981 147.323 806.11 135.926 802.282 124.819C799.123 115.645 795.904 106.364 790.56 98.2098C780.455 82.8065 762.508 73.1265 744.044 71.5173C735.329 70.7625 726.816 73.5329 718.254 72.4546C706.353 71.0196 695.106 68.0003 682.985 67.6437Z" fill="#F7D6C8"/>
<path d="M700.171 396.787C700.171 396.787 630.515 354.02 657.602 304.716C663.869 293.319 666.639 282.536 667.206 272.69C667.356 270.096 667.356 267.495 667.206 264.901C667.206 264.777 667.206 264.652 667.206 264.528C667.116 263.189 666.995 261.873 666.842 260.579C663.615 234.55 646.54 217.588 646.54 217.588C646.54 217.588 762.076 184.566 742.731 214.336C733.753 228.155 736.438 241.709 742.452 255.735C743.087 257.212 743.764 258.705 744.467 260.19C751.413 274.979 761.051 290.299 763.745 306.914C769.267 341.022 700.171 396.787 700.171 396.787Z" fill="#EFB7B9"/>
<path opacity="0.1" d="M742.731 214.336C733.753 228.155 736.438 241.709 742.452 255.735C731.306 262.773 718.512 266.914 705.279 267.767C692.046 268.62 678.809 266.158 666.817 260.612C663.615 234.55 646.54 217.588 646.54 217.588C646.54 217.588 762.085 184.558 742.731 214.336Z" fill="black"/>
<path d="M700.162 266.311C743.211 266.311 778.109 232.134 778.109 189.974C778.109 147.815 743.211 113.638 700.162 113.638C657.113 113.638 622.215 147.815 622.215 189.974C622.215 232.134 657.113 266.311 700.162 266.311Z" fill="#EFB7B9"/>
<path opacity="0.1" d="M667.206 264.934C667.206 264.81 667.206 264.685 667.206 264.561L667.299 264.411C667.249 264.594 667.215 264.768 667.206 264.934Z" fill="black"/>
<path opacity="0.1" d="M700.17 396.787C700.17 396.787 630.515 354.02 657.601 304.716C663.869 293.319 666.639 282.535 667.206 272.69C668.79 284.866 677.37 300.004 692.988 320.957C699.764 330.081 702.678 342.838 703.601 355.587L705.151 356.69L712.774 352.178C713.62 338.077 716.534 323.827 723.428 313.724C741.545 287.181 745.848 273.909 744.51 260.156C751.455 274.946 761.094 290.266 763.787 306.881C769.267 341.022 700.17 396.787 700.17 396.787Z" fill="black"/>
<path d="M811.836 294.057C770.334 291.104 744.078 259.551 744.078 259.551C746.288 274.332 742.697 287.562 723.344 315.955C716.492 326.025 713.587 340.25 712.74 354.385L705.117 358.897L703.567 357.794C702.644 345.053 699.739 332.279 692.954 323.163C673.609 297.176 665.004 280.122 667.249 266.585C667.249 266.585 645.964 300.419 604.505 303.131C563.045 305.844 528.217 334.535 524.889 387.049L538.152 404.916H668.985L668.934 405.19H878.137L891.452 385.672C888.123 328.339 853.338 297.01 811.836 294.057Z" fill="#F44A87"/>
<path opacity="0.1" d="M752.861 153.079C749.473 161.291 743.46 168.226 736.887 174.314C727.807 182.733 716.39 190.149 703.906 189.576C710.712 183.367 715.638 175.44 718.143 166.666C710.267 171.162 704.312 178.279 696.791 183.347C689.27 188.415 678.64 191.028 671.289 185.736C684.642 179.161 695.734 168.898 703.194 156.215C685.34 160.752 676.176 180.444 660.092 189.286C652.553 193.433 643.736 194.993 635.097 194.81C628.957 194.686 622.113 193.284 618.691 188.291C616.692 185.388 616.227 181.738 616.15 178.229C615.778 162.32 622.393 146.709 632.582 134.325C642.771 121.941 656.297 112.526 670.763 105.219C675.913 102.614 681.283 100.242 687.017 99.4125C694.149 98.4005 701.416 99.8853 708.412 101.461C717.508 103.502 726.656 105.741 735.032 109.756C752.912 118.424 760.721 134.134 752.861 153.079Z" fill="black"/>
<path d="M752.861 151.993C749.473 160.205 743.46 167.139 736.887 173.227C727.807 181.647 716.39 189.062 703.906 188.49C710.712 182.28 715.638 174.353 718.143 165.58C710.267 170.075 704.312 177.192 696.791 182.26C689.27 187.328 678.64 189.941 671.289 184.649C684.642 178.075 695.734 167.811 703.194 155.128C685.34 159.665 676.176 179.357 660.092 188.199C652.553 192.347 643.736 193.906 635.097 193.724C628.957 193.599 622.113 192.197 618.691 187.204C616.692 184.301 616.227 180.651 616.15 177.142C615.778 161.233 622.393 145.622 632.582 133.238C642.771 120.854 656.297 111.44 670.763 104.132C675.913 101.528 681.283 99.1553 687.017 98.3258C694.149 97.3139 701.416 98.7986 708.412 100.375C717.508 102.415 726.656 104.655 735.032 108.669C752.912 117.321 760.721 133.048 752.861 151.993Z" fill="#F7D6C8"/>
<path d="M215.403 253.106C270.053 253.106 314.356 209.719 314.356 156.198C314.356 102.678 270.053 59.2908 215.403 59.2908C160.753 59.2908 116.451 102.678 116.451 156.198C116.451 209.719 160.753 253.106 215.403 253.106Z" fill="#C3705A"/>
<path d="M304.133 342.706C304.133 342.706 213.506 365.441 211.261 367.59C209.017 369.738 134.974 373.545 156.53 329.152C164.449 312.853 167.744 290.714 168.743 269.222C168.786 268.31 168.828 267.406 168.862 266.502C170.225 230.478 165.381 197.05 165.381 197.05C165.381 197.05 270.406 156.406 262.673 218.168C260.742 233.53 262.343 248.967 265.849 263.483C267.018 268.327 268.39 273.063 269.915 277.658C282.179 314.686 304.133 342.706 304.133 342.706Z" fill="#ECB4B6"/>
<path opacity="0.1" d="M265.841 263.499C251.911 273.613 235.161 279.322 217.829 279.862C200.497 280.401 183.411 275.746 168.853 266.518C170.217 230.494 165.372 197.067 165.372 197.067C165.372 197.067 270.397 156.422 262.665 218.185C260.742 233.555 262.343 248.992 265.841 263.499Z" fill="black"/>
<path d="M215.124 278.272C262.14 278.272 300.253 240.946 300.253 194.902C300.253 148.857 262.14 111.531 215.124 111.531C168.108 111.531 129.994 148.857 129.994 194.902C129.994 240.946 168.108 278.272 215.124 278.272Z" fill="#ECB4B6"/>
<path opacity="0.1" d="M304.133 342.706C304.133 342.706 213.506 365.441 211.261 367.59C209.017 369.738 134.974 373.545 156.53 329.152C164.449 312.853 167.744 290.714 168.743 269.222C169.59 280.453 176.146 307.652 176.984 316.702C177.038 317.231 177.146 317.753 177.306 318.261C178.534 322.284 182.913 326.921 188.19 331.317L188.503 331.574C195.067 336.966 203.211 340.173 211.759 340.732C220.307 341.291 228.815 339.173 236.052 334.685C243.586 330.037 250.816 324.934 257.701 319.406C267.56 311.434 270.635 300.693 271.016 291.203C271.173 286.648 270.804 282.09 269.915 277.617C282.179 314.686 304.133 342.706 304.133 342.706Z" fill="black"/>
<path d="M418.568 405.513H48.7096C48.7096 405.513 56.451 368.701 57.552 361.12C58.1534 356.973 65.1748 342.042 76.5497 329.077C86.0189 318.294 98.5119 308.797 112.834 308.058C139.641 306.682 168.667 269.621 168.667 269.621C169.311 280.404 176.103 308.564 176.959 317.805C177.012 318.334 177.12 318.856 177.281 319.364C178.509 323.387 182.888 328.024 188.164 332.42L188.478 332.677C195.04 338.071 203.184 341.281 211.732 341.842C220.28 342.402 228.789 340.285 236.027 335.796C243.559 331.146 250.789 326.044 257.676 320.517C267.535 312.546 270.609 301.804 270.99 292.315C271.184 286.018 270.405 279.729 268.678 273.66C268.195 271.935 267.831 270.923 267.78 270.832L268.958 271.321C268.958 271.321 319.039 306.988 364.92 321.571C370.297 323.285 375.371 325.803 379.962 329.036C383.681 331.669 387.105 334.68 390.177 338.019C396.387 344.897 401.525 352.637 405.422 360.987C416.06 383.068 418.568 405.513 418.568 405.513Z" fill="#FFB930"/>
<path opacity="0.1" d="M256.05 166.907C258.252 175.202 261.131 184.417 268.695 188.739C269.708 189.214 270.642 189.838 271.465 190.588C273.328 192.571 272.76 195.665 272.481 198.352C271.515 207.576 275.564 216.924 282.204 223.535C288.845 230.146 297.831 234.185 307.105 236.044C309.375 236.5 311.925 236.79 313.881 235.538C315.203 234.553 316.175 233.187 316.659 231.631C319.243 224.904 318.15 217.347 315.99 210.479C313.83 203.611 310.646 197.058 309.011 190.049C305.123 173.418 310.273 156.232 312.594 139.319C313.365 133.695 313.813 127.897 312.331 122.414C310.188 114.467 304.276 108.097 298.568 102.067C295.493 98.8236 292.351 95.5223 288.404 93.3988C276.767 87.1695 261.784 92.7021 249.358 88.1649C244.387 86.3483 240.16 83.0304 235.426 80.6996C225.372 75.7228 213.455 75.449 202.436 77.7135C191.417 79.978 181.092 84.6313 170.869 89.2432L163.052 92.7104C152.041 97.6872 140.242 103.311 134.314 113.721C128.004 124.803 129.757 138.987 123.447 150.069C121.533 153.386 118.865 156.572 118.365 160.387C118.026 163.141 118.89 165.895 119.695 168.558C121.66 175.036 123.371 181.696 123.218 188.465C123.066 195.233 120.864 202.168 115.968 206.929C113.901 208.936 111.14 211.508 112.411 214.071C112.828 214.787 113.407 215.4 114.105 215.862C118.125 218.853 122.852 220.801 127.846 221.526C132.84 222.251 137.94 221.729 142.673 220.01C146.383 218.625 149.89 216.402 151.99 213.125C153.386 210.725 154.398 208.129 154.988 205.428C157.665 195.665 160.358 185.736 160.146 175.625C160.028 169.818 158.944 163.962 159.808 158.206C160.672 152.449 164.102 146.518 169.819 144.934C174.054 143.748 178.585 145.183 183.006 145.141C189.376 145.092 197.185 138.174 203.088 140.206C208.17 141.965 212.193 151.487 216.394 155.137C227.049 164.452 241.922 169.321 256.05 166.907Z" fill="black"/>
<path d="M256.05 165.82C258.252 174.115 261.131 183.33 268.695 187.652C269.694 188.118 270.616 188.727 271.431 189.46C273.294 191.443 272.727 194.537 272.447 197.224C271.482 206.448 275.53 215.796 282.17 222.407C288.811 229.018 297.797 233.057 307.072 234.915C309.341 235.372 311.891 235.662 313.847 234.409C315.17 233.425 316.142 232.058 316.625 230.503C319.209 223.776 318.116 216.219 315.956 209.351C313.797 202.483 310.612 195.93 308.977 188.921C305.09 172.29 310.239 155.103 312.56 138.19C313.331 132.567 313.78 126.769 312.297 121.286C310.154 113.339 304.243 106.969 298.534 100.939C295.459 97.6954 292.317 94.3941 288.37 92.2707C276.733 86.0413 261.75 91.5739 249.325 87.0367C244.353 85.2201 240.126 81.9022 235.392 79.5714C225.338 74.5946 213.421 74.3208 202.402 76.5853C191.383 78.8498 181.058 83.5031 170.835 88.115L163.119 91.5988C152.109 96.5756 140.31 102.199 134.381 112.609C128.071 123.691 129.825 137.875 123.515 148.957C121.6 152.275 118.933 155.46 118.433 159.276C118.094 162.029 118.958 164.783 119.763 167.446C121.728 173.924 123.438 180.585 123.286 187.353C123.134 194.122 120.931 201.056 116.036 205.817C113.969 207.825 111.208 210.396 112.479 212.959C112.895 213.676 113.475 214.289 114.172 214.751C118.193 217.741 122.919 219.689 127.913 220.414C132.907 221.139 138.008 220.618 142.741 218.898C146.451 217.513 149.957 215.29 152.058 212.014C153.454 209.613 154.465 207.017 155.056 204.316C157.733 194.553 160.426 184.624 160.214 174.513C160.096 168.707 159.011 162.851 159.875 157.094C160.739 151.338 164.17 145.407 169.887 143.823C174.122 142.636 178.653 144.071 183.074 144.03C189.443 143.98 197.252 137.062 203.156 139.095C208.238 140.853 212.261 150.375 216.462 154.025C227.049 163.373 241.922 168.242 256.05 165.82Z" fill="#C3705A"/>
<path d="M539.634 201.23H345.592V364.189H539.634V201.23Z" fill="#463A3E"/>
<path opacity="0.05" d="M539.634 201.23H345.592V364.189H539.634V201.23Z" fill="black"/>
<path d="M511.811 435.656H345.804C347.947 423.82 354.214 410.847 366.428 396.862C376.071 385.868 383.959 373.507 389.821 360.199C391.397 356.643 392.808 353.08 394.056 349.507C397.725 338.9 400.221 327.938 401.501 316.809C401.501 316.494 401.577 316.179 401.611 315.864C402.467 308.174 402.812 300.438 402.644 292.705C402.644 292.149 402.644 291.61 402.644 291.046C402.051 272.07 398.846 253.259 393.116 235.123L392.904 234.476C391.1 228.91 389.779 225.783 389.779 225.783C389.779 225.783 393.074 224.033 398.511 221.453L398.969 221.237C418.966 211.831 466.303 192.206 487.173 206.191L487.512 206.415C494.813 211.508 498.742 220.856 496.896 236.425C496.896 236.483 496.896 236.549 496.896 236.608C496.896 236.898 496.828 237.18 496.803 237.437C495.685 248.168 495.156 258.95 495.219 269.737C495.219 270.276 495.219 270.815 495.219 271.396C495.219 273.923 495.247 276.483 495.304 279.077C495.304 279.425 495.304 279.773 495.304 280.122C495.473 288.499 495.854 297.151 496.388 305.927C497.125 318.095 498.175 330.487 499.386 342.647C499.903 347.848 500.462 353.016 501.08 358.101C501.148 358.698 501.216 359.312 501.283 359.901C501.995 366.097 502.732 372.168 503.486 378.058L503.536 378.439C506.416 401.83 509.601 422.252 511.811 435.656Z" fill="#C17174"/>
<path opacity="0.1" d="M496.828 236.458C496.828 236.516 496.828 236.583 496.828 236.641C495.635 247.661 495.069 258.738 495.134 269.82C495.134 270.359 495.134 270.898 495.134 271.479C483.988 284.149 469.029 293.035 452.404 296.862C435.78 300.689 418.345 299.26 402.602 292.78C402.602 292.224 402.602 291.685 402.602 291.121C402.005 271.917 398.728 252.884 392.862 234.55C391.058 228.985 389.737 225.858 389.737 225.858C389.737 225.858 393.031 224.107 398.469 221.528C418.271 212.155 466.591 191.915 487.444 206.448C494.736 211.541 498.666 220.889 496.828 236.458Z" fill="black"/>
<path d="M433.949 297.275C478.537 297.275 514.682 261.876 514.682 218.21C514.682 174.543 478.537 139.144 433.949 139.144C389.361 139.144 353.215 174.543 353.215 218.21C353.215 261.876 389.361 297.275 433.949 297.275Z" fill="#C17174"/>
<path opacity="0.1" d="M438.226 435.117H265.993C265.993 435.117 273.735 398.305 274.836 390.724C275.437 386.576 282.458 371.646 293.833 358.681C308.444 347.267 326.539 340.979 345.228 340.823C378.167 340.342 387.755 351.448 390.355 359.66C391.263 362.413 391.495 365.338 391.032 368.195L397.266 377.037L438.226 435.117Z" fill="black"/>
<path d="M437.675 435.656H265.443C265.443 435.656 273.184 398.844 274.285 391.263C274.886 387.116 281.908 372.185 293.283 359.22C307.893 347.806 325.989 341.519 344.677 341.362C377.616 340.881 387.204 351.987 389.804 360.199C390.713 362.952 390.945 365.877 390.482 368.734L396.716 377.577L437.675 435.656Z" fill="#00A1FF"/>
<path opacity="0.1" d="M625.687 435.117H445.23C453.836 417.184 476.391 369.373 477.644 358.316C478.127 354.036 482.785 350.021 488.951 346.612C490.899 345.52 492.903 344.529 494.956 343.643L495.329 343.477C496.458 342.99 497.602 342.54 498.759 342.125C514.369 336.529 531.52 336.661 547.037 342.498C561.851 348.014 580.916 355.446 595.755 362.406L595.874 362.464C599.685 364.255 603.234 366.005 606.359 367.689C612.61 371.049 617.175 374.118 618.928 376.573C619.733 377.701 620.622 382.786 621.596 390.674C622.892 401.341 624.307 417.167 625.687 435.117Z" fill="black"/>
<path d="M626.238 435.656H445.781C454.386 417.723 476.941 369.912 478.195 358.855C478.678 354.575 483.336 350.561 489.502 347.152C491.449 346.06 493.454 345.068 495.507 344.182L495.88 344.016C497.009 343.529 498.152 343.079 499.31 342.664C514.919 337.068 532.07 337.201 547.588 343.037C562.401 348.553 581.467 355.985 596.306 362.945L596.424 363.003C600.236 364.794 603.785 366.545 606.91 368.228C613.161 371.588 617.726 374.657 619.479 377.112C620.284 378.24 621.173 383.325 622.147 391.213C623.451 401.88 624.857 417.715 626.238 435.656Z" fill="#00A1FF"/>
<path opacity="0.1" d="M597.195 348.935C597.195 351.484 597.124 354.036 596.983 356.591C596.904 357.835 596.808 359.079 596.695 360.324C596.619 361.22 596.526 362.107 596.433 362.995L596.314 364.023C594.934 376.084 592.384 388.078 592.079 400.197C592.079 400.769 592.079 401.341 592.079 401.914C592.02 413.294 593.9 424.5 596.45 435.657H492.526C492.356 433.591 492.272 431.509 492.297 429.46C492.297 427.611 492.416 425.761 492.61 423.903C494.211 408.632 502.181 394.34 503.384 379.169L503.435 378.473C503.511 377.336 503.553 376.192 503.536 375.047C503.536 374.947 503.536 374.848 503.536 374.74C503.405 369.724 502.616 364.745 501.19 359.926C501.122 359.685 501.055 359.444 500.987 359.204C499.535 354.423 497.839 349.717 495.905 345.103L495.532 344.182C492.712 337.281 489.748 330.438 487.74 323.578C486.145 318.47 485.32 313.16 485.292 307.818C485.292 306.864 485.352 305.91 485.428 304.956C485.496 304.177 485.589 303.397 485.707 302.609C485.893 301.378 486.141 300.157 486.453 298.951C488.147 292.415 491.763 286.285 495.227 280.213C499.081 273.453 502.757 266.767 503.418 259.659C503.501 258.76 503.532 257.857 503.511 256.955C503.485 255.792 503.371 254.633 503.172 253.487C502.283 248.444 499.632 243.907 497.455 239.254C497.235 238.781 497.015 238.308 496.803 237.827C496.803 237.752 496.735 237.678 496.71 237.603C492.475 228.023 490.019 217.803 487.435 207.634C487.325 207.194 487.215 206.755 487.097 206.324C486.461 203.835 485.809 201.347 485.115 198.858C481.32 185.288 475.916 171.577 465.634 161.781C455.352 151.985 438.954 147.024 426.08 153.262C414.943 158.695 408.912 170.855 406.193 182.733C403.474 194.611 403.254 207.012 399.722 218.691C399.468 219.543 399.186 220.391 398.875 221.237C398.723 221.669 398.57 222.067 398.418 222.54C396.902 226.77 395.03 230.959 393.014 235.123L392.803 235.562C386.366 248.975 378.887 262.155 378.65 275.634V275.809C378.65 276.174 378.65 276.53 378.65 276.895C378.694 280.099 379.19 283.281 380.123 286.351C381.817 291.875 384.883 296.695 388.458 301.282C389.163 302.183 389.886 303.076 390.626 303.961C394.183 308.241 398.045 312.388 401.425 316.801L401.535 316.942C404.105 320.201 406.274 323.746 407.997 327.501C410.041 332.206 411.108 337.261 411.137 342.374C411.166 347.486 410.156 352.553 408.167 357.28C407.208 359.464 406.107 361.586 404.872 363.633C402.695 367.316 400.298 370.899 398.41 374.732C397.774 376.017 397.207 377.328 396.716 378.655C392.481 389.339 391.566 401.159 388.11 412.182C385.434 420.646 381.269 428.587 375.804 435.648H265.697C266.976 429.518 273.32 399.151 274.319 392.333C274.92 388.186 281.942 373.255 293.317 360.291C292.36 361.029 291.436 361.775 290.547 362.522C283.374 368.509 277.158 375.515 272.108 383.308C272.354 382.562 272.608 381.807 272.862 381.061C274.412 376.532 276.089 372.044 277.792 367.615C282.721 354.857 288.209 341.843 298.034 332.171C303.582 326.713 310.332 322.508 315.618 316.809C324.934 306.781 328.788 292.887 328.678 279.267C328.678 277.857 328.619 276.456 328.525 275.054C327.518 260.123 322.309 245.831 316.668 231.921C313.636 224.456 310.417 216.609 310.561 208.696C310.57 207.586 310.652 206.478 310.807 205.378C313.136 188.979 330.075 179.158 340.248 165.928C355.375 146.245 356.476 116.989 376.32 101.876C391.566 90.2635 412.74 90.9768 431.992 92.2376C449.897 93.4155 466.058 95.6965 483.827 98.1352C501.597 100.574 519.629 105.153 533.884 115.878C543.09 122.795 550.273 131.961 556.65 141.459C565.188 154.183 572.65 168.234 573.675 183.422C573.751 184.508 573.793 185.587 573.793 186.657C573.971 204.407 566.103 221.611 565.061 239.436C565.018 240.266 564.985 241.095 564.976 241.925C564.971 241.969 564.971 242.013 564.976 242.057C564.79 257.51 570.846 273.735 579.087 286.849C590.795 305.538 597.058 327.009 597.195 348.935V348.935Z" fill="black"/>
<path d="M597.195 348.935C597.195 351.125 597.11 353.323 596.983 355.504C596.904 356.749 596.808 357.993 596.695 359.237C596.582 360.481 596.455 361.714 596.314 362.937C594.934 374.997 592.384 386.991 592.079 399.11C592.079 400.039 592.079 400.976 592.079 401.905C592.139 413.277 594.104 424.492 596.695 435.648H492.619C492.424 433.583 492.305 431.501 492.288 429.452C492.266 427.236 492.371 425.021 492.602 422.816C494.203 407.546 502.173 393.254 503.375 378.083C503.46 376.971 503.519 375.86 503.528 374.765C503.528 374.508 503.528 374.242 503.528 373.985C503.42 368.616 502.568 363.287 500.995 358.142C499.543 353.362 497.847 348.655 495.914 344.041C492.983 336.833 489.841 329.675 487.74 322.475C486.26 317.701 485.437 312.755 485.292 307.768C485.269 306.451 485.314 305.133 485.428 303.82C485.496 303.04 485.589 302.26 485.708 301.472C485.893 300.242 486.141 299.021 486.453 297.814C488.147 291.278 491.763 285.148 495.228 279.077C499.09 272.308 502.783 265.606 503.435 258.489C503.486 257.95 503.511 257.402 503.528 256.83C503.568 255.305 503.455 253.78 503.189 252.276C502.3 247.233 499.649 242.696 497.472 238.043C497.252 237.57 497.032 237.097 496.82 236.616C492.526 226.977 490.044 216.708 487.452 206.423C486.707 203.487 485.945 200.55 485.14 197.639C481.346 184.069 475.942 170.357 465.66 160.561C455.377 150.765 439.005 145.905 426.14 152.175C415.002 157.608 408.971 169.769 406.253 181.647C403.534 193.525 403.314 205.925 399.782 217.604C399.392 218.89 398.935 220.176 398.503 221.453C396.927 225.824 394.962 230.163 392.896 234.476C386.281 248.237 378.582 261.774 378.743 275.634V275.809C378.787 279.012 379.283 282.194 380.216 285.265C381.91 290.789 384.976 295.608 388.551 300.195C389.257 301.096 389.979 301.989 390.719 302.874C394.319 307.204 398.223 311.393 401.628 315.856C404.198 319.115 406.367 322.659 408.091 326.415C410.134 331.119 411.201 336.175 411.23 341.287C411.259 346.399 410.25 351.466 408.26 356.193C407.301 358.377 406.2 360.499 404.965 362.547C402.788 366.229 400.391 369.813 398.503 373.645C397.867 374.931 397.3 376.241 396.809 377.568C392.574 388.252 391.659 400.072 388.203 411.096C385.386 419.995 380.928 428.314 375.05 435.64H265.443C265.443 435.64 273.184 398.828 274.285 391.246C274.836 387.456 280.773 374.657 290.513 362.522C291.36 361.41 292.326 360.299 293.283 359.204C285.318 365.369 278.415 372.745 272.837 381.052L272.083 382.213C273.845 376.913 275.784 371.679 277.775 366.52C282.704 353.762 288.192 340.748 298.017 331.076C303.565 325.618 310.315 321.413 315.601 315.714C324.646 305.952 328.559 292.489 328.661 279.218C328.661 277.443 328.661 275.676 328.509 273.917C327.501 258.987 322.292 244.695 316.651 230.785C313.763 223.635 310.722 216.186 310.544 208.605C310.505 207.143 310.587 205.681 310.79 204.233C313.127 187.926 330.067 178.146 340.239 164.875C355.366 145.191 356.467 115.936 376.312 100.823C391.558 89.21 412.732 89.9233 431.984 91.1841C449.889 92.362 466.049 94.643 483.819 97.0817C501.588 99.5203 519.646 104.091 533.884 114.783C543.09 121.742 550.273 130.866 556.65 140.372C565.188 153.096 572.65 167.147 573.675 182.335C573.776 183.778 573.816 185.219 573.793 186.657C573.649 204.018 566.077 220.889 565.061 238.358C564.993 239.536 564.959 240.705 564.976 241.891C564.971 241.935 564.971 241.98 564.976 242.024C565.078 257.154 571.04 272.93 579.087 285.712C591 304.731 597.271 326.623 597.195 348.935V348.935Z" fill="#463A3E"/>
</g>
<defs>
<linearGradient id="paint0_linear" x1="470.089" y1="438.667" x2="470.089" y2="56.2799" gradientUnits="userSpaceOnUse">
<stop stop-color="#808080" stop-opacity="0.25"/>
<stop offset="0.54" stop-color="#808080" stop-opacity="0.12"/>
<stop offset="1" stop-color="#808080" stop-opacity="0.1"/>
</linearGradient>
<clipPath id="clip0">
<rect width="941" height="489" fill="white"/>
</clipPath>
</defs>
</svg>
