<svg width="924" height="754" viewBox="0 0 924 754" fill="none" xmlns="http://www.w3.org/2000/svg">
<g clip-path="url(#clip0)">
<path opacity="0.1" d="M903.511 750.898C911.317 743.091 902.282 721.399 883.33 702.447C864.378 683.495 842.686 674.459 834.879 682.266C827.073 690.073 836.108 711.765 855.06 730.717C874.012 749.669 895.704 758.704 903.511 750.898Z" fill="#6C63FF"/>
<path d="M872.63 719.75C878.556 719.75 883.36 713.459 883.36 705.7C883.36 697.94 878.556 691.65 872.63 691.65C866.704 691.65 861.9 697.94 861.9 705.7C861.9 713.459 866.704 719.75 872.63 719.75Z" fill="#3F3D56"/>
<path d="M872.63 702.58C878.556 702.58 883.36 696.29 883.36 688.53C883.36 680.77 878.556 674.48 872.63 674.48C866.704 674.48 861.9 680.77 861.9 688.53C861.9 696.29 866.704 702.58 872.63 702.58Z" fill="#3F3D56"/>
<path d="M872.63 685.41C878.556 685.41 883.36 679.12 883.36 671.36C883.36 663.6 878.556 657.31 872.63 657.31C866.704 657.31 861.9 663.6 861.9 671.36C861.9 679.12 866.704 685.41 872.63 685.41Z" fill="#3F3D56"/>
<path d="M872.63 668.24C878.556 668.24 883.36 661.95 883.36 654.19C883.36 646.431 878.556 640.14 872.63 640.14C866.704 640.14 861.9 646.431 861.9 654.19C861.9 661.95 866.704 668.24 872.63 668.24Z" fill="#3F3D56"/>
<path d="M872.63 651.07C878.556 651.07 883.36 644.78 883.36 637.02C883.36 629.26 878.556 622.97 872.63 622.97C866.704 622.97 861.9 629.26 861.9 637.02C861.9 644.78 866.704 651.07 872.63 651.07Z" fill="#3F3D56"/>
<path d="M872.63 633.9C878.556 633.9 883.36 627.61 883.36 619.85C883.36 612.09 878.556 605.8 872.63 605.8C866.704 605.8 861.9 612.09 861.9 619.85C861.9 627.61 866.704 633.9 872.63 633.9Z" fill="#3F3D56"/>
<path d="M872.63 616.73C878.556 616.73 883.36 610.439 883.36 602.68C883.36 594.92 878.556 588.63 872.63 588.63C866.704 588.63 861.9 594.92 861.9 602.68C861.9 610.439 866.704 616.73 872.63 616.73Z" fill="#3F3D56"/>
<path d="M912.8 485.18C914.268 483.315 915.605 481.351 916.8 479.3L888.6 474.67L919.1 474.89C922.026 468.525 923.623 461.631 923.795 454.628C923.967 447.625 922.71 440.661 920.1 434.16L879.19 455.39L916.9 427.65C913.368 421.535 908.614 416.214 902.934 412.018C897.255 407.822 890.771 404.841 883.889 403.26C877.007 401.68 869.872 401.535 862.931 402.833C855.99 404.132 849.391 406.846 843.545 410.807C837.699 414.768 832.732 419.892 828.954 425.857C825.175 431.822 822.666 438.502 821.583 445.48C820.5 452.458 820.865 459.585 822.658 466.415C824.45 473.245 827.63 479.633 832 485.18C829.714 488.083 827.749 491.224 826.14 494.55L862.74 513.55L823.74 500.45C821.002 508.551 820.326 517.207 821.773 525.635C823.22 534.063 826.746 541.997 832.03 548.72C826.067 556.302 822.357 565.409 821.325 574.999C820.293 584.59 821.981 594.277 826.195 602.954C830.41 611.631 836.98 618.946 845.157 624.065C853.333 629.183 862.784 631.897 872.43 631.897C882.076 631.897 891.527 629.183 899.703 624.065C907.88 618.946 914.45 611.631 918.665 602.954C922.879 594.277 924.567 584.59 923.535 574.999C922.503 565.409 918.794 556.302 912.83 548.72C919.956 539.659 923.829 528.467 923.829 516.94C923.829 505.413 919.956 494.221 912.83 485.16L912.8 485.18Z" fill="#FFB930"/>
<path d="M846.97 0V720L602.97 686L306.36 746.51L303.97 747L67.97 682V56L312.97 0L580.97 56L591.16 53.85L846.97 0Z" fill="#444053"/>
<path d="M805.97 39.3199V683.53L587.66 653.11L322.27 707.25L320.13 707.68L108.97 649.53V89.4199L328.19 39.3199L567.97 89.4199L577.09 87.4999L805.97 39.3199Z" fill="white"/>
<path opacity="0.1" d="M602.97 686L306.36 746.51L312.97 0L580.97 56L591.16 53.85L602.97 686Z" fill="black"/>
<g opacity="0.3">
<path opacity="0.3" d="M573.35 138L573.47 347.5H660.47V261.5H809.47L826.97 239.06" stroke="#444053" stroke-width="3" stroke-miterlimit="10"/>
<path opacity="0.3" d="M88.97 204.5H412.47L432.47 195.5H440.47V397.5H580.47L586.47 415.5V506.5H694.47V619" stroke="#444053" stroke-width="3" stroke-miterlimit="10"/>
<path opacity="0.3" d="M483.2 619V397.5" stroke="#444053" stroke-width="3" stroke-miterlimit="10"/>
<path opacity="0.3" d="M826.97 559.66H483.2" stroke="#444053" stroke-width="3" stroke-miterlimit="10"/>
<path opacity="0.3" d="M740.87 138V619" stroke="#444053" stroke-width="3" stroke-miterlimit="10"/>
<path opacity="0.3" d="M87.97 517.14H826.97" stroke="#444053" stroke-width="3" stroke-miterlimit="10"/>
<path opacity="0.3" d="M177.91 619V138" stroke="#444053" stroke-width="3" stroke-miterlimit="10"/>
<path opacity="0.3" d="M349.69 138V619" stroke="#444053" stroke-width="3" stroke-miterlimit="10"/>
<path opacity="0.3" d="M88.97 259.5L660.47 261.5" stroke="#444053" stroke-width="3" stroke-miterlimit="10"/>
<path opacity="0.3" d="M255.3 138.87V619" stroke="#444053" stroke-width="3" stroke-miterlimit="10"/>
<path opacity="0.3" d="M87.97 370.82H349.69L483.2 517.14" stroke="#444053" stroke-width="3" stroke-miterlimit="10"/>
<path opacity="0.3" d="M512.12 138V397.5" stroke="#444053" stroke-width="3" stroke-miterlimit="10"/>
<path opacity="0.3" d="M483.2 443.98H826.97" stroke="#444053" stroke-width="3" stroke-miterlimit="10"/>
</g>
<path d="M585.97 442H484.97V398L580.47 397.5L586.47 414.5L585.97 442Z" fill="#00A1FF"/>
<path d="M535.97 214C521.309 214 507.248 219.824 496.881 230.191C486.514 240.558 480.69 254.619 480.69 269.28C480.69 299.81 535.97 399 535.97 399C535.97 399 591.25 299.85 591.25 269.28C591.25 254.619 585.426 240.558 575.059 230.191C564.692 219.824 550.631 214 535.97 214V214ZM535.97 292.86C531.16 292.86 526.458 291.434 522.458 288.761C518.459 286.089 515.342 282.291 513.501 277.847C511.66 273.403 511.179 268.513 512.117 263.795C513.056 259.078 515.372 254.744 518.773 251.343C522.174 247.942 526.508 245.626 531.225 244.687C535.943 243.749 540.833 244.231 545.277 246.071C549.721 247.912 553.519 251.029 556.191 255.029C558.864 259.028 560.29 263.73 560.29 268.54C560.287 274.988 557.724 281.172 553.163 285.73C548.603 290.289 542.418 292.85 535.97 292.85V292.86Z" fill="#F44A87"/>
<path d="M535.97 222C521.309 222 507.248 227.824 496.881 238.191C486.514 248.558 480.69 262.619 480.69 277.28C480.69 307.81 535.97 407 535.97 407C535.97 407 591.25 307.85 591.25 277.28C591.25 262.619 585.426 248.558 575.059 238.191C564.692 227.824 550.631 222 535.97 222V222ZM535.97 300.86C531.16 300.86 526.458 299.434 522.458 296.761C518.459 294.089 515.342 290.291 513.501 285.847C511.66 281.403 511.179 276.513 512.117 271.795C513.056 267.078 515.372 262.744 518.773 259.343C522.174 255.942 526.508 253.626 531.225 252.687C535.943 251.749 540.833 252.231 545.277 254.071C549.721 255.912 553.519 259.029 556.191 263.029C558.864 267.028 560.29 271.73 560.29 276.54C560.287 282.988 557.724 289.172 553.163 293.73C548.603 298.289 542.418 300.85 535.97 300.85V300.86Z" fill="#00A1FF"/>
<path opacity="0.1" d="M517.233 746.075C534.2 738.768 545.515 727.178 542.505 720.188C539.494 713.198 523.299 713.455 506.332 720.763C489.365 728.07 478.05 739.66 481.06 746.65C484.071 753.64 500.266 753.382 517.233 746.075Z" fill="#6C63FF"/>
<path d="M511.39 737.65C515.477 737.65 518.79 733.316 518.79 727.97C518.79 722.624 515.477 718.29 511.39 718.29C507.303 718.29 503.99 722.624 503.99 727.97C503.99 733.316 507.303 737.65 511.39 737.65Z" fill="#3F3D56"/>
<path d="M511.39 725.81C515.477 725.81 518.79 721.476 518.79 716.13C518.79 710.784 515.477 706.45 511.39 706.45C507.303 706.45 503.99 710.784 503.99 716.13C503.99 721.476 507.303 725.81 511.39 725.81Z" fill="#3F3D56"/>
<path d="M511.39 713.98C515.477 713.98 518.79 709.646 518.79 704.3C518.79 698.954 515.477 694.62 511.39 694.62C507.303 694.62 503.99 698.954 503.99 704.3C503.99 709.646 507.303 713.98 511.39 713.98Z" fill="#3F3D56"/>
<path d="M511.39 702.15C515.477 702.15 518.79 697.816 518.79 692.47C518.79 687.124 515.477 682.79 511.39 682.79C507.303 682.79 503.99 687.124 503.99 692.47C503.99 697.816 507.303 702.15 511.39 702.15Z" fill="#3F3D56"/>
<path d="M511.39 690.31C515.477 690.31 518.79 685.976 518.79 680.63C518.79 675.284 515.477 670.95 511.39 670.95C507.303 670.95 503.99 675.284 503.99 680.63C503.99 685.976 507.303 690.31 511.39 690.31Z" fill="#3F3D56"/>
<path d="M511.39 678.48C515.477 678.48 518.79 674.146 518.79 668.8C518.79 663.454 515.477 659.12 511.39 659.12C507.303 659.12 503.99 663.454 503.99 668.8C503.99 674.146 507.303 678.48 511.39 678.48Z" fill="#3F3D56"/>
<path d="M511.39 666.65C515.477 666.65 518.79 662.316 518.79 656.97C518.79 651.624 515.477 647.29 511.39 647.29C507.303 647.29 503.99 651.624 503.99 656.97C503.99 662.316 507.303 666.65 511.39 666.65Z" fill="#3F3D56"/>
<path d="M483.7 575.98C482.691 574.71 481.769 573.374 480.94 571.98L500.38 568.78L479.38 568.94C477.366 564.553 476.267 559.801 476.15 554.975C476.034 550.149 476.901 545.35 478.7 540.87L506.9 555.45L480.9 536.33C483.335 532.117 486.612 528.451 490.526 525.561C494.44 522.67 498.908 520.617 503.65 519.528C508.393 518.44 513.309 518.34 518.092 519.235C522.875 520.131 527.422 522.001 531.45 524.731C535.478 527.461 538.901 530.991 541.504 535.101C544.108 539.212 545.838 543.815 546.584 548.623C547.331 553.431 547.08 558.342 545.845 563.048C544.611 567.755 542.42 572.157 539.41 575.98C540.97 577.984 542.311 580.15 543.41 582.44L518.2 595.55L545.1 586.55C546.989 592.133 547.456 598.099 546.459 603.908C545.462 609.717 543.033 615.186 539.39 619.82C543.502 625.046 546.059 631.323 546.771 637.934C547.483 644.546 546.32 651.224 543.416 657.205C540.511 663.186 535.982 668.23 530.346 671.758C524.71 675.286 518.194 677.158 511.545 677.158C504.896 677.158 498.38 675.286 492.744 671.758C487.108 668.23 482.579 663.186 479.674 657.205C476.77 651.224 475.607 644.546 476.319 637.934C477.031 631.323 479.588 625.046 483.7 619.82C478.789 613.574 476.12 605.86 476.12 597.915C476.12 589.97 478.789 582.256 483.7 576.01V575.98Z" fill="#F44A87"/>
<path opacity="0.1" d="M546.97 597.85C546.984 605.799 544.313 613.519 539.39 619.76C543.502 624.986 546.059 631.263 546.771 637.875C547.483 644.486 546.32 651.164 543.416 657.145C540.511 663.126 535.982 668.17 530.346 671.698C524.71 675.226 518.194 677.098 511.545 677.098C504.896 677.098 498.38 675.226 492.744 671.698C487.108 668.17 482.579 663.126 479.674 657.145C476.77 651.164 475.607 644.486 476.319 637.875C477.031 631.263 479.588 624.986 483.7 619.76C478.95 613.76 546.97 593.91 546.97 597.85Z" fill="black"/>
<path opacity="0.1" d="M82.5099 728.896C90.3165 721.09 81.2812 699.397 62.329 680.445C43.3769 661.493 21.6847 652.458 13.8781 660.264C6.07152 668.071 15.1068 689.763 34.0589 708.715C53.0111 727.667 74.7033 736.703 82.5099 728.896Z" fill="#6C63FF"/>
<path d="M51.63 697.75C57.556 697.75 62.36 691.459 62.36 683.7C62.36 675.94 57.556 669.65 51.63 669.65C45.704 669.65 40.9 675.94 40.9 683.7C40.9 691.459 45.704 697.75 51.63 697.75Z" fill="#3F3D56"/>
<path d="M51.63 680.58C57.556 680.58 62.36 674.29 62.36 666.53C62.36 658.77 57.556 652.48 51.63 652.48C45.704 652.48 40.9 658.77 40.9 666.53C40.9 674.29 45.704 680.58 51.63 680.58Z" fill="#3F3D56"/>
<path d="M51.63 663.41C57.556 663.41 62.36 657.12 62.36 649.36C62.36 641.6 57.556 635.31 51.63 635.31C45.704 635.31 40.9 641.6 40.9 649.36C40.9 657.12 45.704 663.41 51.63 663.41Z" fill="#3F3D56"/>
<path d="M51.63 646.24C57.556 646.24 62.36 639.95 62.36 632.19C62.36 624.431 57.556 618.14 51.63 618.14C45.704 618.14 40.9 624.431 40.9 632.19C40.9 639.95 45.704 646.24 51.63 646.24Z" fill="#3F3D56"/>
<path d="M51.63 629.07C57.556 629.07 62.36 622.78 62.36 615.02C62.36 607.26 57.556 600.97 51.63 600.97C45.704 600.97 40.9 607.26 40.9 615.02C40.9 622.78 45.704 629.07 51.63 629.07Z" fill="#3F3D56"/>
<path d="M51.63 611.9C57.556 611.9 62.36 605.61 62.36 597.85C62.36 590.09 57.556 583.8 51.63 583.8C45.704 583.8 40.9 590.09 40.9 597.85C40.9 605.61 45.704 611.9 51.63 611.9Z" fill="#3F3D56"/>
<path d="M51.63 594.73C57.556 594.73 62.36 588.439 62.36 580.68C62.36 572.92 57.556 566.63 51.63 566.63C45.704 566.63 40.9 572.92 40.9 580.68C40.9 588.439 45.704 594.73 51.63 594.73Z" fill="#3F3D56"/>
<path d="M91.7999 463.18C93.2681 461.315 94.6047 459.351 95.7999 457.3L67.6 452.67L98.1 452.89C101.026 446.525 102.623 439.631 102.795 432.628C102.967 425.625 101.71 418.661 99.1 412.16L58.19 433.39L95.9 405.65C92.3676 399.535 87.6135 394.214 81.934 390.018C76.2545 385.822 69.7714 382.841 62.889 381.26C56.0066 379.68 48.8724 379.535 41.9313 380.833C34.9902 382.132 28.391 384.846 22.5452 388.807C16.6994 392.768 11.7323 397.892 7.95368 403.857C4.17507 409.822 1.66591 416.502 0.582698 423.48C-0.500517 430.458 -0.134567 437.585 1.65771 444.415C3.44999 451.245 6.63017 457.633 11 463.18C8.71402 466.083 6.74923 469.224 5.13996 472.55L41.74 491.55L2.73995 478.45C0.0015316 486.551 -0.674532 495.207 0.772899 503.635C2.22033 512.063 5.74561 519.997 11.03 526.72C5.06644 534.302 1.35669 543.409 0.32487 552.999C-0.706951 562.59 0.98079 572.277 5.19514 580.954C9.40949 589.631 15.9803 596.946 24.1565 602.065C32.3326 607.183 41.7839 609.897 51.43 609.897C61.076 609.897 70.5273 607.183 78.7035 602.065C86.8796 596.946 93.4504 589.631 97.6648 580.954C101.879 572.277 103.567 562.59 102.535 552.999C101.503 543.409 97.7935 534.302 91.8299 526.72C98.9555 517.659 102.829 506.467 102.829 494.94C102.829 483.413 98.9555 472.221 91.8299 463.16L91.7999 463.18Z" fill="#FFB930"/>
<path opacity="0.1" d="M-5.01598e-05 494.96C-0.0193751 506.49 3.85682 517.689 10.9999 526.74C5.03643 534.322 1.32668 543.429 0.294856 553.019C-0.736965 562.61 0.950777 572.297 5.16513 580.974C9.37948 589.651 15.9503 596.967 24.1264 602.085C32.3026 607.203 41.7539 609.917 51.3999 609.917C61.046 609.917 70.4973 607.203 78.6734 602.085C86.8495 596.967 93.4204 589.651 97.6348 580.974C101.849 572.297 103.537 562.61 102.505 553.019C101.473 543.429 97.7635 534.322 91.7999 526.74C98.6899 518 -5.01598e-05 489.19 -5.01598e-05 494.96Z" fill="black"/>
</g>
<defs>
<clipPath id="clip0">
<rect width="923.8" height="753.71" fill="white"/>
</clipPath>
</defs>
</svg>
