<svg width="857" height="768" viewBox="0 0 857 768" fill="none" xmlns="http://www.w3.org/2000/svg">
<path d="M0.98258 668.079C5.63519 722.658 25.3419 767.813 25.3419 767.813L856.827 768L857 -1.90735e-05L584.955 0.791294C584.955 0.791294 478.186 -11.4559 368.726 75.0964C365.306 77.7976 361.954 80.5728 358.67 83.4219C343.274 96.732 329.28 111.581 316.907 127.737C283.489 171.529 262.371 223.443 255.735 278.118C250.455 320.958 237.079 375.405 204.509 420.523C203.392 422.066 202.254 423.6 201.097 425.125C178.636 454.596 147.58 479.666 104.714 494.215C64.1689 507.981 38.2557 530.299 22.362 556.421C1.48609 590.69 -2.1475 631.502 0.98258 668.079Z" fill="#F44A87"/>
<path opacity="0.4" d="M711.584 556.012V147.014H856.414V556.012H711.584Z" fill="#8F244B" stroke="#212121"/>
<path opacity="0.4" d="M541.728 237.367V556.012H373.873V237.367H541.728Z" fill="#8F244B" stroke="#212121"/>
<path opacity="0.4" d="M256.208 278.218L256.208 278.217C262.811 223.71 283.829 171.949 317.097 128.262H372.873V556.012H205.017V420.735C237.579 375.539 250.937 321.058 256.208 278.218Z" fill="#8F244B" stroke="#212121"/>
<path opacity="0.4" d="M710.584 60.0709L710.584 556.012H542.728V60.0709H710.584Z" fill="#8F244B" stroke="#212121"/>
<path opacity="0.4" d="M1.04647 668.175H856.914V556.512H22.4008C1.53257 590.786 -2.09185 631.599 1.04647 668.175Z" fill="white"/>
<g opacity="0.5">
<path opacity="0.5" d="M151.132 491.568C151.33 505.575 163.153 516.652 177.169 516.652H179.12C180.843 516.645 182.5 517.314 183.736 518.515C184.674 519.393 185.327 520.533 185.611 521.786C185.741 522.291 185.807 522.812 185.806 523.334V548.062C185.799 552.816 187.16 557.472 189.727 561.473C193.46 567.144 195.484 573.768 195.558 580.555C195.559 582.139 195.876 583.706 196.49 585.166C197.103 586.626 198.002 587.949 199.133 589.058C200.263 590.167 201.604 591.04 203.076 591.626C204.548 592.212 206.122 592.498 207.706 592.469C214.262 592.35 219.399 586.718 219.399 580.165V573.981L222.649 574.36V580.555C222.65 582.139 222.967 583.706 223.581 585.166C224.194 586.626 225.093 587.949 226.224 589.058C227.354 590.167 228.695 591.04 230.167 591.626C231.639 592.212 233.213 592.498 234.797 592.469C241.353 592.35 246.49 586.718 246.49 580.165V577.035C249.74 578.389 268.162 578.389 273.277 577.078L274.664 576.97V580.555C274.665 582.139 274.982 583.706 275.595 585.166C276.209 586.626 277.108 587.949 278.238 589.058C279.369 590.167 280.71 591.04 282.182 591.626C283.654 592.212 285.228 592.498 286.812 592.469C293.368 592.35 298.504 586.718 298.504 580.165V575.02L299.588 574.923V580.555C299.588 581.552 299.712 582.545 299.956 583.512C300.626 586.112 302.153 588.41 304.29 590.035C306.427 591.66 309.05 592.518 311.736 592.469C314.616 592.362 317.364 591.233 319.487 589.283C321.61 587.334 322.969 584.693 323.32 581.833C323.389 581.28 323.425 580.723 323.428 580.165V554.29C323.438 545.404 320.462 536.772 314.976 529.779C314.024 528.542 313.491 527.035 313.454 525.475C313.417 523.915 313.878 522.384 314.77 521.103C320.838 512.222 329.811 497.232 329.518 486.606C329.577 483.724 328.566 480.923 326.679 478.743C326.56 478.613 326.441 478.483 326.321 478.364C317.587 469.222 302.21 476.414 303.543 488.978C303.994 493.188 303.681 497.444 302.622 501.542C302.021 503.859 301.205 506.114 300.184 508.279C299.165 510.453 297.488 512.251 295.389 513.418C293.29 514.584 290.876 515.06 288.491 514.778C286.87 514.582 285.238 514.484 283.604 514.486H233.486C230.546 514.485 227.679 513.564 225.289 511.853C222.899 510.142 221.104 507.726 220.157 504.943C219.649 503.484 219.393 501.95 219.399 500.405V461.413C219.399 460.397 219.195 459.392 218.799 458.456C218.403 457.52 217.823 456.674 217.093 455.966C216.363 455.259 215.498 454.706 214.551 454.339C213.603 453.972 212.591 453.8 211.575 453.831C210.583 453.865 209.609 454.098 208.709 454.517C207.81 454.936 207.004 455.532 206.341 456.268C204.984 457.764 204.231 459.711 204.228 461.73C204.228 462.257 204.124 462.78 203.921 463.267C203.719 463.755 203.423 464.197 203.05 464.57C202.676 464.943 202.233 465.239 201.746 465.441C201.258 465.642 200.735 465.746 200.207 465.746H176.595C173.219 465.744 169.877 466.414 166.763 467.716C163.648 469.017 160.824 470.925 158.455 473.328C156.085 475.731 154.217 478.582 152.96 481.713C151.703 484.844 151.081 488.194 151.132 491.568Z" fill="url(#paint0_linear)"/>
<path opacity="0.5" d="M299.956 583.512C300.626 586.112 302.153 588.41 304.29 590.035C306.427 591.66 309.05 592.518 311.736 592.469C314.616 592.362 317.364 591.233 319.487 589.283C321.61 587.334 322.969 584.693 323.32 581.833C316.103 579.884 306.101 578.541 299.956 583.512Z" fill="url(#paint1_linear)"/>
<path opacity="0.5" d="M275.033 583.512C275.702 586.112 277.229 588.41 279.366 590.035C281.503 591.66 284.127 592.518 286.812 592.469C289.692 592.362 292.441 591.233 294.563 589.284C296.686 587.334 298.045 584.693 298.396 581.833C291.179 579.884 281.177 578.541 275.033 583.512Z" fill="url(#paint2_linear)"/>
<path opacity="0.5" d="M223.018 583.512C223.687 586.112 225.214 588.41 227.351 590.035C229.489 591.66 232.112 592.518 234.797 592.469C237.678 592.362 240.426 591.233 242.549 589.284C244.672 587.334 246.03 584.693 246.381 581.833C239.164 579.884 229.162 578.541 223.018 583.512Z" fill="url(#paint3_linear)"/>
<path opacity="0.5" d="M195.927 583.512C196.596 586.112 198.123 588.41 200.26 590.035C202.398 591.66 205.021 592.518 207.706 592.469C210.587 592.362 213.335 591.233 215.458 589.284C217.581 587.334 218.939 584.693 219.29 581.833C212.073 579.884 202.071 578.541 195.927 583.512Z" fill="url(#paint4_linear)"/>
<path opacity="0.5" d="M302.622 501.542C311.042 498.163 321.315 491.979 329.518 486.606C329.577 483.725 328.566 480.923 326.679 478.743C326.56 478.613 326.441 478.483 326.321 478.364C317.587 469.222 302.21 476.414 303.543 488.978C303.993 493.188 303.681 497.444 302.622 501.542Z" fill="url(#paint5_linear)"/>
<path opacity="0.5" d="M292.43 514.558C292.43 514.558 269.246 543.73 231.319 514.486L292.43 514.558Z" fill="url(#paint6_linear)"/>
<path opacity="0.5" d="M219.398 460.33C219.398 460.33 205.311 478.743 219.398 501.488V460.33Z" fill="url(#paint7_linear)"/>
<path opacity="0.5" d="M185.806 523.15C185.806 523.15 198.212 538.559 185.961 550.804L185.806 523.15Z" fill="url(#paint8_linear)"/>
<g opacity="0.1">
<path opacity="0.1" d="M184.722 519.901C185.643 520.768 185.329 521.602 185.611 522.869L225.9 512.319C223.733 510.651 221.046 508.669 220.157 506.027C215.324 509.774 205.777 516.056 184.722 519.901Z" fill="url(#paint9_linear)"/>
</g>
<path opacity="0.5" d="M183.736 518.515C184.674 519.393 185.327 520.533 185.611 521.786L224.882 511.55C222.688 509.864 221.043 507.564 220.157 504.943C215.324 508.691 204.791 514.67 183.736 518.515Z" fill="url(#paint10_linear)"/>
<path opacity="0.1" d="M218.68 507.11C218.68 507.11 206.395 516.345 185.806 519.206L218.68 507.11Z" fill="url(#paint11_linear)"/>
<path opacity="0.5" d="M218.68 506.027C218.68 506.027 206.395 515.262 185.806 518.123L218.68 506.027Z" fill="url(#paint12_linear)"/>
<g opacity="0.1">
<path opacity="0.1" d="M187.973 506.904C187.973 506.904 167.384 513.402 161.966 492.823L187.973 506.904Z" fill="url(#paint13_linear)"/>
</g>
<path opacity="0.5" d="M187.973 505.821C187.973 505.821 167.384 512.319 161.966 491.74L187.973 505.821Z" fill="url(#paint14_linear)"/>
<path opacity="0.5" d="M151.129 492.823C152.326 492.823 153.296 491.126 153.296 489.033C153.296 486.939 152.326 485.242 151.129 485.242C149.932 485.242 148.962 486.939 148.962 489.033C148.962 491.126 149.932 492.823 151.129 492.823Z" fill="url(#paint15_linear)"/>
<path opacity="0.1" d="M315.301 567.016L310.966 532.357C310.966 532.357 323.97 552.936 315.301 567.016Z" fill="url(#paint16_linear)"/>
<path opacity="0.5" d="M309.883 532.357C309.883 532.357 322.886 552.936 314.217 567.016L309.883 532.357Z" fill="url(#paint17_linear)"/>
</g>
<path d="M155.168 493.015C155.358 506.38 166.639 516.949 180.013 516.949H181.874C183.518 516.943 185.1 517.581 186.279 518.727C187.174 519.565 187.797 520.652 188.068 521.848C188.192 522.331 188.255 522.828 188.254 523.326V546.921C188.247 551.457 189.546 555.899 191.996 559.718C195.557 565.129 197.488 571.449 197.56 577.925C197.561 579.436 197.863 580.932 198.448 582.325C199.034 583.718 199.891 584.981 200.97 586.039C202.049 587.097 203.328 587.93 204.733 588.489C206.137 589.048 207.639 589.321 209.151 589.294C215.406 589.18 220.308 583.806 220.308 577.553V571.652L223.41 572.014V577.925C223.411 579.436 223.713 580.932 224.298 582.325C224.884 583.718 225.741 584.981 226.82 586.039C227.899 587.097 229.178 587.93 230.583 588.489C231.987 589.048 233.489 589.321 235.001 589.294C241.256 589.18 246.158 583.806 246.158 577.553V574.566C249.26 575.858 266.837 575.858 271.718 574.608L273.041 574.504V577.925C273.042 579.436 273.344 580.932 273.93 582.325C274.516 583.718 275.373 584.981 276.452 586.039C277.531 587.097 278.81 587.93 280.215 588.489C281.619 589.048 283.121 589.321 284.633 589.294C290.888 589.18 295.789 583.806 295.789 577.553V572.644L296.823 572.551V577.925C296.824 578.877 296.942 579.824 297.175 580.747C297.814 583.227 299.271 585.42 301.31 586.971C303.349 588.522 305.852 589.34 308.415 589.294C311.163 589.191 313.785 588.114 315.811 586.254C317.837 584.394 319.133 581.874 319.468 579.145C319.534 578.617 319.568 578.085 319.571 577.553V552.863C319.581 544.384 316.741 536.148 311.506 529.475C310.598 528.295 310.09 526.857 310.054 525.368C310.019 523.88 310.459 522.419 311.31 521.197C317.1 512.722 325.662 498.419 325.382 488.28C325.439 485.531 324.474 482.857 322.673 480.777C322.56 480.653 322.446 480.529 322.332 480.416C313.998 471.693 299.326 478.555 300.597 490.544C301.027 494.56 300.729 498.621 299.719 502.532C299.145 504.743 298.366 506.895 297.392 508.961C296.42 511.035 294.819 512.75 292.817 513.864C290.814 514.977 288.511 515.431 286.235 515.161C284.688 514.974 283.131 514.881 281.572 514.882H233.75C230.944 514.882 228.209 514.003 225.928 512.371C223.647 510.738 221.935 508.432 221.031 505.777C220.547 504.385 220.302 502.921 220.308 501.447V464.241C220.308 463.272 220.113 462.312 219.735 461.42C219.357 460.527 218.804 459.719 218.107 459.044C217.411 458.369 216.586 457.841 215.682 457.491C214.777 457.141 213.812 456.977 212.842 457.007C211.896 457.039 210.966 457.262 210.108 457.661C209.25 458.061 208.481 458.629 207.848 459.332C206.553 460.76 205.835 462.617 205.832 464.544C205.832 465.047 205.732 465.546 205.54 466.011C205.347 466.476 205.064 466.898 204.708 467.254C204.352 467.61 203.929 467.892 203.463 468.085C202.998 468.277 202.499 468.376 201.995 468.376H179.465C176.244 468.374 173.055 469.013 170.083 470.255C167.111 471.497 164.417 473.318 162.156 475.611C159.894 477.904 158.112 480.623 156.913 483.611C155.713 486.599 155.12 489.795 155.168 493.015H155.168Z" fill="#FFB930"/>
<path d="M297.175 580.747C297.814 583.227 299.271 585.42 301.31 586.971C303.349 588.522 305.852 589.34 308.415 589.294C311.163 589.191 313.785 588.114 315.811 586.254C317.837 584.394 319.133 581.874 319.468 579.145C312.582 577.285 303.038 576.003 297.175 580.747Z" fill="#F8DEA5"/>
<path d="M273.393 580.747C274.032 583.227 275.489 585.42 277.528 586.971C279.567 588.522 282.07 589.34 284.633 589.294C287.381 589.191 290.004 588.114 292.029 586.254C294.055 584.394 295.351 581.874 295.686 579.145C288.8 577.285 279.256 576.003 273.393 580.747Z" fill="#F8DEA5"/>
<path d="M223.761 580.747C224.4 583.227 225.857 585.42 227.896 586.971C229.936 588.522 232.439 589.34 235.001 589.294C237.749 589.191 240.372 588.114 242.397 586.254C244.423 584.394 245.719 581.874 246.054 579.145C239.168 577.285 229.624 576.003 223.761 580.747Z" fill="#F8DEA5"/>
<path d="M197.911 580.747C198.55 583.227 200.007 585.42 202.046 586.971C204.086 588.522 206.589 589.34 209.151 589.294C211.899 589.191 214.522 588.114 216.547 586.254C218.573 584.394 219.869 581.874 220.204 579.145C213.318 577.285 203.774 576.003 197.911 580.747Z" fill="#F8DEA5"/>
<path d="M299.719 502.532C307.753 499.308 317.555 493.407 325.382 488.28C325.439 485.531 324.474 482.857 322.673 480.777C322.56 480.653 322.446 480.529 322.332 480.416C313.998 471.693 299.326 478.555 300.598 490.544C301.027 494.56 300.729 498.621 299.719 502.532Z" fill="#F8DEA5"/>
<path d="M289.994 514.952C289.994 514.952 267.871 542.787 231.682 514.883L289.994 514.952Z" fill="#F8DEA5"/>
<path d="M220.308 463.208C220.308 463.208 206.866 480.777 220.308 502.481V463.208Z" fill="#F8DEA5"/>
<path d="M188.254 523.15C188.254 523.15 200.092 537.853 188.402 549.537L188.254 523.15Z" fill="#F8DEA5"/>
<path opacity="0.1" d="M187.22 520.05C188.099 520.877 187.799 521.673 188.068 522.882L226.512 512.816C224.444 511.224 221.879 509.333 221.031 506.811C216.42 510.387 207.31 516.381 187.22 520.05Z" fill="black"/>
<path d="M186.279 518.727C187.174 519.565 187.797 520.652 188.068 521.848L225.54 512.082C223.446 510.472 221.877 508.278 221.031 505.777C216.42 509.353 206.369 515.058 186.279 518.727Z" fill="#383F4D"/>
<path opacity="0.1" d="M219.622 507.844C219.622 507.844 207.9 516.657 188.254 519.387L219.622 507.844Z" fill="black"/>
<path d="M219.622 506.811C219.622 506.811 207.9 515.624 188.254 518.354L219.622 506.811Z" fill="#F1D087"/>
<path opacity="0.1" d="M184.352 511.058C184.352 511.058 164.706 517.258 159.536 497.622L184.352 511.058Z" fill="black"/>
<path d="M184.352 510.024C184.352 510.024 164.706 516.225 159.536 496.589L184.352 510.024Z" fill="#F1D087"/>
<path d="M155.166 494.213C156.308 494.213 157.234 492.593 157.234 490.596C157.234 488.598 156.308 486.978 155.166 486.978C154.024 486.978 153.098 488.598 153.098 490.596C153.098 492.593 154.024 494.213 155.166 494.213Z" fill="#383F4D"/>
<path opacity="0.1" d="M311.816 565.007L307.68 531.935C307.68 531.935 320.088 551.571 311.816 565.007Z" fill="black"/>
<path d="M306.646 531.935C306.646 531.935 319.054 551.571 310.782 565.007L306.646 531.935Z" fill="#F1D087"/>
<path opacity="0.1" d="M220.308 513.616C220.308 513.616 281.044 547.906 326.304 530.195C343.812 523.344 356.42 507.91 360.581 489.583C362.923 479.347 367.018 469.593 372.687 460.752C389.085 435.195 417.894 420.412 448.267 420.84C479.746 421.284 538.827 417.009 556.152 380.473" stroke="#383F4D" stroke-width="2" stroke-miterlimit="10"/>
<path d="M220.308 512.582C220.308 512.582 281.044 546.872 326.304 529.161C343.812 522.31 356.42 506.876 360.581 488.55C362.923 478.313 367.018 468.559 372.687 459.719C389.085 434.162 417.894 419.379 448.267 419.807C479.746 420.25 538.827 415.976 556.152 379.439" stroke="#383F4D" stroke-width="2" stroke-miterlimit="10"/>
<path d="M567.282 356.321C567.282 356.321 540.578 387.448 546.191 389.48C551.803 391.513 578.007 369.272 576.323 361.408L567.282 356.321Z" fill="#F0C4B0"/>
<path d="M724.456 385.168C724.456 385.168 738.954 423.525 732.984 423.525C727.014 423.525 709.958 393.691 714.222 386.872L724.456 385.168Z" fill="#F0C4B0"/>
<path d="M751.99 619.1C762.074 604.894 766.512 590.728 761.902 587.459C757.293 584.19 745.381 593.056 735.298 607.262C725.214 621.468 720.776 635.634 725.385 638.903C729.995 642.172 741.906 633.305 751.99 619.1Z" fill="#212121"/>
<path d="M644.546 636.301C657.793 624.983 665.554 612.328 661.882 608.034C658.209 603.739 644.494 609.433 631.247 620.751C618 632.068 610.239 644.724 613.911 649.018C617.584 653.312 631.299 647.619 644.546 636.301Z" fill="#212121"/>
<path d="M733.476 152.994C731.082 149.611 728.138 146.654 725.612 143.368C719.788 135.792 717.773 125.698 709.957 119.888C702.224 114.14 689.952 108.482 680.274 108.935C667.52 109.532 657.403 119.422 648.611 128.676C641.892 135.748 635.173 142.819 628.454 149.891C623.593 155.007 618.553 160.438 616.801 167.273C615.118 173.841 616.761 180.898 619.843 186.938C623.046 193.065 627.539 198.426 633.013 202.652C639.761 193.366 649.213 180.544 649.213 180.544L651.414 212.438C662.845 216.224 675.124 216.969 687.171 216.132L690.739 203.055L694.484 215.407C708.879 213.5 723.342 208.532 732.253 197.304C742.105 184.89 742.628 165.932 733.476 152.994Z" fill="#212121"/>
<path d="M678.404 181.447C693.005 181.447 704.841 169.617 704.841 155.023C704.841 140.43 693.005 128.599 678.404 128.599C663.804 128.599 651.967 140.43 651.967 155.023C651.967 169.617 663.804 181.447 678.404 181.447Z" fill="#F0C4B0"/>
<path d="M661.348 167.809C661.348 167.809 663.054 188.266 651.967 189.971C640.881 191.676 628.942 189.971 628.942 196.79C628.942 203.609 637.47 265.833 637.47 265.833L658.79 264.129L688.638 235.148L704.841 203.609C704.841 203.609 685.227 195.085 693.755 169.514L661.348 167.809Z" fill="#F0C4B0"/>
<path d="M648.556 253.9L640.028 230.886L641.734 199.347C641.734 199.347 660.459 196.79 660.051 181.447L645.998 187.414L613.591 192.528V222.362C613.591 222.362 602.505 240.262 615.297 258.162L621.266 295.667L682.668 291.405L702.283 265.833L727.014 217.247L701.43 198.495L704.841 193.381L691.792 184.874L693.755 201.052L687.785 211.281C687.785 211.281 660.495 216.395 648.556 253.9Z" fill="#D0CDE1"/>
<path d="M618.708 194.233L613.591 192.528C613.591 192.528 603.357 196.79 603.357 210.428C603.357 224.067 562.423 358.744 562.423 358.744L581.184 363.858L606.769 301.634L622.119 249.638L618.708 194.233Z" fill="#D0CDE1"/>
<path d="M720.192 217.247H727.014C727.014 217.247 731.278 213.838 730.425 238.557C729.573 263.276 732.984 393.691 732.984 393.691L708.252 391.987L702.283 251.343L720.192 217.247Z" fill="#D0CDE1"/>
<path d="M687.597 284.979C687.597 284.979 629.794 274.357 617.002 284.586C618.188 286.019 618.796 287.843 618.708 289.7C618.708 293.11 620.414 288.848 618.708 293.11C617.002 297.372 613.591 293.962 617.002 297.372C620.414 300.781 621.266 299.929 619.561 302.486C617.855 305.043 619.561 309.305 619.561 309.305C619.561 309.305 610.18 353.629 618.708 385.168C627.236 416.706 698.019 639.179 716.781 633.212C735.542 627.245 782.447 599.969 779.888 590.593C777.33 581.216 691.196 451.654 691.196 451.654C691.196 451.654 727.014 339.991 684.374 304.191C684.374 304.191 686.932 300.781 686.08 298.224C685.227 295.667 684.374 298.224 685.227 295.667C686.08 293.11 690.344 293.11 687.785 290.553C685.227 287.996 687.597 284.979 687.597 284.979Z" fill="#123282"/>
<path d="M648.556 376.644C648.556 376.644 590.565 635.769 602.505 640.031C614.444 644.293 660.495 645.145 663.907 640.031C667.318 634.917 691.196 451.654 691.196 451.654L648.556 376.644Z" fill="#123282"/>
<path d="M649.835 135.845C649.835 135.845 671.155 161.416 713.796 146.926L701.856 125.616L673.714 117.092L649.835 135.845Z" fill="#212121"/>
<path d="M671.571 710.288C669.859 710.288 668.307 709.92 666.915 709.184C665.539 708.432 664.451 707.4 663.651 706.088C662.867 704.76 662.475 703.264 662.475 701.6C662.475 699.936 662.867 698.448 663.651 697.136C664.451 695.808 665.539 694.776 666.915 694.04C668.307 693.288 669.867 692.912 671.595 692.912C673.051 692.912 674.363 693.168 675.531 693.68C676.715 694.192 677.707 694.928 678.507 695.888L676.011 698.192C674.875 696.88 673.467 696.224 671.787 696.224C670.747 696.224 669.819 696.456 669.003 696.92C668.187 697.368 667.547 698 667.083 698.816C666.635 699.632 666.411 700.56 666.411 701.6C666.411 702.64 666.635 703.568 667.083 704.384C667.547 705.2 668.187 705.84 669.003 706.304C669.819 706.752 670.747 706.976 671.787 706.976C673.467 706.976 674.875 706.312 676.011 704.984L678.507 707.288C677.707 708.264 676.715 709.008 675.531 709.52C674.347 710.032 673.027 710.288 671.571 710.288ZM688.717 696.896C690.317 696.896 691.605 697.376 692.581 698.336C693.573 699.296 694.069 700.72 694.069 702.608V710H690.325V703.184C690.325 702.16 690.101 701.4 689.653 700.904C689.205 700.392 688.557 700.136 687.709 700.136C686.765 700.136 686.013 700.432 685.453 701.024C684.893 701.6 684.613 702.464 684.613 703.616V710H680.869V692.192H684.613V698.432C685.109 697.936 685.709 697.56 686.413 697.304C687.117 697.032 687.885 696.896 688.717 696.896ZM702.67 696.896C704.67 696.896 706.206 697.376 707.278 698.336C708.35 699.28 708.886 700.712 708.886 702.632V710H705.382V708.392C704.678 709.592 703.366 710.192 701.446 710.192C700.454 710.192 699.59 710.024 698.854 709.688C698.134 709.352 697.582 708.888 697.198 708.296C696.814 707.704 696.622 707.032 696.622 706.28C696.622 705.08 697.07 704.136 697.966 703.448C698.878 702.76 700.278 702.416 702.166 702.416H705.142C705.142 701.6 704.894 700.976 704.398 700.544C703.902 700.096 703.158 699.872 702.166 699.872C701.478 699.872 700.798 699.984 700.126 700.208C699.47 700.416 698.91 700.704 698.446 701.072L697.102 698.456C697.806 697.96 698.646 697.576 699.622 697.304C700.614 697.032 701.63 696.896 702.67 696.896ZM702.382 707.672C703.022 707.672 703.59 707.528 704.086 707.24C704.582 706.936 704.934 706.496 705.142 705.92V704.6H702.574C701.038 704.6 700.27 705.104 700.27 706.112C700.27 706.592 700.454 706.976 700.822 707.264C701.206 707.536 701.726 707.672 702.382 707.672ZM719.907 696.896C721.107 696.896 722.195 697.176 723.171 697.736C724.163 698.28 724.939 699.056 725.499 700.064C726.059 701.056 726.339 702.216 726.339 703.544C726.339 704.872 726.059 706.04 725.499 707.048C724.939 708.04 724.163 708.816 723.171 709.376C722.195 709.92 721.107 710.192 719.907 710.192C718.259 710.192 716.963 709.672 716.019 708.632V714.656H712.275V697.088H715.851V698.576C716.779 697.456 718.131 696.896 719.907 696.896ZM719.259 707.12C720.219 707.12 721.003 706.8 721.611 706.16C722.235 705.504 722.547 704.632 722.547 703.544C722.547 702.456 722.235 701.592 721.611 700.952C721.003 700.296 720.219 699.968 719.259 699.968C718.299 699.968 717.507 700.296 716.883 700.952C716.275 701.592 715.971 702.456 715.971 703.544C715.971 704.632 716.275 705.504 716.883 706.16C717.507 706.8 718.299 707.12 719.259 707.12ZM741.493 703.592C741.493 703.64 741.469 703.976 741.421 704.6H731.653C731.829 705.4 732.245 706.032 732.901 706.496C733.557 706.96 734.373 707.192 735.349 707.192C736.021 707.192 736.613 707.096 737.125 706.904C737.653 706.696 738.141 706.376 738.589 705.944L740.581 708.104C739.365 709.496 737.589 710.192 735.253 710.192C733.797 710.192 732.509 709.912 731.389 709.352C730.269 708.776 729.405 707.984 728.797 706.976C728.189 705.968 727.885 704.824 727.885 703.544C727.885 702.28 728.181 701.144 728.773 700.136C729.381 699.112 730.205 698.32 731.245 697.76C732.301 697.184 733.477 696.896 734.773 696.896C736.037 696.896 737.181 697.168 738.205 697.712C739.229 698.256 740.029 699.04 740.605 700.064C741.197 701.072 741.493 702.248 741.493 703.592ZM734.797 699.728C733.949 699.728 733.237 699.968 732.661 700.448C732.085 700.928 731.733 701.584 731.605 702.416H737.965C737.837 701.6 737.485 700.952 736.909 700.472C736.333 699.976 735.629 699.728 734.797 699.728ZM750.226 710.192C748.85 710.192 747.61 709.912 746.506 709.352C745.418 708.776 744.562 707.984 743.938 706.976C743.33 705.968 743.026 704.824 743.026 703.544C743.026 702.264 743.33 701.12 743.938 700.112C744.562 699.104 745.418 698.32 746.506 697.76C747.61 697.184 748.85 696.896 750.226 696.896C751.586 696.896 752.77 697.184 753.778 697.76C754.802 698.32 755.546 699.128 756.01 700.184L753.106 701.744C752.434 700.56 751.466 699.968 750.202 699.968C749.226 699.968 748.418 700.288 747.778 700.928C747.138 701.568 746.818 702.44 746.818 703.544C746.818 704.648 747.138 705.52 747.778 706.16C748.418 706.8 749.226 707.12 750.202 707.12C751.482 707.12 752.45 706.528 753.106 705.344L756.01 706.928C755.546 707.952 754.802 708.752 753.778 709.328C752.77 709.904 751.586 710.192 750.226 710.192ZM764.145 710.192C762.785 710.192 761.561 709.912 760.473 709.352C759.401 708.776 758.561 707.984 757.953 706.976C757.345 705.968 757.041 704.824 757.041 703.544C757.041 702.264 757.345 701.12 757.953 700.112C758.561 699.104 759.401 698.32 760.473 697.76C761.561 697.184 762.785 696.896 764.145 696.896C765.505 696.896 766.721 697.184 767.793 697.76C768.865 698.32 769.705 699.104 770.313 700.112C770.921 701.12 771.225 702.264 771.225 703.544C771.225 704.824 770.921 705.968 770.313 706.976C769.705 707.984 768.865 708.776 767.793 709.352C766.721 709.912 765.505 710.192 764.145 710.192ZM764.145 707.12C765.105 707.12 765.889 706.8 766.497 706.16C767.121 705.504 767.433 704.632 767.433 703.544C767.433 702.456 767.121 701.592 766.497 700.952C765.889 700.296 765.105 699.968 764.145 699.968C763.185 699.968 762.393 700.296 761.769 700.952C761.145 701.592 760.833 702.456 760.833 703.544C760.833 704.632 761.145 705.504 761.769 706.16C762.393 706.8 763.185 707.12 764.145 707.12ZM765.153 691.976H769.185L764.841 695.432H761.913L765.153 691.976ZM600.236 739.192C598.972 739.192 597.748 739 596.564 738.616C595.396 738.216 594.476 737.704 593.804 737.08L594.692 735.208C595.332 735.784 596.148 736.256 597.14 736.624C598.148 736.976 599.18 737.152 600.236 737.152C601.628 737.152 602.668 736.92 603.356 736.456C604.044 735.976 604.388 735.344 604.388 734.56C604.388 733.984 604.196 733.52 603.812 733.168C603.444 732.8 602.98 732.52 602.42 732.328C601.876 732.136 601.1 731.92 600.092 731.68C598.828 731.376 597.804 731.072 597.02 730.768C596.252 730.464 595.588 730 595.028 729.376C594.484 728.736 594.212 727.88 594.212 726.808C594.212 725.912 594.444 725.104 594.908 724.384C595.388 723.664 596.108 723.088 597.068 722.656C598.028 722.224 599.22 722.008 600.644 722.008C601.636 722.008 602.612 722.136 603.572 722.392C604.532 722.648 605.356 723.016 606.044 723.496L605.252 725.416C604.548 724.968 603.796 724.632 602.996 724.408C602.196 724.168 601.412 724.048 600.644 724.048C599.284 724.048 598.26 724.296 597.572 724.792C596.9 725.288 596.564 725.928 596.564 726.712C596.564 727.288 596.756 727.76 597.14 728.128C597.524 728.48 597.996 728.76 598.556 728.968C599.132 729.16 599.908 729.368 600.884 729.592C602.148 729.896 603.164 730.2 603.932 730.504C604.7 730.808 605.356 731.272 605.9 731.896C606.46 732.52 606.74 733.36 606.74 734.416C606.74 735.296 606.5 736.104 606.02 736.84C605.54 737.56 604.812 738.136 603.836 738.568C602.86 738.984 601.66 739.192 600.236 739.192ZM614.543 726.16C616.303 726.16 617.647 726.592 618.575 727.456C619.519 728.32 619.991 729.608 619.991 731.32V739H617.807V737.32C617.423 737.912 616.871 738.368 616.151 738.688C615.447 738.992 614.607 739.144 613.631 739.144C612.207 739.144 611.063 738.8 610.199 738.112C609.351 737.424 608.927 736.52 608.927 735.4C608.927 734.28 609.335 733.384 610.151 732.712C610.967 732.024 612.263 731.68 614.039 731.68H617.687V731.224C617.687 730.232 617.399 729.472 616.823 728.944C616.247 728.416 615.399 728.152 614.279 728.152C613.527 728.152 612.791 728.28 612.071 728.536C611.351 728.776 610.743 729.104 610.247 729.52L609.287 727.792C609.943 727.264 610.727 726.864 611.639 726.592C612.551 726.304 613.519 726.16 614.543 726.16ZM614.015 737.368C614.895 737.368 615.655 737.176 616.295 736.792C616.935 736.392 617.399 735.832 617.687 735.112V733.336H614.135C612.183 733.336 611.207 733.992 611.207 735.304C611.207 735.944 611.455 736.448 611.951 736.816C612.447 737.184 613.135 737.368 614.015 737.368ZM631.046 726.16C632.662 726.16 633.942 726.632 634.886 727.576C635.846 728.504 636.326 729.872 636.326 731.68V739H634.022V731.944C634.022 730.712 633.726 729.784 633.134 729.16C632.542 728.536 631.694 728.224 630.59 728.224C629.342 728.224 628.358 728.592 627.638 729.328C626.918 730.048 626.558 731.088 626.558 732.448V739H624.254V726.28H626.462V728.2C626.926 727.544 627.55 727.04 628.334 726.688C629.134 726.336 630.038 726.16 631.046 726.16ZM647.742 738.256C647.406 738.544 646.99 738.768 646.494 738.928C645.998 739.072 645.486 739.144 644.958 739.144C643.678 739.144 642.686 738.8 641.982 738.112C641.278 737.424 640.926 736.44 640.926 735.16V728.176H638.766V726.28H640.926V723.496H643.23V726.28H646.878V728.176H643.23V735.064C643.23 735.752 643.398 736.28 643.734 736.648C644.086 737.016 644.582 737.2 645.222 737.2C645.926 737.2 646.526 737 647.022 736.6L647.742 738.256ZM655.16 726.16C656.92 726.16 658.264 726.592 659.192 727.456C660.136 728.32 660.608 729.608 660.608 731.32V739H658.424V737.32C658.04 737.912 657.488 738.368 656.768 738.688C656.064 738.992 655.224 739.144 654.248 739.144C652.824 739.144 651.68 738.8 650.816 738.112C649.968 737.424 649.544 736.52 649.544 735.4C649.544 734.28 649.952 733.384 650.768 732.712C651.584 732.024 652.88 731.68 654.656 731.68H658.304V731.224C658.304 730.232 658.016 729.472 657.44 728.944C656.864 728.416 656.016 728.152 654.896 728.152C654.144 728.152 653.408 728.28 652.688 728.536C651.968 728.776 651.36 729.104 650.864 729.52L649.904 727.792C650.56 727.264 651.344 726.864 652.256 726.592C653.168 726.304 654.136 726.16 655.16 726.16ZM654.632 737.368C655.512 737.368 656.272 737.176 656.912 736.792C657.552 736.392 658.016 735.832 658.304 735.112V733.336H654.752C652.8 733.336 651.824 733.992 651.824 735.304C651.824 735.944 652.072 736.448 652.568 736.816C653.064 737.184 653.752 737.368 654.632 737.368ZM679.165 739.192C677.485 739.192 675.965 738.824 674.605 738.088C673.261 737.336 672.205 736.312 671.437 735.016C670.669 733.704 670.285 732.232 670.285 730.6C670.285 728.968 670.669 727.504 671.437 726.208C672.205 724.896 673.269 723.872 674.629 723.136C675.989 722.384 677.509 722.008 679.189 722.008C680.501 722.008 681.701 722.232 682.789 722.68C683.877 723.112 684.805 723.76 685.573 724.624L684.013 726.136C682.749 724.808 681.173 724.144 679.285 724.144C678.037 724.144 676.909 724.424 675.901 724.984C674.893 725.544 674.101 726.32 673.525 727.312C672.965 728.288 672.685 729.384 672.685 730.6C672.685 731.816 672.965 732.92 673.525 733.912C674.101 734.888 674.893 735.656 675.901 736.216C676.909 736.776 678.037 737.056 679.285 737.056C681.157 737.056 682.733 736.384 684.013 735.04L685.573 736.552C684.805 737.416 683.869 738.072 682.765 738.52C681.677 738.968 680.477 739.192 679.165 739.192ZM693.129 726.16C694.889 726.16 696.233 726.592 697.161 727.456C698.105 728.32 698.577 729.608 698.577 731.32V739H696.393V737.32C696.009 737.912 695.457 738.368 694.737 738.688C694.033 738.992 693.193 739.144 692.217 739.144C690.793 739.144 689.649 738.8 688.785 738.112C687.937 737.424 687.513 736.52 687.513 735.4C687.513 734.28 687.921 733.384 688.737 732.712C689.553 732.024 690.849 731.68 692.625 731.68H696.273V731.224C696.273 730.232 695.985 729.472 695.409 728.944C694.833 728.416 693.985 728.152 692.865 728.152C692.113 728.152 691.377 728.28 690.657 728.536C689.937 728.776 689.329 729.104 688.833 729.52L687.873 727.792C688.529 727.264 689.313 726.864 690.225 726.592C691.137 726.304 692.105 726.16 693.129 726.16ZM692.601 737.368C693.481 737.368 694.241 737.176 694.881 736.792C695.521 736.392 695.985 735.832 696.273 735.112V733.336H692.721C690.769 733.336 689.793 733.992 689.793 735.304C689.793 735.944 690.041 736.448 690.537 736.816C691.033 737.184 691.721 737.368 692.601 737.368ZM709.992 738.256C709.656 738.544 709.24 738.768 708.744 738.928C708.248 739.072 707.736 739.144 707.208 739.144C705.928 739.144 704.936 738.8 704.232 738.112C703.528 737.424 703.176 736.44 703.176 735.16V728.176H701.016V726.28H703.176V723.496H705.48V726.28H709.128V728.176H705.48V735.064C705.48 735.752 705.648 736.28 705.984 736.648C706.336 737.016 706.832 737.2 707.472 737.2C708.176 737.2 708.776 737 709.272 736.6L709.992 738.256ZM717.41 726.16C719.17 726.16 720.514 726.592 721.442 727.456C722.386 728.32 722.858 729.608 722.858 731.32V739H720.674V737.32C720.29 737.912 719.738 738.368 719.018 738.688C718.314 738.992 717.474 739.144 716.498 739.144C715.074 739.144 713.93 738.8 713.066 738.112C712.218 737.424 711.794 736.52 711.794 735.4C711.794 734.28 712.202 733.384 713.018 732.712C713.834 732.024 715.13 731.68 716.906 731.68H720.554V731.224C720.554 730.232 720.266 729.472 719.69 728.944C719.114 728.416 718.266 728.152 717.146 728.152C716.394 728.152 715.658 728.28 714.938 728.536C714.218 728.776 713.61 729.104 713.114 729.52L712.154 727.792C712.81 727.264 713.594 726.864 714.506 726.592C715.418 726.304 716.386 726.16 717.41 726.16ZM716.882 737.368C717.762 737.368 718.522 737.176 719.162 736.792C719.802 736.392 720.266 735.832 720.554 735.112V733.336H717.002C715.05 733.336 714.074 733.992 714.074 735.304C714.074 735.944 714.322 736.448 714.818 736.816C715.314 737.184 716.002 737.368 716.882 737.368ZM729.33 728.416C729.73 727.68 730.322 727.12 731.105 726.736C731.89 726.352 732.842 726.16 733.962 726.16V728.392C733.834 728.376 733.658 728.368 733.434 728.368C732.186 728.368 731.202 728.744 730.482 729.496C729.778 730.232 729.426 731.288 729.426 732.664V739H727.122V726.28H729.33V728.416ZM736.801 726.28H739.105V739H736.801V726.28ZM737.953 723.832C737.505 723.832 737.129 723.688 736.825 723.4C736.537 723.112 736.393 722.76 736.393 722.344C736.393 721.928 736.537 721.576 736.825 721.288C737.129 720.984 737.505 720.832 737.953 720.832C738.401 720.832 738.769 720.976 739.057 721.264C739.361 721.536 739.513 721.88 739.513 722.296C739.513 722.728 739.361 723.096 739.057 723.4C738.769 723.688 738.401 723.832 737.953 723.832ZM750.296 726.16C751.912 726.16 753.192 726.632 754.136 727.576C755.096 728.504 755.576 729.872 755.576 731.68V739H753.272V731.944C753.272 730.712 752.976 729.784 752.384 729.16C751.792 728.536 750.944 728.224 749.84 728.224C748.592 728.224 747.608 728.592 746.888 729.328C746.168 730.048 745.808 731.088 745.808 732.448V739H743.504V726.28H745.712V728.2C746.176 727.544 746.8 727.04 747.584 726.688C748.384 726.336 749.288 726.16 750.296 726.16ZM764.472 726.16C766.232 726.16 767.576 726.592 768.504 727.456C769.448 728.32 769.92 729.608 769.92 731.32V739H767.736V737.32C767.352 737.912 766.8 738.368 766.08 738.688C765.376 738.992 764.536 739.144 763.56 739.144C762.136 739.144 760.992 738.8 760.128 738.112C759.28 737.424 758.856 736.52 758.856 735.4C758.856 734.28 759.264 733.384 760.08 732.712C760.896 732.024 762.192 731.68 763.968 731.68H767.616V731.224C767.616 730.232 767.328 729.472 766.752 728.944C766.176 728.416 765.328 728.152 764.208 728.152C763.456 728.152 762.72 728.28 762 728.536C761.28 728.776 760.672 729.104 760.176 729.52L759.216 727.792C759.872 727.264 760.656 726.864 761.568 726.592C762.48 726.304 763.448 726.16 764.472 726.16ZM763.944 737.368C764.824 737.368 765.584 737.176 766.224 736.792C766.864 736.392 767.328 735.832 767.616 735.112V733.336H764.064C762.112 733.336 761.136 733.992 761.136 735.304C761.136 735.944 761.384 736.448 761.88 736.816C762.376 737.184 763.064 737.368 763.944 737.368Z" fill="white"/>
<defs>
<linearGradient id="paint0_linear" x1="240.327" y1="592.471" x2="240.327" y2="453.828" gradientUnits="userSpaceOnUse">
<stop stop-color="#808080" stop-opacity="0.25"/>
<stop offset="0.53514" stop-color="#808080" stop-opacity="0.12"/>
<stop offset="1" stop-color="#808080" stop-opacity="0.1"/>
</linearGradient>
<linearGradient id="paint1_linear" x1="13571.1" y1="9189.71" x2="13571.1" y2="9009.45" gradientUnits="userSpaceOnUse">
<stop stop-color="#808080" stop-opacity="0.25"/>
<stop offset="0.53514" stop-color="#808080" stop-opacity="0.12"/>
<stop offset="1" stop-color="#808080" stop-opacity="0.1"/>
</linearGradient>
<linearGradient id="paint2_linear" x1="14229" y1="9189.8" x2="14229" y2="9009.54" gradientUnits="userSpaceOnUse">
<stop stop-color="#808080" stop-opacity="0.25"/>
<stop offset="0.53514" stop-color="#808080" stop-opacity="0.12"/>
<stop offset="1" stop-color="#808080" stop-opacity="0.1"/>
</linearGradient>
<linearGradient id="paint3_linear" x1="15601.9" y1="9189.8" x2="15601.9" y2="9009.54" gradientUnits="userSpaceOnUse">
<stop stop-color="#808080" stop-opacity="0.25"/>
<stop offset="0.53514" stop-color="#808080" stop-opacity="0.12"/>
<stop offset="1" stop-color="#808080" stop-opacity="0.1"/>
</linearGradient>
<linearGradient id="paint4_linear" x1="16317" y1="9189.8" x2="16317" y2="9009.54" gradientUnits="userSpaceOnUse">
<stop stop-color="#808080" stop-opacity="0.25"/>
<stop offset="0.53514" stop-color="#808080" stop-opacity="0.12"/>
<stop offset="1" stop-color="#808080" stop-opacity="0.1"/>
</linearGradient>
<linearGradient id="paint5_linear" x1="15442.1" y1="16522.7" x2="15442.1" y2="15648.4" gradientUnits="userSpaceOnUse">
<stop stop-color="#808080" stop-opacity="0.25"/>
<stop offset="0.53514" stop-color="#808080" stop-opacity="0.12"/>
<stop offset="1" stop-color="#808080" stop-opacity="0.1"/>
</linearGradient>
<linearGradient id="paint6_linear" x1="38510.9" y1="8563.11" x2="38510.9" y2="8364.35" gradientUnits="userSpaceOnUse">
<stop stop-color="#808080" stop-opacity="0.25"/>
<stop offset="0.53514" stop-color="#808080" stop-opacity="0.12"/>
<stop offset="1" stop-color="#808080" stop-opacity="0.1"/>
</linearGradient>
<linearGradient id="paint7_linear" x1="4469.78" y1="24654.5" x2="4469.78" y2="22667.1" gradientUnits="userSpaceOnUse">
<stop stop-color="#808080" stop-opacity="0.25"/>
<stop offset="0.53514" stop-color="#808080" stop-opacity="0.12"/>
<stop offset="1" stop-color="#808080" stop-opacity="0.1"/>
</linearGradient>
<linearGradient id="paint8_linear" x1="4146.66" y1="18378.9" x2="4146.66" y2="17481.7" gradientUnits="userSpaceOnUse">
<stop stop-color="#808080" stop-opacity="0.25"/>
<stop offset="0.53514" stop-color="#808080" stop-opacity="0.12"/>
<stop offset="1" stop-color="#808080" stop-opacity="0.1"/>
</linearGradient>
<linearGradient id="paint9_linear" x1="28709.4" y1="10829" x2="28709.4" y2="10496.2" gradientUnits="userSpaceOnUse">
<stop stop-color="#808080" stop-opacity="0.25"/>
<stop offset="0.53514" stop-color="#808080" stop-opacity="0.12"/>
<stop offset="1" stop-color="#808080" stop-opacity="0.1"/>
</linearGradient>
<linearGradient id="paint10_linear" x1="28734.3" y1="10806.5" x2="28734.3" y2="10473.7" gradientUnits="userSpaceOnUse">
<stop stop-color="#808080" stop-opacity="0.25"/>
<stop offset="0.53514" stop-color="#808080" stop-opacity="0.12"/>
<stop offset="1" stop-color="#808080" stop-opacity="0.1"/>
</linearGradient>
<linearGradient id="paint11_linear" x1="23076.8" y1="7869.38" x2="23076.8" y2="7697.71" gradientUnits="userSpaceOnUse">
<stop stop-color="#808080" stop-opacity="0.25"/>
<stop offset="0.53514" stop-color="#808080" stop-opacity="0.12"/>
<stop offset="1" stop-color="#808080" stop-opacity="0.1"/>
</linearGradient>
<linearGradient id="paint12_linear" x1="23076.8" y1="7852.93" x2="23076.8" y2="7681.26" gradientUnits="userSpaceOnUse">
<stop stop-color="#808080" stop-opacity="0.25"/>
<stop offset="0.53514" stop-color="#808080" stop-opacity="0.12"/>
<stop offset="1" stop-color="#808080" stop-opacity="0.1"/>
</linearGradient>
<linearGradient id="paint13_linear" x1="19102.9" y1="9455.05" x2="19102.9" y2="9189.17" gradientUnits="userSpaceOnUse">
<stop stop-color="#808080" stop-opacity="0.25"/>
<stop offset="0.53514" stop-color="#808080" stop-opacity="0.12"/>
<stop offset="1" stop-color="#808080" stop-opacity="0.1"/>
</linearGradient>
<linearGradient id="paint14_linear" x1="19102.9" y1="9434.83" x2="19102.9" y2="9168.96" gradientUnits="userSpaceOnUse">
<stop stop-color="#808080" stop-opacity="0.25"/>
<stop offset="0.53514" stop-color="#808080" stop-opacity="0.12"/>
<stop offset="1" stop-color="#808080" stop-opacity="0.1"/>
</linearGradient>
<linearGradient id="paint15_linear" x1="-2630.91" y1="4865.43" x2="-2630.91" y2="4797.99" gradientUnits="userSpaceOnUse">
<stop stop-color="#808080" stop-opacity="0.25"/>
<stop offset="0.53514" stop-color="#808080" stop-opacity="0.12"/>
<stop offset="1" stop-color="#808080" stop-opacity="0.1"/>
</linearGradient>
<linearGradient id="paint16_linear" x1="4440.28" y1="23570.9" x2="4440.28" y2="22161.6" gradientUnits="userSpaceOnUse">
<stop stop-color="#808080" stop-opacity="0.25"/>
<stop offset="0.53514" stop-color="#808080" stop-opacity="0.12"/>
<stop offset="1" stop-color="#808080" stop-opacity="0.1"/>
</linearGradient>
<linearGradient id="paint17_linear" x1="4448.47" y1="23570.9" x2="4448.47" y2="22161.6" gradientUnits="userSpaceOnUse">
<stop stop-color="#808080" stop-opacity="0.25"/>
<stop offset="0.53514" stop-color="#808080" stop-opacity="0.12"/>
<stop offset="1" stop-color="#808080" stop-opacity="0.1"/>
</linearGradient>
</defs>
</svg>
